<mxfile host="app.diagrams.net" modified="2021-05-27T16:28:41.060Z" agent="5.0 (Windows NT 10.0; Win64; x64) AppleWebKit/537.36 (KHTML, like Gecko) Chrome/89.0.4389.90 Safari/537.36" etag="R2sBQw5VaMCyy4X0jnqm" version="14.7.2" type="github">
  <diagram id="hmngJStLeihR5Uo6FeG4" name="Page-1">
    <mxGraphModel dx="1422" dy="5456" grid="0" gridSize="2" guides="1" tooltips="1" connect="1" arrows="1" fold="1" page="1" pageScale="1" pageWidth="827" pageHeight="1169" math="0" shadow="0">
      <root>
        <mxCell id="0" />
        <mxCell id="1" parent="0" />
        <mxCell id="HnorNMe7MBEDUzYWuFHN-14" value="Conv" style="rounded=1;whiteSpace=wrap;html=1;fillColor=#dae8fc;strokeColor=#6c8ebf;gradientColor=#ffffff;" vertex="1" parent="1">
          <mxGeometry x="573" y="-4042" width="80" height="30" as="geometry" />
        </mxCell>
        <mxCell id="HnorNMe7MBEDUzYWuFHN-15" value="Conv" style="rounded=1;whiteSpace=wrap;html=1;fillColor=#dae8fc;strokeColor=#6c8ebf;" vertex="1" parent="1">
          <mxGeometry x="511" y="-3932" width="80" height="30" as="geometry" />
        </mxCell>
        <mxCell id="HnorNMe7MBEDUzYWuFHN-16" value="Conv" style="rounded=1;whiteSpace=wrap;html=1;fillColor=#dae8fc;strokeColor=#6c8ebf;gradientColor=#ffffff;" vertex="1" parent="1">
          <mxGeometry x="625" y="-3980" width="80" height="30" as="geometry" />
        </mxCell>
        <mxCell id="HnorNMe7MBEDUzYWuFHN-17" value="Conv" style="rounded=1;whiteSpace=wrap;html=1;fillColor=#dae8fc;strokeColor=#6c8ebf;" vertex="1" parent="1">
          <mxGeometry x="572" y="-3820" width="80" height="30" as="geometry" />
        </mxCell>
        <mxCell id="HnorNMe7MBEDUzYWuFHN-33" value="" style="shape=image;verticalLabelPosition=bottom;labelBackgroundColor=#ffffff;verticalAlign=top;aspect=fixed;imageAspect=0;image=data:image/jpeg,/9j/4AAQSkZJRgABAQAAAQABAAD/2wBDAAgGBgcGBQgHBwcJCQgKDBQNDAsLDBkSEw8UHRofHh0aHBwgJC4nICIsIxwcKDcpLDAxNDQ0Hyc5PTgyPC4zNDL/2wBDAQkJCQwLDBgNDRgyIRwhMjIyMjIyMjIyMjIyMjIyMjIyMjIyMjIyMjIyMjIyMjIyMjIyMjIyMjIyMjIyMjIyMjL/wAARCAMgAlgDASIAAhEBAxEB/8QAHwAAAQUBAQEBAQEAAAAAAAAAAAECAwQFBgcICQoL/8QAtRAAAgEDAwIEAwUFBAQAAAF9AQIDAAQRBRIhMUEGE1FhByJxFDKBkaEII0KxwRVS0fAkM2JyggkKFhcYGRolJicoKSo0NTY3ODk6Q0RFRkdISUpTVFVWV1hZWmNkZWZnaGlqc3R1dnd4eXqDhIWGh4iJipKTlJWWl5iZmqKjpKWmp6ipqrKztLW2t7i5usLDxMXGx8jJytLT1NXW19jZ2uHi4+Tl5ufo6erx8vP09fb3+Pn6/8QAHwEAAwEBAQEBAQEBAQAAAAAAAAECAwQFBgcICQoL/8QAtREAAgECBAQDBAcFBAQAAQJ3AAECAxEEBSExBhJBUQdhcRMiMoEIFEKRobHBCSMzUvAVYnLRChYkNOEl8RcYGRomJygpKjU2Nzg5OkNERUZHSElKU1RVVldYWVpjZGVmZ2hpanN0dXZ3eHl6goOEhYaHiImKkpOUlZaXmJmaoqOkpaanqKmqsrO0tba3uLm6wsPExcbHyMnK0tPU1dbX2Nna4uPk5ebn6Onq8vP09fb3+Pn6/9oADAMBAAIRAxEAPwDhk+9Sr95hSDhqUcPn1FeWemA++aIwGZ0P8SkfmKG++KEbZcIe2eaBDUYtGp9QKDRGANyf3WK/rQakpCZ5xRSGlB4oAYaSnt0pnegBG6Uzo30NSVGf4vwpoYv8DD/apzcYNNP8Y/GlPKZoYyxn5M1MhyAagTmOpovuipATGXNS9hTcc040CISPvVUHRvrVxjkN9aqgY300Ah6n6UoHJFKvX6rSjrn6UwHA1ItRr0p4pWGSUMMxsPY03NP7fhQhiQ8xRn/ZFTZ4qvbH/R0+lTg8UMlCHr+NJ/jSk80nelYY4d6U0nc07tUgAHWnCkFOGMfgKABvvUvYikbrSigCVe30py9KYh5p46UgE/i/CnpTcfN+FOSgYN/SmEZenNik6UDEHT8KTqtO4/Sm54FACilWkHU05RTAmQVHdEpp943YQP8AyxUyjrVfUyRol6R3ix+bCmtyTP8ADyY01T6ua3VHNY+hrt0yD3yf1rYXmqnuCExyaDQKUismUNFGPmpwFIR834VIxO+fY1H2X61J3/A03glR7UhkTf60/Sjqyj3pD/rGpyDNwp9qYE55kHsKaR0+hp46t/u0h6/hSAQCmn7uKfTX6UCIz0FJSntSUALTh0FNHNPA4xTAjfrSDniiTg+9KowRimMco5pS2yOWQ9lNOTq3FQ3ZC2bL3dgv5mnHcTGWYK2sY9u9SN1p6jCimt1oJG4zSj0AoxSigBcUU6ikBzp7U8/eFRt0p7c4NdBmDjBU018B1OaVzlc+hpkh4BFAhx+W5lGep3fmAaVqR+J0b+9GP0JH+FK3tQxkR60o+tBFJgUrDFJyKbTu1NosCCmEdfpT8cUmPmH1oAb1YH1WnLzFSAcpSpwpFMZLF9zFTQngjvUEJ61JHw5qWgJiaUnikoPSkMizyar93qwtQD77VSEIOq/7tKvX8qB/D+VAOD+VMB69KeKYOFpy0gH09eTTKev3h9aQEcHEKewqYGoYB+6A9Cf51MKbADRmjt+FFIY5fvmnUxfvfhT6QCinDp+FNFOHSkANSjoaQ0DoaQEicU8UxOn4U8UALn5vwpVPFMJwfwpyHIpWGKaRutOA+b8KRh0oGIaQDJFKen40LwRQMCO9OHejOVFKtAmSqcLVXWWx4fuzjqEH/jwqyPu1S18hfD03+06D+dVHcli6QoXTbYf9Mwa1E6VQsF22kK46Rj+VXh92nLVggpaTFL2rNlAOtGMmgdacByaQxhGCf92mbRuz3AqQjJP4UmOWpDK2Muxp8QzJn0FRrkM3TFTwdGNADwPvfWkH9aeOg+tNpAJTXFPxTCOaAGEU2nmm96BCrT6QDFOxTGQydaeBjmmv98CnYwKYEicJ9ar3nLQR+r5/KrGPlFVZTv1BB2VCSPqaqJLLHaozzUhPFRmpEJTlGc0gp46UAHr9KKP60UAc4aCcpSBsqDQoJVuK6bGQp+ZDSYzH+FSwQSyjEcbMfYZrTtfDeo3AA8goD3Y4q1Tk9hOSRjyHKQN6Fl/PBp3auutvBLNGI7m5xyGwg/z61r2/g3TYvvmWU9snGK0WHkzJ14o836jpShGYcKT9K9Vt/C2lx422aHHTdk1ow6Va25+SCNc/ewo5q1hu5LxK6Hj8dncyfcgkb6KTViPQ9TkxtspTn/Zr2GO1RfuxqB7CrCwqMHHNV9WiT9aZ5FH4S1iQZ+xsP94gVOPBGssRiBOec7xXrYi6YFSLFweKtYeCIeJkeRjwHrH9yLIPTfUq+ANXGTiHJ7b69bWIEcipBCMU/YQF9ZmePL4E1mJj+6jIPcSCmt4M1tTkWgP0cV7KIVo8kDqKX1eA/rMjxk+FdZUc2L/gRVaXQtUh+/YzYx2XNe4+SpFNFuvoKn6tEaxUjwVtLvYwxe1lUDrlDxVE28qyuGjIPuK+hzbIeNv51HJplrKMSW8TDvlRS+rRLWK7o+egMbQR3puO3evdLjwho1wMNYxqfVRg1kT/AA50iTdt86MkYAVs496h4Z9C1iovc8k6YHNOHXivRpvhkoU+TekntuWsqf4datFkwtFKPZsGs3h5GirwfU5MCnDr+NbNx4U1i2BLWbsB3XmqDaddwNiW3lX6qaj2UkWpxezKMPAYejn+dTjimLGyvKpUjDnqKfzxUuLGmmJRRjijOKgoVetPpi8EU4HilYBwp/YUwU8dKAEI6UoHUUH+H6U4Dr9aQDkpwOcj0601BTwBk4FIBrU+NQEpjA4461KnCigYqjk/Smv1py9T9KZIOaVxgfSkGcmk70ucZoGL2FKppM9v89aUUCZMPu1m+ImI0ILnl514+gJrTRGcAKpY9sCotX0TUNQs7eC3tmYiYs2eMDAH+NaQjJsiUklqFuMRIB2UCrgHFaFt4cueA5VBj61ow+HB/wAtJzj0ArR0ZNke2gjn8YFAFddH4btdoLM5981MPD1htAMZPvmn9VmT9ZgcZjHNGOTXa/2BYd4z+dIfD9gwxtb67qPqku4fWYnFgcn60zsxrsn8L2zNlZZF/I5qtJ4SyG8u57cBlqHhpopYmDOOx8mami/1Ga2pvCeoRR/IY5D6KcVVl0e9togrWz8dSBms5UZroaKrF7Mp9APZaTHSpZEkXO5GHbkU0xv/AHG/Ks+RlcyG461EetTlH252N+VRGNh1Vvyo5WF0R+tMA5qXaR2piLk5pWYyQLmlxSqKUjFOzArN/rRUu08VCf8AXD61YHWgQuB0qog3X87emFFXQe9UbLlWc/xuT+tV0Blhvu1HipXHFMpCEx8tPHQUg6YqTHAoAYR0+tFOI5/CikAyz8Iy4X7RMAM87RW7a+GrG3YP5e9v9o5raSPC56ipY0J6ivaVOKPLdWTIoLSKNAFRVA9BirKW4LA1MkR4qRU56VSM7iLEA2RU4QdhSAVIoIpiHKuBTgAD0oCH0qRYiT1xTuITA608EY4ApVhOfm6VYWNcYAouIjVcgGpxGMUqrjtUgXPai4DFQY6U4LTwuBTwvHvRcBmyl2in4pcUrgMwKTaKfil29KLgRbTS7akIoxTuBHsGKTZUtAFK4EZQelMZBjpVgimlaYFfYCOQKjaCNuCi/lVkrSFaQ0zNk0mxkLF7WJiepKDmqFx4T0i5Ys9mgY914roNvNSbeOlFkVzyXU4W6+HVhKp8mSSJvrmsG++HWoREmzlimUdAflNer7M9abswTUSpQfQuNea6nhN7oGp6eT9os5VUdWAyPzqgQQcV9BtErjaygj3FYl/4T0e9U77REYn70fymsJYbsdEcV/MeLdDUg6Cu61P4cukW/T7je46pJxkexrkrvR7/AE87bm1lTHcrx+dc06Mo7nTGrGWxT/u/SnA8GmntTux+tZNNFj06U8HimLTgDnAzSsMRzzT1ztx61PFp1zORhCB6txWlBoiH/XTjA7LVxpSZDqRjuZCjaaR+e2faupj0zT4+fLLn3arMcFpGMR26D8K1WGfVmbxEehx0dtPKTsidvoKux6JfSLkRbev3j1rqQwxwAv0FJvbNaLDx6mbxL6Iw4vDb7szTAD0X1rQttFs4mBKFuf4jV0PkU5TWsaUF0MZVpvqTRxRRABI1X6Cp16VXDds0/eQK0SRm5N7llWHpTt3pVUOakV6Yi3HIehPFS+YKphqkVuOaYidm9KRT61Hvo3UAWA4HBNAfnrVfdmmbjng0guXd2RR161WVm9amV84oC4jRq3VR+VMMKY4UflUpNJ3pWQ+ZkKwqP4B+VP8AKT+4v5VJ1oosg5mQta27ghoIyD2Kiof7I08/8usf5Vb70opcqHzPuUX0HTnH+oAPqDiqknhS0c5SSRfbNby4qQVLpxfQpVZrqcVL4Ll87dHcDb2DCq8vhrUY+FRHGexxXdt0qPb6moeHgy1iZnnlzpl9BDITbSZCnoM1nW1rLDCiPE6nHQqa9V8rdS/Y0fGUU/hUPDLoWsU+qPLWVgOhpqxttzivWo9Htjy0KEn1WpBotr/zwj/75qfqvmV9bXY8hCnAzT8V6q3hqwckvbRn8Kp3fguwnTESGJ8cFT1qXhX0GsXF7o81PWirWo2E2m3b204w6nr6iiuWUWnY6lqro7CIEjpVhVApka4Xrmp0TIr2zxh6DAyKkCkc4pqjAxU4GaBCKpJzjmpVjJ5IxT4kw3NWETPagBscfrUoQU8Lg08DpQIaEp6x4pyingUAxmynBafjinAZFAhgFOC0uOKUUhiYpAKdRQA3FBGKdTTQIMUYpaMUDGkUA0p6Ug7UAOxmkIpR0paYEZFNIzUhWmUDGgc1IKQClFAgxSYp1GKYDCKTaKcRSUrjI2TJ4qCaCOZCsiBlPUEdatE8VCxzigpGJceE9GuoyrWSIf7yfKRXC+JPCb6Q3nWrNLbscEHqp/wr1XIA5rA1K589ygA2isalOMkbU6sos8zh05wu+clAR93vV2ExW4/dquf7xGTXT3NtFLHtKL9cVg3diIclTx6Vl7JRNHVciJrhnxlqdHI2c5qjljIFXmtCGEgAn8qpEstxtx0qwrZqunA9qeCAM1aM2Wc4pu4DrVYzc9ajaYswAouIuBx6U5TnpVVG+YVOpxRcCytSCqocipfO496q4iYHmlB5quZBTw2KdwJ/MweKlLZFVAwPeneZjvSuBZ8zHanBuM1W8wHinl+ABTuInDgilBxUIYAUu4kikBZU1IOarxHrUynj3pgSjtSimKaeDQAo4pDSjmgdeaBDRkmnAU/AOMUu2gYACpRyBTAKkCnHFIkXbmjyxTxT1GaYEYX2qeMfMKAuamUYoC5ItSq+OMVGo4qQDFAmTKVPUU7aD2qLjinqSKYjlfGvh83toL6Bf3sX3h/eWiuxDJKpRh1HQ96KxlQjJ3Z0QxEoqxwqjgVPGMJ0+tRKOlToK3MByqelTxLk/wBaRVyOKnVeBTFcei/MKnA9KiUY61Ip9KAuSqKkVaiBxUoJxQA8CnAU0E05TQAoHBp4FFFADqaRSjmlI4pAMoApSKTpQAuOKQ9aUdKQ0AGKSnCjFADab2p2OKaRQADtTqZilHWgB56U0ilzSZoAMUUZooAUUtNINGaAsKRxUTcEVIW4qJz81BSI2kABqINk0yZsNiow/OTSGN1K48qAoh+ZqwguRk1bu5PNvD6J0qrPIEjY1LKRVupRGDWBeXDSsVXqe1T3d0ZGIBqsi4OazZaRHBbiM7jyxqznByKjZhnrTSxPehDJt+KTzMioh0ozTJsOpcdKZupNx9aAsTB8U9ZT61WzSg0AWvOwOtOEhYDmqu7mlDmgC9vyRUnmbaqRuMYJp5fJAp3EWd4oL571XD4p+/NAE6uSM1KGIqsvFSK2TTEWN+Rg09G4qDPFPU56UAWo2zU4PAxVRfrzUyvgdOaYiwKcuSaiVs1Ih5oAlHSikBpwHFMQgODwalUmosU8EigCVRzUoqJTUyDOKAHBakUCkNKO1MRIOKevFRr1p4pAShgKeGzUGactAE+6nBjUYp4FMTHB+feinCPdRQKxx64BGKspzzVUYHNWY2BXimMtxY29KnjXk5qvHjZmrScgUwEI54pY+pGKlEeRShMUhAgyanC44qIcVKvTmgBwFPVeaSIgnFWFXNAEQFPC5FIeDTweBQAgWlxSgU7tQBCRSYqYrxTD70gIwM0EVIKCKAIwKUjinUYoAjwfwpStB4PWnqM0AREYpvU8U+YYamrzQUAAo49acRwajUUmA8AUZAPFNb5cc0zeM07hYmyKb1FICMdaM0ABxVeXKjipmPFVppABSuMqTNgknrVcTFs4pLiULnPU1nS3Qiyc496nmKSIzOPNlJ65xWVqN5hCoOKWefLMyt1OetYl7M3IJznvUORokCPlic08yYGAaoLcAdxUiSA85qbjsWc5+tLmog49acHBp3EPJwKTPFJmloEGSaKKTNADqcKZmjNMBxOaUGos0A0CLCnJFTg1TU1YVuKYibNOU81BmnbqALakEe9OXrVZXqVXpoRYTnipU4quh5qYMKYE4anA5PWos05eaYiyOKmBx0qAHing8UATK+KlDiqynmpAcUAWO1AqMP0qRTTEPUVYQ8CoAakQ0AWF5pQOaYrYp4OaYh4qQVGOlSKeaQDsU5RSUooAlXmnjjpUa8YqRaYEyMaKRaKBHFk7OtTRtxn+VRzLkbhzTrf5uDxTuBoRASKAMirsK7RyarQkAgL0FXYlyfrQDHLktjFEhC1ZWHgYqrdZXtUtgKDmpf4cVTjkwOatggrmhMTBavRfdqiDVuFuMVQDW+8aEPOKfKufmpgNAEwopFpxoAXHFQOcGpwarzAg5pAOSnsOKhQ9Km6jmmBF3pwwTTGGGpy8UANfrQh6U6Qd6atAIJxkZFRJ1qxJ9yoMYNIY+oScE1NUMvGaGNEEk2DTFck5zxULnJ5NOU4FJDLIenb6qhzT9+Bk0wsPkkxxmqVzMdtLLLk9azrucbcZxUsaRWuJsjGeaxNTnbAQVdlmADMT0rFuJdzl2PFZSNYoqSSsmd1QTtvtye9ErmaXCDp3ouVCQEdqgoyJVdTTVllQ+1XXUEdKpzMFqWikTJeAfezn1q1HcqT96sYyA0iuVbINCkDidIrbhmnCs6zu9wANaG70rUzejHUopuaAaBDjTSaWmk0AGaUU3PNOFAh69akBpg6UuaYiQGnBqizTgaAJt2KcG6VBu7U5SelMC7Exx71KrZqojEd6lVj600xFvfnFSqelVA1TIx4FMC4o9aeDUKSU8N8w4piLA+7So2aiVuKevQ0ICZR3NSg1HGcqKkFAD1znmpVPSoQTmpQRxTES7qcr4NRU5eDQBbByKkFV0YmplNAiUU4CmA5p60AOqROSKjHJqVRTAlFFAooCxzRh4OOlIsXP9KmhO/k0oHzZ96Qh0XykfWtGHKjP6VRMYDZH5VZifbx2pgaUfIqO6h3x5xzSxMDjBqcDcpFOyEYJzHJzU6yZqW7tiCSBVLLIcVGxRdRuatwt81Zsb1dhYkZ71SJsXuCvNRFcGlRsr1pSKYCrTj0zTF61Jj5aAGg802Vcrml70vUYoAgHBqUcioiNpqRDkUAI4pFPansKYBg0APPIpmMGn009aAQpOVNQEc1P/DULdaBgDzUF02F+tTZ5AqreN0oGijnJpJJNowDzRkAEmsa/1IRuQuWIHQdam9i4xu7I1RMo/iqFtRieYwxyI0n9wMM/lXmmreJNRuyYrd2hiKngdT9T2/CofD8V3DcQ3McUroj/ADspyVz1570JXPQ+ouFNzm7HpM9xOI5C+yEBchmOefcelc5e6xbTaZLPDel5EbZlQMbsjg+1X9RuWji2h/mI4J5zXn0ukvDIWaV3heYHaATyerED249qTRyUoq+p041ddPkP2iJZ5HBIVHyPYAHmo7qTTryV4pISjMFmZlOMew9Kw7qLyby1lYIscR2r3bHYf1pslvql/epNbQStbkYxtx35yT2pnTOMLIu3UkepabdFA1tCitsMZwfl6HP4Vhadrd3d2sqTQyTGFN29E5P1/XmuustLnhLq1s7HHR+FPtnpWbNrkyajDbx6fJBAcrPmNcZxxyOMf41LiYJq+hDhzaRzGN1RxlSy4zWXdd60NN1Nrm7OnTl5FeJmCNxsYY24P51RnR8YdGQ9wRispIeidjPOR0NJvYVKyH0ppjcDJU4+lZ2KuOiujG4Oa34JwyAg9RXLvjJHfHTvV/Troj92x6VUDNo6JXzTxVNJRxVpG3DitCWP+lN5zTxSEc0CExzSjrSigjApALmlzTc0ZoFYfmlBplLnFMQoPNSA1EOTTwaALCmplPOarI1SbqYFhDzUytVZWqVG5FO4i2p4zUqPVVDg1KpPemItqcrUinNVkNTKcUwLCnFTI3HNV1NPU5IoAsjk08VGnWpV5oAeozUgFIg4qTFMQqDFTAZqJF55qdaAFXgVIDTMZp1Ah61MtRJUq0wJRRSDrRQBz0GSOBirIixzTIinGOtXowCvNFhXK1OVqmkh4yBzUJQqaALML4NXYm5rMjJBq7C9NCaLMiB1rJuYiDkCtdTUVxCHTgc96TQ07GLGcGr0LfL15qpLEY2PFPgfPGcUkNmnGcrUueKrRN2qx2qiRRTwaYKeBigCNvvU5c0xyd1Kh4oAJB0pIz2p55FMUYagB56VGOtSE1GeKAHA0jUL3oNABniomqQniozQNEZOGqrdHjNWGOCcmsfU71YUYlsUmUkZmr6ktnAwDDca86vNdlXWra4iucxIx3IAfvdCGHfPStuWRdT1Xy5ZzDGoLbs+namXGjWeutBNptsYbqCYfaHZiyS49G7njOaxd5O510nGD1E8Ho9zDdm+sNpb7ryJgOD1ABrYlkttH02aS1iUoCDtVupJxyfaktNAuLDU76b7VPNDOMQozZaPceeCe1Y/2UWV/chRKLePCIc7vNGMkkH7vNarRG/N7S7cjL1XU5be5SWK7intDM2VHzFDjkZ9B/Wqlx4giiX92C7H8AKzpYbSTUZT5ojidi7KoOOucenvVxdLHiB4ksVEbs3Jddvyj2qbgvZLSQ7R7qa+vJJbkmREG6MbeAee1dBpHiOV528+z8uEZCruy7ntgdBXR6R4HSHTnimuDuddqlF27fr6muLWylfWHjhnVJLYMdhU/Nj6d+KrlZtQoUq932PQrR5dU0uK5ht9sUmChZhkdiCPUYNZEWlQQu9tImEhdnkXy8M6MeMn+JfvA/QVXSC41jQbS1S6axuPtZki2s37xQoLMPxJPHerJknW+bUWupJG2eRECRgKvXOOpJ5oucU6fLJxOF1n+z9H1U2+lzPCN6nc67hEp5O09xz0NamurPJbpOyReSm1FcP8xz6jsM/zrJ1a+03W7madbI292uVDKfklxxhh2PvTFu4rjwv5CSGT9/HDvIIJAySOfTms2jWWHlG1y9pmlx3MMk07q0eSqhegx15pdQgitbXaJVRVGFLHP/66t6neWdxp8X2cskDJ5cxRsLGMdx0/H6VwF7byQTkmQ3NksoQSb+oHTvxxQ42MeR31NOWJzEJXQCVckAH/AD1FYVvqTfa35OS3ye3sa0bmG5TytlyHik+aPbznHbP0rE1KOUXIDJGjMM5U/e/wpJA1Y7TT75biIEHkdR6VrxSZwQa880rUJYZUbkR9Hz+hrs7S6WRQynrTIZtqwagmq0UmT1qcmgkevNSdqjU0/PFIBp4oo3ClPQUAAopM0ZoAcKdTKUGgRIGxTw9Q7uacKAZZQ1YXtVVG4GKnVs4piLCt+dTI2arLUinnFO4i2rVKtVVbtU0bcGmBaU8VLH1qvESzVaQUxEympUqJR3qZKAJlNTgcVXUVOGpiHipFqIGpl6YoAVeDUoGajFPWgRKo6U8DmkU8Cn1QDhRQKKAOYgkBxWrbyA4Brm7WfDYPpWvBJyOfpUxdxNWNgEEUxowaZGwIFTCqEV9m0mpY8jpUjLx0pgFCC5ajJOKm6jFVYjVhTTEU7qGqGzY1bjqHXBrMni2MfrUsq46F84q6prOjGDVxG4FCAsCnCo1NSUxIhf71Khxmkk600HFAybPFNPWlB4pDQKwvammlpKAsHagnikOMig0AhpPFRM3FOZqqzzbVoKSIbu4EQJJrhvEGplwwB+tbWsXxVCAa8z8R6wsG4Zy7dB61lOXRG9Km2xDqL2tx5qxLLk7SrHgiulsjcaijxu7QxyqyyROoHbgjHf3ry0avNnLBT7V0vh7xQhlW2uHKn/lmzHg/7JP8qmOh1VKUrXRst4W8QG5RpGlki2lkK3XMbDpz607T9V16Fwb9ZLm1RjHLEygyp6E+o963k8UWlrsS7WYDB+6uVI/2v8965jxPdWV9dpMiPHK6ZLAlSo9xVtmClK6UkVndLrWY7fRxNcPJuxCUACnv24HvXf6X4aPh21fUnjgluliUMEQ4HPzY59KzPBul3Nlfz3sFkUtXs1WKRxhpG6gn0JOf0qeWbXJdbt728aWGwkHkSW8ZJzwc/L7noaqKtqXG1Rtx2OhsrXUbPUbuRAJYbm5Eyu8mAIyqjBA7jnH05pt/oUb3w1WzjAvo/m2n7knsw/r71PPeXdlqNrZwWqy2QgXc5Y+ZknAx644z9ap+EdbvtZivHvbUQ+VLtQgEcc5U+471fMtjJzlG7joWLjw9YSTRO0LKEjZEUMQE3EE4964jxVqS6JhGtSiKzJGzdv8Aa/GvStStjeWhSOZoZVIZJF52keo7jsRXI+I9Nd7ET3FrBeCEb/LfPB749R7GlJBSbcrPc8bfUpZGaRkIklPLEY/EVbZzHYWsUS7wZ3mkHQZ2gDPtya6pLqyk055TpxkzKA8O7J9iPaodZ0SeGJpzZCNMK628X3lJ4I9xjnNZ2PQqVtbS3Rzena5c6UJFlhWe0bllUZwT7elTwa3YwyyLY2yC2mYboZE6/j+dUbiQ2TNHDC8yTKOGG0oc9CKvaHHYXslzBcERPLHsaNuAeeqn16UXuQ5U/iRtG0t7jT1NrEI4iCVAH3T3/WuTvYF+3mFjF5ig5LJj3rofsl1pVrcW9nPJc24yGhyBJH7qe9UVWG8AuRMIoUXDQSHJPryelI5Xa+hx88DQXDmM7BnGBnH0rd0q8KYiZgcdCO4rP1Ewygm1lXye4I6HtWarPEUkU4YdR6e1IEk0ej2txuxzWkrZGRXG6XqPmqpJ57iuntZg69aDNqxoxng089KhjPXFSE5FAhMc088CminN0oAbnJpSKYOtSDpSFcbmnZ4pCtJnFAD804GowaetAEyGp1PSoIxwalBpgTq3pUinkGoFOKmQ80ATLzzViMk1CnIxUyDFNCLUJwc1aU1Tj4NWV6CqEWV64qZO1VkOWqYNg4oEWFp1MB4FPBpgSrUqnJxVdTziplyDxQInFOWowaepoETA1IuaiFSrTAlFFJiimBwksLW8vSrttNuxk1pajY7wWA/KsWNWhkwaxS5XYe50EMmQOauK2RWPBLwAelacL5WtbktE5oozSjoaYhV4qdGqEU9TigCwKgniDDOOakU0480wMsrtarKHpSzRc5FNTg1IydT2qUVCpqUUxEcn3qjqSTrUROKBkqtS5qJWp2aAH5pCaazd6aXGKAFJppeo2kVep4rA1TxRZWAI8wMT0GetBpTpTm7RRtTTBV96xr+/SJfmcA+5rhtT8fyl2EICr25FcjcaxqWsT+TE7Oznjnj86Tdj0IZdO15aHWeINft4o3PnKzDooavO9Rl+0zXLyoZJFA2KueMjNa39lm1Be7cSytxjqB7Vl30azX5dmUqsezaD+prnk7sXKoaRKkenxtaIXJEhXJIPeqU0CROE3ZPerV1cldsEJy2O3YU+3tDkM/zN6mpuyuZlyO/u59MltJR5ilMRseq49+9ddodjbX2omW7c/ZzDHjzWAzwNy5+vFc1Bbj0q8Ig6gMuQPXmmpWMpK9zrJ/ijHFqC2tnZKbVH2PI7clc9QB0robbxTY62l1Hpk/7yJOHdDt3EcfUV5oLWPOfKQ+uVqSKAxEmMbM9dvGa0VRkOMUtDtJNY1q0Fna2d5aXNyjM10XOfQjr0BGeBW/b+JobzyntWxEJCJg6FcjbnjPfOP1ry9YJGYfM2c9c1Y8ibj95IP+BGhTZDjc9OufEFjZRmW5mEa56E5J/Cs258ZWcjxpZ27XQz+8b7oVfb1PtXAi0LSfMSc+tdJplkkFszsOCKr2jZPIo6mnbOSrmytI7OKQ7zjlif6UlzFvUhyWPqat2IDw8jtSzxYGcUxSk27s5W90qCfO5Bn6Vzt54bjLExDB/lXevFk4IqrLAM9KVhpnEM95Cyic/MnCTbckfX1FR3enxapbsJRGX/AIZ4v6iuoubRXVgQOlYk9m9s5eE4J6jsakZzlpp8Fg7296m4ScLIxyrf4Gq+paVEhHlLtbqrDkH2Nb8+y7jeKQFWIwAemfY1nmM20SqwkaHHR+qf/WpXKRzQaW3lMoQoRjcgH610uj6mHKqT1/Ss2+EZkMYUsQu8EelZO64srgSj23AdKYM9Qhkz34qwOlc9omope2qyKeehHpW8r5AoIaJc0UgOacaBDR1p4pop/agQ1mxShcgVE/JqaM4WkAzoTT1NOKBhx1po4JB60WAlBx0qQHNQKc1KtMCdBViMdzUcY6VYxQA8cdKsRnpVdeamjPamhFpRVhThahj+7ipR0qhEqHBqRWyc1AGzUi9KBFpXqVTmq0fLYqcEAUATIcGplOarr0qVDgUxEoanqai609aBFlD0qYVWQ8ipwQaYEwopoNFMCMqJFIrC1CyKPvUceta1vKW4NTTxCWIjvSauKLscxGzIRknFa9vKCo5qhdWrRSHA4pbeXHympRRtowP0qSqkByo5qyDxVkjxThTAadQIkDYp4YVDShqdwJHGagxg1Nu4qNhmkAq9qmHSoAcVKDQMa/JqBzg1O3Sq0rgck0DFDU7dxWbPqdvaqDK6qD0ya57VvG9raxOsTAuOg9aDenhqlT4UddPcxxIS7gfU1zuq+L7LTwV3hm9jXnGoeKdQ1iZYrZJC7nCqvU/StDTvh7q18fO1SdbSM4JBO5yPp2pcyR6EMDSpq9V69iPVfHF/qDGG1DKCcDaOTWONG1W/vGiuibaQKHxJ1IPTA969L8P2vh3TZGg04K1zkozyffbHp7fSs6SSbU9alka0iSGJGSC5z+8+9gkDpjIOKynNmk8V7P3IRsecX2mx2UMiSwyC580BVl7p3OO3PSo9OhkuNUzCGjjtyN56ZPpitbV4Em1CGKOeSa5Zyr7+SpB9e/H8qW0hmtLe4lmyJp23YPb61DdzpqVUqKaerMrVriVJ4lV8lCCw7d65O7ld5tqtuIz36Z9+9amqX0ouJYBgyE9QMY4xVKytd77sHryT3qTzR9haEDe3JxyT1rZggyBxxT7e246VoQwe1C1E2MihxjirsduSOlTw2/StCO3x2qkjKTM9bY46VKtt6jmtEQjHSpI4AWHFVYi5XisgVzgUSQhVPArUWLAAqrcALTsK5TtLbfcDj610M0Qisu3T8qp6XAHkyR1NaWq/u7cIo4ppaEt6k+nIPJUe1TzR8YxTdNj/AHIOfpVuWMYyatbEdTHlj5FVpI+DxWnKgz0qu6DNJlIxpoOOlZl1Fwa6Gdfl6Vl3EYK1LLRy9xbg5BFZc7SRqyNll7HuK6O5iwDWPdRggms2Wjkry3eNd8cpOSVwOOOvFVkn+0BkZcRhRgnsa2Lq3B5wDg9DWHLEUduOD6dqpF2TZa0m7OmahkkrE/Dj0969AtrgOikHOfSvNWBa0OQSQME1u+G9VIRbSWTJUfKT3HpVWM5RszukII61JVK3lzjmrgNIzFFOxxSDk040CsQkc1IlN704CgCQVHKfTrUg4U5qvI2TihjJkOasopJHFV4VzxVyMbcE0CZOiHjjipWYAUijavNQSvngUAWEbmrUQzg1RgBYjNacQ2x8imhEwOFzSCT0PFRM+RgU1WJNMRcQ5GKmSq8Jy1WVGDTQiaPhs1NkEVEOlP7UASqeKlQ1XU1KpxTAsLzUg4FV0bBqZWzxQImQ4IqZTUCGplOBTETjmimr0opiM6FsZx1q9G2V61mpnfmrUbc9aBEl1AJUNYbxmKTnpmujByKzb6AZJxwalopMZbSjir6nI4rFiO04rUgcbRTQMtDpS0zORS5xTJH5o703NJu5oGkSZoJqMuBS7wAM0AOpd2Op4qvNcxwxl3YKB3Jrkdd8cWen7oon3v6qelBtSoTqO0UdRqOqQ2EDSSOOO2a811rx3I80iwORGR8u3p+dZkR17xrqDRW5cQHh2PCKPc12Np4H0TQ7Y3F8ftTxKXkdwdv/AHz7UnJI9ONOhhl7+rPO4rnW9euDBZxyzMTyFHQe5rotF+HN1dXDvq8rwIhHyLyX+hr0KzttPgWO8s4kjSSMbSi7QynkZFcRrvjyWPXEj052MELhZB18zB5wO3pmspVBfXJzTjBWOy0vTtA02fyNPhtkuYwQcMDIOmc96Zr2145Igo3TR4eQsQQg5PQdK8wh1e80vxBc6pDbnzrlnEayc53HP4mvRIP7QvLezuLmVIZDGDPGsfJPpk9B7VKlc5480Z80mczfJFYXyahZWbSW+nxnLMSMsecjj5jzj2qCbWLpbaG3trcG5nm8skLt2A8tjryM5zXZSPGrlWkQs+Sq4A6e3esGfyLKFhEu0fMxPU5JyaTFOpzs5zXJrqwlsbTTIowDuBZxuIxyc/rk1gazqX2OBohIzzOSck5wf8Kfrmvxudyltyn7nQn2z78VzKpNqFwZpM89sfoKkpN2IoYpLmYsedx5PrW7a2oRQAOKdbWgjXAXp7Voxwk4P6Utx3CCLOOK0YYeRxTYIenHNaMMXI4rRIzkx0UWNvFWgvpSqoA6Uo4qjJsNvIFWYo+Kjij3t9KtYC0yWxuMVRnOX/GrjtgY9arbNz9OKARo6UmwBiOn61PfL5pXH4A021wqAVZCeY/tVdLEvct2SbYxxzVmYZWiJQq0SY281RJRlXnFV2XjmrT9TULipZSKUiEg4rOuI+DWs6jBqlNHxxSKRz11FwaxbmPqCK6W6jPPFYd0mM8VDLRzlzF14rMnt854reuU9qz5EzmpLTMtSqR+S8YKMeSaoSxrbTB4TtbO4YrWmiqhLDkciqTB6nRaNraXIEUh2zAdPX6V1EEu8V5YrPbzLJGcMP1rtND1ZbpNrHDDsaZm0dOKk7VXRs9KnFBIwDmngUY5pwFACOcLVfqank6VGo5FIC3AMYOKtsm9Qc81BCMjqKk37F5NMQsk3ygZ5qIHJFROfMK4PzDv61JD8zgHgigZpWaZ61clYRgDtUNsAEyeuKhu5sg5NBIjS4Y+lSwv6iqCncavxLkLxQh2NGIcbu9WlHygmqsP6VZU8YzVkslU9qk7VGo6GpRQIBxTwc0w07OOlAEy1IhwahU8CpRTBllOQKnHSqsbbTzVhTkU0STK1FItFMDNjZSODU61kW90rDIP1rShmDjg0XFYvx/dps6B0IojbIFPIyKBGLLEUfNWIGIFS3EfWoUGAMUii6jZFPzUCHAp+4YpiHbsU0yc1FJMiAlmwB61ymveMrXTleONxJLjKqOc0G1KjKo7RR091ew2yFpXVQO5Ncxqvj+ysQ0aHzH7Yrzy51bWvEl2YbdZH3HhI8nFbGn/AA3vWlg/tWRoxI33IvmIHU5PQUm7HfHC0qWtVlLUfGGpavcGO1Vuf4V5JH0re8O/Dpr5E1DWpSqSYcQofmb6ntVrRNJl0B9QtobeBrl2/cRkbiyjPVs8AjH+Fd1FckW8XnII5GAHlqd20+n/ANeo57jqYvlXLSVkU9N1XRFum0fT3iSWDOYUGOnXB7kd6uymO5hWZPmVhxkdR9K5yw8KCy8WvqqOBb4LKhbLbz1/CukurqKCPfNIFHOM96zV+pxTab0KOqPeLYj7EkZkzjLjhR64ryOz1B7bUJ9RuIUZXLIURAu9vb+79RXq0WsR3NykEKFwVJlOceXwCM+pOelZMvhOxuNVa/nlklXduWLgKDn9RSavsbU5pJqSOe0S41W98Sx4AGnQMdyhBsUEcAZ5LdOfauh1K5u7jUlsrYtFHGytLInUD39j6VLqGoWel3iS3dyEVkPloEJ5xz06/Suf1C4dJJ7gyFLWYqUKk7j0JJ7+wHb2p7bidpNWHal4m0+K78wK7hCYhKq/KCeoz3xiuM1vxal4rwx7416kjqw9PbNVNb1V7opGY/LhTIjjHHFYMNsZpSX6n0pG/s4xjruSJDJfXAkcEJ/CvXFbtrahFAA7U2ztwAOOa1o4uMYpMh6EaQ/WrcMVPSI4q1FHjjFCRDYRRY5xV2Nfl6VGi+lWokwua0Rk2P4C4qPrT26Uirk0yS5CMIKVqVBhB9KawzTJZE/OKFXJ9qk2g9aeqUgJoT09K0YU5BqjAuTitKEcCqRLLmMLUErZ+lP3fLULmmCIXPpTCPWnmmkUhkTLkVVlTINXSMVAwBzSKMe4jzmsO8jHNdNcJxwKxbyIZOallI5meLOazZY8E1uzx4J4rPniGM1BaZkSJkVSlj9q1JEqq6daBmTLDUMUstnOs0TEEfrWlJHntVOWLFUiWjt9F1SO/tQ6kB+jLnpW1GcivLLG9l0y8WRGITI3qO4r0WwvI7iFXjfcpHBqiGjSpRTVp1IQ1+aEXpTsZpyigCwgwtQXMmeBTi/yH1qq5JPNIB8BOa0oVUtyOfWqEKVeibauMfU0AyyswiLIfzqrO+4460k7gr1/GoEfcTz0ouFi1AuWBrSiGFqlbjoO1aEI4qkJlmJvWplOarg4qSJxnmqJLyHgVJjiq6nPfip8+9AhpOKVWpr9KjLYoAtqc9DU69KqRE461aQ5pgTLVmOq6danTrTEWF5FFCmigk4gxywN0OKvW15t69K1JbZJF6YrPm08gkqMH1FKzRV7mlbXYbAzWirhh1rmFMkLVqWt5uwrcetNMTRoSqCKpMm01cDAjrUL470wGg4Wqt3qEVrEzu6gAZ5PWo9TvksrUux+mK8s1XU9Q13VvslsHYs2FVR1oOzDYV1feeiNPxF4xacGK0Yg+3UVW0LwVf68y3d9IYICd2D99x7Dt9a6Lw34Ht7ApdaiFmuh8wX+FD/U11lxbM00VwlyLfy/vnaPnT+6T2GaTOqeKjTXs6X3mF4P0y80v7bBPZR28IbELgDe3uT3GMVp6tb6q6WRsbuNfKY+e0o++MdcDvntWmskbqHVgwxwRXB61rWuXXiK6tdDm86GKEbkQD5Sepz656VnJ2Rw3lUk2zpNOewudSuLqGbzbgIsTsSCBjnA9+v51Pf3dlY3CXF3d+WGACoT1IPB/WuEsryTw1okqW8kL6pcylnAYMI8evvXOXV7cS3AaaV3cnq3OWJzxST0O/CZe6i5pvQ9sF1H8qh1LMMqM/eGM8Vh+fb316+n3W9rhA0rANwisu3BPvzx7Vx9tYvNb2l0dRdbmV1A2sRsjH3ue3HFVvE9qml6vFeWt7KJni+eSQ7i4xtyD0B9T+VSzOpQjGfJB3NWK+t4LSS3eGaGSfcmZ5fmaMfxEjoTgflVjbeXHhlYrO6jaFiTvGVYqOoyfU1yCyXeu36jaGdhtXsMDoPoBXTzhNN8PCzkmSNAuJW7EE80bI6KtONGKt8RXjuQdIcSS7JIQY0mbnHrj29TWJda4EtPJgmM8oHzSuc8nr/+qqGoXb6kqv5YtrRflRu7D2Hc1VWIbcKm1B0H+PvQYOxRMTzyF5GLOepNX7a0CnOKmig71ehiyOaVyWxIYcYNXY0wQKaq4xVqNKLENjkTvU6LgYoVcYqRFqkZtj405Bq0BxUca8Cpu1MhkTDk09FoxUkYOOlMkmj6Y9BSHkU9B7UoQAmmAirxmnAUoGKcBxmgTJrdcEE1fjNU4KtRnAzVIkmJqNqduzULnNADT0ooxQBmkMTFRsoNTEUxxxQBSmUDtWNeID9a2p6zJ1B5PWoZaOeuIsk1mzR10c0OR05rMuIOvFSykzAmi6mqTpntWzNDkdKz5EIzxSKRnOmc1Vkj5rQdetV5EpjMe4j5q3o+rPpc4DsTCeCM9PpRNHVNk5qiWj1Gzu47mBJI2ypGQatA151ousPpswSQs0DHGP7td/BMk0aup3A9DQQ0T04cU0U6gQ1zg4pgXcacw5zUiLjmkBLCmByalZwidBTAdv5VVmlydtDGEkxJIHSkQk81Eq5PNWYFwcUkBo2R3DGOQK1IxtjyazLaMgbgeR+tXI5d8ZGMHPSrRJNv5qRDgVWByeKkBwtAF2KXOBVqNuhrKhPzcVpxH5TmqRLB+Cah34YU6aUKMdzVfdzQ2Bdibnk/hV2Jty1mwHnnpWlCPloQmWEPT1qyuOPWoUOMcVKg+YVQmTLxRQKKYjGgvAVwTV1XR1rAUMMHFWYrl0OCOKVwZoS2it0FUZIWhbIq5FdKcc0+RlcdqBoit7njDGpZJl25zxVGTCk7etZmragbSwlfOGxgH0NNFwhzSSRzvivWTJcNBG+VHCgfqa3PC+jLo9rBLNB5lzc8vIvPl55ANcrp0L3mrROEEpDbzngHH/1663Utfk0pFMlnNIozkouAvoM96JHq4htKNCmdBLN5JVivyE/MxYALWf4gtbfUtJljnuJoYVO5mTuB2PqK5c+NTfPFAES1Zz85kbcVX2rduNU06KzFxdXpkib7p3YzxgjHepZyyw8qVnND5dJeTw5Fp+l3jW6bRiRgSWU9R7da49dHvtC1UwWsj/Zyqi8uyu0BTyQD6Y/Wun03xCt9dmytIy2z5vMcbQqdhjrnt+FawMdxavG8RVDuUo3cf4VDSZmqjjLU5PR9F0iKxuBZXK3l5KrLG7JjZxx9PrRaeDlUBrqcSTrhnjA45P8Ae/OultLKy03d9mgWPd1Iz+X0qjrDi3zqYmcG2ibbEXwhJ7kd6k2WLnC8ab0KGvafDYwpdQF1hiTy2gQZ3ZI6VjS6RLq1xY299dRr9liLyQxjlcngcdwKsDUbe+0ORL29kVFcNLM/yl+c8DsOwHpWerXOrvL/AGejWljI2ZLqT78n074xU2Yqc57k817pukTiDTIGub1sghDkj6nsKzLwP/x9arL50oOUgT7if4mtC1Sztt9tpqlv+ek56k+571l6oOSucn3qnohyquTM4GW/ujNL9xfuDsKteV7/AKVLb2/lwhQO3NSmOoQrkUcXT0q3GnFNSPtVpI+BQJsaqc1aiXiogMVPH0PrVIzbJF54qaNelRoMtU8Y5qkSPjqYDimhMjipFXimSxpWpYhxigpxToximImC/LSHrT0+7Q45zQIavJqQqSR6U1Bg471KBgihCHpwwqwnSolHNPBqhD88GmE0ZpDyaAF7UUClxSGJTZOlPPSo25oAryICM1RkQHPHSr7CoWAx0qSjLeMHPFUp7fIzitmSMdqqSx5zkUhnN3EGCazJ4evFdNPBz0rKuIeDUtFJnPyxYPSqzR1sTQ81TkixxikXcyJoxz8tUni9q2ZYs1TkiOaaYjMaMitnQNaOnyC3mJMLHj/Z/wDrVQkj68VA0ZzTuKx6lG4dQynOak7VxWg62bYi3uXPln7rH+GuzjkEiBgcg9x3pkNDwtPzgU1TQW4NAgkk4xVcAk08jJpwGKQwROlTqMc0xakQ0xFyOVSMZx61aB+XKis1AS2KuJIIk+c4+tAE6kHkUpfnrxVITFHBHQjkVNGd5HPWgRftVJbNaIYInNVLRNqkmo7q6wcccVV7CFnlyaSNuRVYEuQatwqAOaQFyAZNaUPBArMh4NaSHAHerRJbqRe1V1Yk1ZjGcVQiwv3RRS9qKBHOKAe1OMANZlvdNtAY1fhuvWpGSrbntUoibGKEnDGpQ4pgU3hfdXOeKg0VgjlMqrgnmuxDKetZeu2A1DS57cBcupAz61S3N8PNQqJs57w/5SyouMl0ypHPPfn8qfrEHiG4lmiijh+x52rtILMMc5z0rltJ1x9Ila2vF2yREgH8f5Vu6v4knuNPJs7m2iiZSsjklnB/2QKUu56OIjONZVYq6KC+GrpdRRJmt1GBtcuOQOoA6nFa19DapKJZ5o7cwALFDs3hecbyO30rnvDkMf2yFZWurVkUs07FdrDOQBnoDXValq2kq8cz6mIxGxYxROMSn/aHes1qY4ivVqtJrYbJZxaRDe3016gupgdjnC5wMAY7881yd7N4oewVprlzFORtRJBvPHYDnFUtZ1ZNbu1kUPNKHIRYYzwvpn171Iuha1q8yTyRG2QABGuHOQB6DrUuLJjDS8i6J9SXR4k1a5kgtoz8iB8SSY55JOcdOKo2Vzrl9FNDYtLNC5CmWU/Ko9s1uW/h/T7Qm51KVr246kyn5fypLjWi37m0UKg6HGAPoKLJbkc1OPwq5Xh0izsQlxqk5uZkxhD9xT6Be/41TvtUutUuFtLYmGDoccHHem3Rd8l2LN3JrR0PTgcTMPmJ/Kpu3oiJTcty5BaR2dkFAAwKwrjM12Aema6TVGEcBXmuchXdIWokCJ1QAYAoKVKq0mKViriRJk1a2fnUcKZarhQBelNIlsqnipIzhqaRzT4xlqaJbLEf3qsqOagj5NWEGee1OxLJxxxT1FMQbualXimSGOPrTlXFOCcCjGTTAenWnuPSmjjFSnmgRHtxg96lAxim4yBTs/KTTsBIDS5pqnkelKaBC5paZ1p3elcBwpaRak/CgBh6UxqkpCB6UDICKZ5fqKnIzS7cigZSeM9aqSRknGK03TNVpExSGZUkOe1Z1xb8Gtx05qnNESaQ0znJ7fvWfLD14rop4Oc4rPng56VJSZgSREZyKqyRY7cVsTQdapyw80ijJeLriqzxkdq1WiPNVpYaAKAQ9cc1uaNrL2REM+WhPA5+7Wb5WDShKdwtc9CjkV1DKcg9KdXI6TqbWTiOQkxH9K6uORZUDIQQRwRTTIasPxRQOtLjNMVxVHFSJ1xmmAYpc4oETrJsJqCSQyMOaM5pyRljQBLCCRg8mrkSmIgn7o6E0yOMKAfQc1Fc3iqDGuPc0BY1JLraBtPWqW4yPyapQSbgFq/bhScEc0bjLcCcVaQAVBGQuBVhTyRVIhlqIAAZq5EcEVSj5xV6JciqRJaVc4IqwmRiqwbFWIiCaoRZ7UUmaKok4xY1UVMoGevFYqXretTrdN13VmWbKtgjmpRLjqaxRdnI5qX7USetMDX88DvTHnzis8XAK8kUGdR3z+NAFHWPDWn604llBjmH/LSPqfrXOv8ADtQ37vUyo/2k5rrGv1QHgfnVV9RXnc6r9TQbwxNSKsmc8ngCBf8AW6nI+fRRVy08IaJZMGdZLls5xKfl/IVNPrcMWQG3H/ZFY1zrtzLlY/kHqetK9hvEVH1Ooa9ttNjIhSGEDsigVh3XiZHcpbgux/iPSuduGmmbdK7Mfc0+0hwN1Q5Mz1e5buZ5Z/mlck+naltUP3iKgc5kq4vEYArNlIasXnzhe3eussoBFBx09KxdNtxuDnvXRgeXBz6VcUJnP61KTlQay7YcDirOqOHuDg96ZAh25xUvVl9CUikCZapNppyr3osFx0S/NVsr8uKigX5ulWmXC5qrE3KDLg05F+ansuWpyr8woESovNTL0xTVGelPxyKYiSPjvVjGKgA5FT4zTEPXO00oFKvOBSgGgTFVe9OB59qB04oHFMBTSjgUh5pfQUAKKcAab2p4oYAB0qQDpTV65qTGaQgApw60g4pcd6AAimkU80h6UxjMUYOKdjGKCeKQELLUDRjk4q0ajdcmiwFIx9TVeRBnpWgyjB4qs6jPSkO5mSwg59az54cjpzW48YqnLFntSHc5+aDrxWfLB7V0M0GKpSwZ7VJaZgvCRVaSE4rcltzVSSDg8Uh3MdouabsFXpIsHpUXle1Iq5X8v2rQ068ktJMclD1UmoxH7U9YuRRsM6aCeOdA6Ee4qbOawbR2hbK8eorZikEgyDz6VSdzNxsTUYpRS1RNhUWplKr83pVcvgUxnJ70BYmmujjap49Kp4Z2yeSaeEY1MkeBwOaQx8KYAA61oQOM+hqmoIYHpU4HdfvD070yTQzyPWrUWT9azoZfMAatCBvm4qkSy9B1A71oxodtUrRQzDHXNaT4SLmrRNyHzAWx6VZgbnFZiMWlJ960bcHIzQhF0nAoqGZ8DAPNFWTY8kW4bPQY+tTLduPSvKhr+pjpdv8AiKG17U2yPtb4+tYcx0ezPV/trYzuAqOTWreDHm3Eak9i1eSyanfTZ33Upz1+brVrSLR728DSZaNOWLd6fMDp2PTv7fiIyjkjsQOtRvrjsuFUk+5rERAAOKnjTkGnczLb39w4PzYz6VVLPIwLsWPvUrLxTQtFxCbeKNgz71IFpdtJjRWkTIqZV2RUpXkcU+QfLUF3K6D56uIM8etVlXmrUY+YUh3NzTFHA61pXLhIT9KoacAFB6U/UJP3ZzV9BdTn7ht85+tW4EwgqmF3SGtCJcIKlFtiMtOjGcGnsKdGMDpTFclhHOasuOBUMI5HpVnGRTJuVJF+bpTQp/GrDJk5poWgYsfHBqVR81NUZIqQUE3HgVImelRpzUoGDTQh3fjtU2KjUZzTwaBDqO1HSk60xjqMUDrmnUAJ1qQUiU8DNAABzUg600cmn9qTEwpc03PTinYoAMe9HNLjApB0pgGKQAdKdSYxQMjJG4imsBipDx0FMPShgQNwDVdxmrDDnmo2X3qQKzKaidCTVojmmMuaBlCSIHORVOaDJyK1mjz1FRtCByBSKMGWDHaqUsODXQywg9qoy24OaTGmc/NCByBVbyvatua39elVDAMnipaKTKKpUnlirXkUvlDOMUh3Io4ycelXoMqQRTI4+mBxVqOPLcjipYbllPmXgc0pX25p8SVbWDeMd6tS7kMzytAXmrUtq8Z5WoCjCrEKAo60u9RUbA9qbg0gHPKWyAKlt5SoweagCnvUka4NCAtr+7YMoO08YrStWy4FU4trRber9jViz3JLtPUVSJZ01jGOGxxUuottQAU6xH7pc1W1N8tgHkVr0M+pXtfmlFa8Z2KD7VlWY5yetW7iXbFjPWhDYrzeZJxjFFQ2yAfMx/CigLHyrRRQK5jrHopd1RRlmOAPWu306yFnarHj5urH1Nc/4fs/OuzMwysfT6116L0q0jGo+g5EzViNBSRrVhFwKoyI2WmhcGpnHSo+9MBQKcRxQtOFIBgWldcipFWgrmpsUmRIgqVV+YU9U4pQvzClYq5rWZxHwahvnyMZ7UsB2pUFx8wqugIqQr82avxjC1XhQZzVsDFIYhqSMAimHgipkWgRMi1NjApsK5BNPYUxDMcVGRgipsUm3npxQA1B60/FOC5pyjtQAsa45qSmjjinjtTAcowTR0NL3pP4qBDzytApOq0oHFMB3fFPHOKYOW/Cnr1NACrginDg0ijBp1AD1Hends00ZpwPy4oEKO1Lkk0lKDQAUdqKQmgBc0lFFAxDUbHFPb64qMjmkAxuajK5qUrSbaQERUCmkDtUrcUmM0DICvrTHWrRUehzTGHtQBRePJNV5IBt6Vpsg9KgaPOaQGLLACOlVTBz0rbkg/KoDBjtSZSZlGDHam+T7VrfZ/b86T7P7VI7mcsHI4qzHD7VZEHtU8cBpOIXI4ITxWlBAOOKbDBjFaEMJA6c0WE2OW3R1w6gjsDUE3h5ZwWtmw3901pQxHIJFattEABVpEOR59d6ZcWcm2WJgPUjiqhTaeRzXrogR02OoYHswzWbdeEtOulLIGhf1Xp+VXygpo8zKilC11l34Ivkybdo5V+uDWFc6XeWTlZ7d0I9R/WlyspSTI7Y7eMVfVdjI/c9azlDLjFXoVaQBWNUhM6axkO1ee1Q3qGRgR1rLW/Sw/4+J0UL3ZgKx9W8eaZZ5QO0zA4JjXKj6mqc11EqcnsjqoikSAk4Iqlfara2kfm3U6xIDxnqfoK4S+8Z3lzHi12RRN0ZeTj61z0s8s7b5XZ2J5LHNc08Qlojphhm9WdZrHjSa5zDp+6GPoZD94/T0orkc0VzOtNs6VSglaxwYpQecUgq3pdv9p1GKMjIzlvoK60jlfc6/R7QW1jEuMMRlvcmtRBUUa8AY6VZjHFapHM22yWNTnipwKZEODUtMRG9R4qRhk00jFIBR0pVptOWkBKvSlxQh4p4GaBiqvFOC805RxTwvf1pDHKcCmPyRT8Um3mgaFiXAqcLxTVHNS4oC5HszzU8Y4FIq5FSKORigVyeMYWnN1FNTg080x3EYc0uOKDyAKd2AoENXoadGOaB0p4GQCO1AARzSnikzzQeaAHjpmgnJpC2AKO9ADxyAKXmmgmn4zTAUDoaetN7U4dKAJBRSA0dTQBIDTu9MBpw+97UCHCigUHrQAc4opQMikNABRS0UDGkZppFSYpp+lDAjxSY5p+CaQqaAI2HIoGOw5p5Ge1KFH40gGUhX2qYKPUCl2D1oAqMmc0zy8jmre2mlM0guUmiB4xTDb96v+V70pTPaiwXM/yM9RQbbjitARA96d5S0rDuZwtqnS3FWhFzUiRnPTiiwXIY4cdBmrccR4xT448/SrccPSmkS2LBFyK0YY/UVFFEBjirkY4qkiWyVAetTr0qMU9TVkDxTWRXXa6hhjoRS0CmBQl0PTJTuezjz6jiqz6BpyjCQYJ77jxWz2pjCnYLs+YvESz2Gvahb39xJJKkpX95yQO36VkLLCjlj5gLccqcGvRPjJozQalb6hDjF4QjDp8y8/y/lXnwiDBtwZV4OC3TA6j0riqRs9T2KU+aCsFhKi3TQROGhcblGfunuK0TxWbaxD7cko/hQn359TWjnJrnqWKiwzRRRWZRw1dD4Xt8tLOR/siud7Gu08PQiPTYyBy/zV6MUefN2RtRirCDioUGMVYjrQ5yaPgU+mrT6AGsKYRTzSYoAZjigHmnUg60rASp0qYCq61OvUUASqOKkXmkUcU9RzSGBHtSqM9aXvTgMEGkMcq+1SAU0GnrxQA9RinKPmFKBingZOaLAOQZNOxQBxmn7cimAijJFKeDilC4xSsOM0DEA704DHApFFOHFAhuOaWlNJjigA+tOIxg5603qBS9vpQA5cGn5pgXH5VIOaYAKkWmqtOAxQA7FKKAcnmigBy08jjioxUmMCgBRRmgUZGaBCijFHFBoAKKKUUDEop+KTHtQA3j1o4paQigQh6U0Ag9qfjNKF55NIBoGeCKXac8CnBec0uPWgCMoe1HlmpcU4CgCMR+1LsxUu2jbjimIjEQpRH7CpglO2YosBEsftUqRnIwKkRPyqZY6LANWKrCR05Y8DNTIB6U7CuOjUVMvFNXgYxUopksfmnCmA04GmIfnilFNzSg1SAU9Ka1KTTTTFY4D4s2P2nwslwBzazLIeOxyD/OvC3lJkXy3EisOU29D9a+kvG9uLnwdqcecfuSwOM9Oa+fI4Ei5GWY9WPWuPEuzuejhG3Cw23gEEIUD5jy3+FSiloribudmysFFB6UUgOF7V6DpkXl2kScZCDpXCWkDXFykS9Sa9DtwAigdAMV6UTzajLSipkqJRUq9asxJlp9MFOzxQAGko70uKAG4oA5p1A60AKKlUZqMdKkTrSAnj4AFTY6VAO1WBytFhgoyaeFoUYFOFAwA5p4BpBTx2osBKDTk5OaiFSqRiiwEq9KkU1GvNKDz0osBLSEdBQOacR0xRYBvSkJzTyOaNo9KLANFKPSl288UbSDmiwDc44xTgOaCM44pQKLAOB4pVpoA6U/GOlADh94U/I49KYB0JpcZNAElFJ3paAHDpTgARSKRilHWgB3QUnvSnmjpQIB0pQc0dqAT2oAKUCjI/GlB9qAF5FGaQ0goAU0dqcBmjHFADB1p20mjbzSgAHrQABaeBxQKUUAKKcFpAKeBxTEJt6U8LSgU9RQAipUgX0pwFSKKBXERPWplTpQq5qZRVWAaFqRR0oAxThQK4oFPHamg0u72oEx1OFNFOFAh2aM4ptLnNUAuacKZTgaaEZ2vwifQr+P+9bv/wCgmvnE9favpi9AazmBHBjYH8q+aJgFmkUdAxA/OuPGdD0MFsxtFAoNcJ2jTRSNRTA57w9tOpfNjO04rtosYrz3TLj7Pfwynhd2D+NegxNuUEdD3FelHY8ypuWlFTIOaiXoKmTrVGRKBRQKMUAJ3p45plKDzQA4ik206igBV6VItMFPUZNAEoFTKeKiFSKOaBkmc04DimgU9aQDwcU4U1ecjFOFAxwFSKO9MFSDrQBInBp4wTUa9DTv50CJRTwOM1Ep4qRSSBz+FACjk08dKYuKcPagAwcZpq5Dc9KloYcUAMPWjFKKUUDGjFOGM0mMsRRjmgB/fmnCmA08dMg8AUAOFLSUoIzQA7oKF6jmkzxRQA8mlplANAh5PGMUophbil3UAPpaZThQA7OTzS4pBjNSDpQAgFHendqMUAITikFPI4poFOwCgU4DmgCn/hQJgoqQCkHAHFPXrQIAvNSKKQU9RimA9RT1600U9RTESACpFpiipB0oBjqUUlGaCR1LTM0oNAx+acDxUYNOFMGPByKWkHSlpiFpRSAUvSgRn61diy0e8uWIAjhZhn1Ar5xZ97M2BkknivZ/ibqJtPDX2dGAe6cJg91HJrxbpXFipXaR6WDjaLYUZoPSkNcZ1jTRSGimBxC12vhvUluoPs8h/exjjPcVxQ4qe2upbS4SeE4dT+dehF2OCUbo9RUVKlZ2mahHqVos0Z56MvofSr4NaHM9CyvWnY4qNTUg5oAYaaOtSMKjIoAmHSikQ5HvTqAAVItMFOHX2oAlFSA1GOQKeBQMm3cU8cdaiU8g9qeSaAJhg04VGpp69aQDxTxwRUYpw65pgTKaUUwGnikBIKXOPpSDsKXHSgB6nNSjpUQ4+tSKcjFADgaDzR0pKAEI6Uo460Cg9KBh1PFKBzmkXrThzQIbjLH0p4FJjJpxHFAxTQuKD0pq0APyeKd+NMpQelAC0tNHWjNAC5pQ3IpM8UoxQBJmlU5popRx0oEP6U9TUeaepFAEgOadjOKaMUoJBpiYvSgUvWk70wHAU7rSCnCkA4U9RTR2pwNMCRaeO2BUSmpVpiHipFqMGnA0EkwpRTFNONUJkmcU0mmF8DNYPiXxLB4f0yS8kZSVHyoWxuPoKYHQbqdXMaD4v07XNLW9glB+UFoV+Z1P93A710qnIB5/GkBKKcKYKeMUAPHSlzTQaQmmA4tQPfk03NG7FAWOR+JWmLe+GHuVA820YSA/7PRv0/lXhz3lurYMyZ9Ac19D+KTG3hfUlmx5bW7g5+lfPiQxxqNiKvHYVyYiMW0zvwsny2IDeQ/3v/HTTknim/1cqP8AQ1NmqV5p8VwNyjy5h0kXgiufkizpcpIs5oqlYXUkokhnH7+I4Y/3veiocLMuMk1c5WiigV1nIX9K1OXTLkSJkxt99M9RXoVjew30CywuGVv0+teX1o6Tq0ul3O5fmib76f1+tWpGU4XPTEaplNULS7iu4EmhYMjDINXFNWYE1NK5oByKcKAIclTmsLWPE8el6pa2rodshzK5/hHQY/Gugdaw/EOgx63Z7CxSePJib3x0PtTQG3DMsyhlYMD3FTg815z4b12XS7w6TqRKBTtVnP3T6E+nvXoUUiyKGBzTAsj61KvSoFNSqeKkZItPB5xUWfSlDYPNAE4OOaeDxmouOOaeKAJFPepAeahVqkBoAlU1IpqJDipF56UASLwwNP6mowcU9aAHjrinrUanDVItKwD84NJS9aQnmmAo+7RimgEd6UZPegAHFKOtIeKUetADsZNKaaCTRnNKwDu1NzzS0mKYDs8e9IGGKQ0UWAcppcc4pmOacDQAvFO9MVGTTgeKVhkininLUQzkc1IrUxEopQajz81SA0APU808VEKkBwaYh4p22kXHrTk680AGKBzT9vGabjFADl4FOBFMGCKUcUxEqnmpAeKiBFKHoAmBp26oM0u/NNCLIanbqr7+KqX2pw2Fs888ioiDJZjgCqJsS39/DZ27yyyKiKpJLHAFfPniTWb7xz4mSytNzxBikMYPH+8ateNfHVx4kvRpmnf8erMEA7yE8fgK9C+H/gS30C1W7uVD6hKvzE9EHoKB7HQ+DvDtv4b0WK1iUeaQGlfHLN3NdODVdBjAFSA0CJ1NSCoIz1qYHIoAdmkJApCcCo2cGiwEu4Vn6rrVho9q1zfXCQRL/E3f2A70mpX8WnWE13M4SOJC7MewFfNniPxLf+I9Qa4vJcoCfLiH3VHbj196V7DSO58VfE+PWnOk6ZG4t5ch534LD0A7VymeMVyjyGKaKUdUbJrp0YMoYdCMiuWte9zuwzXLYcaYetOJpjHAyawR0GdHxrcmO8fzUUWP725ubk9Cdi/hRSqNJhBaHM0o61WilO4KWBBqyBXS1Y5k7gKWijtSGami6zJplxtYkwMfnX09xXoNrdx3MKyxuGVuQQa8p71p6RrE2lzd3hb70f8AUe9WpGc4X1R6aGqRW6VnWV/DeW6SwyBlbv6e1WwxAzn8qsxsWT0qNhWNJ4ihVyqxSNg4JAqe21q1uTtD7Gz0bjNM0dGaV7GV4s0K31Cxe64jnhUnf6j0NY3hHxP5IFleyqFA/dux/wDHa3vF92IPDc4DfNKQi++ev6ZrgvD+jnWbyWDcUCxFg4HRu2faqsZHsMM6SorI4II4I71YU5715Xa6rqvhW6FpdxF4gcZOcMM9VNd3pWv2WqIDBMN39w8MPqKQG6tOxUCuPWpFbNIZKOKepqLdTg3vSAnFOU4NRKwA5NPDUATg1IrYqBTinhqALG7NODYPBqDdxTg4x1oAn3dDnvUwYY4/CqnmrgZNSK/H9RTAsFjihTkZpmd46/jQDgUgHlqXPSmA5pwIoAcSKBwKQsM0oIIoAATu9jRnrRxSE0APJ6GjvSDGOtGetAB3pSaBSUAKWxjilyMH1pppaAEzQeMUUUAKGNSKaiJxRuwOKALAalLEdDxVUzbe+aiN6oBJbGPWmkI0g/FPEnQVzlt4q0q5u5LRbuIXEZ2lC3J+nrWwlwpwQRinYC+GFSK2DVVHDd6nRuccUWAsA7hikY4qPfil3Zp2EPyCvoad1AqLJBpQ4weaLCHZxTlPNRb881G84RSS1FgLe7IPtUbShDyawtR8T6fpsG6e7hjPJG5wM/SvN9e+LBctFpcROePMft9KYHpGv+LLDQrRp7mcdPlUHlj6AV45q+v618QNVjsrNHWAt8sI6L/tMfSl0jwjr3jS8F3fvJDbNz5si9R6KK9j8P8AhXTvD1p5FnBtY8vIeWc+5qg2Pn6W3vfDOsvazxqLiCRWZgM7sHIwfSvpXQb9dR0m3u0xtkjBwK8h+MGkC21Sz1SMYW4Uxv7sOn6fyrc+H3i23sfCy2sztJPEx2RKuSR2oKjCU3aO56uDk4zijzQDgnmuCu/EniC6K/ZNPS3jI6zPlqzJtY8V27CVkimQfeEZyfyosdqyys1c9WjYHmpg2BXLeEtcOtWBkZGR0OGBFdIHoOGpB05crHls00kDrSFgOprl/HHieLw5oE0wYG6lBSCMdSx7/QdaRJ538T/GZ1O8bRbJz9lgb98wPDuO30FebZpsk0kkjO6OzMck+ppA5/55tUXKEmXdGw9q3NKn82xjz1UbaxDIcH921XtDc7Zoz1Bzg1lVV4m9CVpGyTVLULgx25Vfvv8AKPxq2T3rPg/0q8edh+7jO2PPrXMu52PsWIYhb26RD+Ec+5oqQ8misW7u5okcGZFJXC4weuKuVS5LBQ+4k9KuZzXfI4YC0UUVBY09aXNIetFAF/TNVm0ycOh3Rk/PGeh/+vXf6fqUF/CssL5B6g9R7GvMasWd9cWE6zQOVI6js3sapOxEo9juL+wFqWmT5omJZsD7h/wqi4WRckArWxpGqw6nah0PzDh0PY1Fd6T87TWmFJ5MJ6H6elbxaZ0UcR9mZyHiU3D2UK73aFGOQecHsc1f+H/lhrstw524PqKtyDKtDMm1ujI46/41HaWsdiQ9t+7IOev5iqYVMNzvmizsLuwttQgMNzGsqHnDdv8AA1w+qeDbvT5vtWkSu4ByI84dfoe9dzZTLc20cqnhh09KtAAkA1JwNWdjz7TvHNzZP9n1K3ZmU4LAYI+orstO8Q6ffqjwzpluApOD+VebeMgE8U3gHIyp/Sp18Iai1jBfWLiUvGHKg7WXjt60CPVxMGAPY08MCa8gh13XdEm2TvL0+5cAkfhWvbfES4UgXFmpXuyNzSA9LD5qTfyDXCQfEDTSAZI5k9QVzj8qsf8ACfaT/wA9JCB0+Q5FFhnaiSnecFwc8VwTfETTgm4JMWzwoX+tV7r4jwhc21pIz+jkAUrAeitOFOCao3ut2lgivNcRorHHzNivLL3xxql4rLGUgVlx8g5+oNc9PcT3MnmzzPI395mzTsB6Rq3xBigZ4rRWkcHGQcAf410HhXxZFrlqFkxHcJw6A/qPavK/D+i/27dPCJ/LEYDHAySM9q9S0LwzY6SyywpmbvI3U0MDr0bgEHipA2V96qxE49qnU5TFSBMKCeaYOnWlzQA5etOPDcUwUuaAHkdxRznkU0nNOB4oAWgUCjpQA7OKQUmcigGgB1FNzSigAoHIpRRQAhHFNI5p/UUHj6UwKzglsisHxJpOoX+mSrp1wIblhxu4B9ea6UpnpSbMZzTQj5y1PRNZ0WffeWs0TK3Eo5GfXIrS0vx7renFAbjz0XjbKM5HpmvTfiHcLaeFLlQqmSciMZ7g9a8r8OaAmu6mlowdUwS7ocED/wDXVAdxpvxcgKAX1nJG2esZ3ZrqrX4k+H51BN8sfOMuCMV57qHwrvofnsryKYdkkBVvz6Vz9x4I8R2pO7TJWHrGQ38jTsI98h8VaRMqsmoWzBhkYkHNW11/TiMi7hxjOPMHNfOC+F9eYNt0i7+XqfLxis9YbhjtCPkHaRnvQB9MyeKNJjBZ7+3UDqfMHFZN18Q9AtXdXvUZ167ea8at/AviS5UMunOAecu6jr+Nblp8J9bnwZ57eEZ6ZLGgDqL74vaekZFnbSzH/aG3865DUfH+v60z29krxq3QRDLj8RXaaN8JNMg2PfzS3TjqudqfkOa7ax0LT9LjIs7OCA9DsQDP1oEfO+r6VrNnDbzassqJcFtnmHJB75Hau0+GOgWOpyyz3UCTNbt8m4evt3roPi3as3hq2mRQVjnG7jpkYzWb8H5f3t7Hnn5TimM9etoFSMKqAADAx2qwQAMmoYgeSOlQX85gsZ5cnCKTQEI80kjz/wCKiXWpabFbWUJlEUyl9vJJPAwKZ4L0GTQ9LYzkG5mIdgB9zjpXQLc2xiEyyptIzksKrx3z3bmPT7eW6b1jGF/FulbJKJ9JQwtHD+/ctMGxknGKqCQXFwLeBTLLnGF6L7k1p23hu7uh5mqXBCn/AJYQnAP1Pet2y0y3s0CQwog9FWlKfYyxGZwhpT1YukafHp1qVGC7HLn1NXwxJ9BSrGMc8Vi+JfEth4Y09ri6cNIciKEHmQ+n096yZ4E5ucuZ9Q8TeJbLwzpz3Ny4MpGIos8uf896+fde1698Q6i95eyFmOdqA/Kg9BS+INfvvEepNeXshJ5CRg/Ki+grKrNu4rBRRRSGBqTTX2akRnh16VHUaSiG8ik7ZpSV0VB2lc2r2ViFt4/9ZJxkdh3NTxRrDEsaDAUfnVS0IJkvZjgHhM9lqVr+AMFYsm77pZSAfxrjmuiPQg1uyxRQAfSisLG90cHbAeYfpxVqqkH+uH0NW69CRwQ2FzQDSdqBUFAfvUmaP4qKBhmjNFFMllvTtRm026WeI9PvKejCvRdN1GHULZZoW4PUdwfSvL6uaZqU2mXQliOR/Ep6EVcWRJXPSrq0gu49syBvQnqPoayJNCnLhYbr5M9GXkfjV7S9WttVt/Mt2Jx95T1U+hrSj+/WiYRrThsGn2YsrGO3BLBMnPrmrRBpwpcZNBi3d3PKPHQC+J5znqiH9K9F0U7tGs+QT5S5KjA6VzXjLwzfXt6uoWSLLhAGQHDDHTHrXQ6AZv7GtluIjHMq7WUjGCPamIvzWcF0hWeFJVPZ1BrEuvBWj3LErbNCx7xPgflXRg06kBwk/wAO7bcfJvZk/wB5Qf8ACuf8QeFJdCt4rjzxPFI20kLjafevWmGRWfrWmjVdCurIf6xl3If9ocimB5hoHh8a4JAtz5TocFSuePXNdLB8OoSMy3srf7qgVzfhe9fTPEUKvuVZG8mQfXgZ+hr16MUAc1aeBdJgbc6STY7SNkVP4j8NW9z4cmhs7dFlh/eRhBjOOo/KulHAxSodpIPQ0AeK+F9SXS9chnfdsJ2MAOufWvb7eRJI1ZSMHkV4v4v0htI16XywRDKfNjI7ZPI/A16P4M1ZdT0aEsxM0Y2SDHcUhnXJ2qWoE7VKM5qQJ1PFLTFbFPB5oAcBgUUnWl6YoAUdaeKjxzUnGODj60AGcGhiMU4DoM80jKKAGqe1OFNC4pykZFAC0fSj1pMHvQAo6Uo5FN5z7U5TxQAuKXGVpMd6AaYCdKQn5cE80NnqOvvTJh8gOec00I8s+KeoiW6stOR+IwZJFx0J6f1q78MdKKxzXzJkudq59BXHeKbz+1vFN08fzYk8tcDrjivYvCOmnS9EtoTywUZPueaoDaMIYfdp6wqM/LUy4pTwaBFK8dLeznlPASNmOfYV8/6XD9v1yGNU/wBbP09t2f5V7T43vTYeFb2RW2u6eWp9Sf8A61ecfDfTxeeJRIygiFN/I6HOP8aYHtVpbKtvGCOgAq4seB0p0YUAAiptn5UMRCPlHAFM71MyYpoVe/WkBxnxItftPgi+ABzHtkGPY8/pXD/CG62apdRZ5aMNjHXmvWdc0ltW0e7sFcL58ZTce2a53wh8PrPwxObh7iS5uyu0tjaoHsKaGdnGXY+lSi38zIbkHqD3p6IFGamj68CmK5kReD9FWbzxYRbgc4OSAfp0rYjto4htSNVUdAAAPyqZelBNBUqs5bsYFGadlEPvUF3dwWNtJc3UyQwxjLO5wAK858TfFaws0eDRQLu4K8THiNP8TSuQbPjvx/B4aiFpahJtQk6ITxGPVv8ACvDdU1i/1q8a71C4aaU8c9FHoB2qrd3k19dyXNzI0s0jbndjyTUQNQ2UhaKTNLUjCiikpiEJqGYZ2D35qaoZ/u/Sga3Na8AV7SJuIMjPpx0q5exJJaOrAbcflUcEryW0Ye2Y8Dngg+9EkEt0QkhEcXdVOSa5ZNI70tCTTiz2ETP97GM0VYwsUYAGFUfkKK5nZu50R0R59DxMPpVuqkX+uWrdd8jhiLQKM0VJY3uaCaXuaaaBMA1Lmm0U7Ejs0U0GnCgBbTULjS73z7Z9rHqOzD0NejaLr9rqsS7WCTAfNETyPp6ivMp1+UN6VHFLJDIskblXU5Ug8itFsZtHt8cvAGc1MHBrgdF8ZKwSDUPlbGBMOh+vpXYw3CyoHRgynkEHOaZDTLxIIpAFHSo1b8qcpzQIeDThzTCaTNAEucUgYhsimA05etAHlvjfThp/iJpoV2x3AEowP4u/68/jXofh69W/0i3nDEsVAYn1HWq/iPw/Hr1rHGZPLkjbKuFzx3GKj8MaLPocUsElwJkZtyYXG31p3A6RMGl2/wCfWmqM8d6kXk4pAcp480pb7QWuUB861O/gdV6GuW8B6u1lqgtXYCKf5QWPRu2K9UkgjuIZIpVDJIpVge4NZFl4N0aymWWGzTcpypYliD7Zp3A6KFtyg+1WE5Gagjj2rgHgVZXO0elSA8CnqODTVp4oAABRg9c0fSndaAAHjnrTkAPPekA9elLt5yDQA/HGe/rTRmk3EjHagMNuO9ADscUu0AZpB0/GlPNABjml603OO9AJzQAo9DSlQDkUhNAORQA8NTuKjFOBpgOxkgVS1WC4fT7hLXHntGwTPrjirwOaeOSCaaEeIaT4P11NfgkvLF1Xzd0jkjHv0Nez2sOyJB3Aqby1Z92BU6oPpTuAwDFOPNSBRmn7RnpQB5l8WLkpp9haK+A8jO47kAcfhzTPhRYlYLu8x95wgP0H/wBevRL7R7DUCjXlpDOU+75iBsfTNWbWzt7WIRwRJEg/hRQB+VUIsIDg5GKlQlfcU0ZxjtUig1IC7A65WoyhzUoJDZAoPPamIYF9qQKM9Klwc04J3oAAOBTwcfdFN6ClQ880wZKpITJqrf6naaXaSXd7OkMMYyWY4/L1Nct4x+INh4ZhaGIfa77oIlbAX/eP9K8R1/xRqniW587ULglBykKcIn0FJyDlZseN/HNz4puzDEzQ6bG37uL+/wD7Tf4VyJpopahsaQvSnA8VFkk4xUijipGKKWiimAUhpaSgBtMk+6akxmmOOCKY0b9q2bGD/cFTJVazbNjB/u1bjFedU+I9On8KG3B/dbe7naKKRhvuAM/c+bFFQaXOCg5lHsKtVVt/vsfarFejLc4IbDs0ZptITzUFCuQO+KZuBPWmSnJxUfHrzVJEuRYBpc5qJXzwaePegBwFOHWkpaQCOu5SPaqnerlVXGHNXFksUc1o6ZrN5pcgMEhKZ5jY5VvwrOU06qHoekaL4qtdQKxSEQXH9xjwfoa6RJAa8VQc/Suj0nxVd2O2O4PnQDjJ+8B9e9BDiel7gelKKztO1S21G3Etu4Ydx3B9CKvqfekQ0PpwpFpwoEOHQU5eopuKetAEgGOlOWkXlsVKAAKAFTrU6DIzUCjDVMGxgdqALCYqQVCvXNSg9KAJVPFLnNR5AFIDQBMp5py9aiDDJFPU8nmgCX2zSZxSLzinYFACHHOKbinEYzTCflJoAeG2n1FKWB6VEpyakAJoAcuG6ik2lTRyDSGTkD1pgOBzTT1600sDQDzSAf0HJpd2DUbNk9aQHNMLFlGyM1IG4qsp7ZqVTgdaAsTpUoNQKSFz2qQHpTETA8c05R3z+FMQZFSAUASFe+OKXKimZ28A05FBPNMRIsiVMpBFQ4HpipFGKAHGlwaD8vJpu8fhTCw9RyKlHIqq86RI0kjqiIMlicAD3ri9b+JVhZh4dNX7XMONxBEY/HvUyko7lRpylsdrdXUFpA81xKkcSDLO5wBXnXiP4gvcBrXR2KR9DcY5b/d9PrXD6x4g1PXJS97cMy5+WJeEX6Cs28uPs1o7jrjC/WueVVydonXCgoLmkZOq3bXd+5LFgD1Jzk9zVQGmjPU8k05a2Ssjlk7u44GlFIOtOAoJAmnA009aUGgY6ikzRmgQGij3pCaAAGmsc0tNNMDbsP8Ajxh+lXV6VU08YsYf92rbHajHHQV51T4j1KfwobFyzvnIY8fQUU+NNkar7UVBR5/bgbWNTVDAP3efU1NXoS3OFbCEZpCKdRSGRld3WmNGRU9FO4NEKoQakx0pcClFFwAClFFFIAIqvMMOPpVjtUM4+VT71URMiFPBpgNGasm5IDg0/fxUQ606kMs2WoXOnz+faylH7+hHoRXd6L4ytbsLFebbefpk/cb6Ht9K86PApuelAme4pKHAZSCD3FTCvKtI1+90x1RXMkJP+rfkD6eleg6frUF0qK/7qVlzsY9foe9BLia9OHaot/epFbNBJOoqVcmoo/mxU4FADlFSAc1GOtSLQBIpwadnGKZ0NO64oAmHIoPFNBp55NAERbBp6yDcBmo5AetVjIUOc0AayMB1qUYrKiuueTV2OYN3piLipu7VHLFxjFTROMYNSFd1AjPRMPir0CBj0qGSIg5Aqxa5BA700gJjbrtPFZtzEVPHFdCEULnFZ1zGGJyOKbQIxhkDmmNKQatTxhRVByc1BaJlkzjmpN2KqA08ScjNMLFyNhu5qZAvXPNU0b5hmrCHrQJlpTjNPUE1Are9TRk9qYiePODxSl8UH5E3NwKqfaRI+FH40CLiHLAVOOP/AK1V4w2wEjn3qV2SOMvLIqKOpY4ApgSbx604SDpnNUxNDJLEiyqTIMoQc7h7etcT4i8a6jp99LYW1p9lkQ7TJJ8zMOxHbB9amc1FXZpGm5aI7q/1Sz02AzXlzHFHj+JuT9BXFan8TbeNSum2jytz883yr+Ved3d7c3908t1O80hYfM5qBulcs8Q3ojrhhor4jR1fxDqetv8A6bckx9ok+VB+FZqjP4UYzT1FYuTe5uopbC4wOenQVkavPvkSAdFGTWtIduCf4QTXNSSGad5G6k1tRjrc58RKysJT1GKYtPrqOIO9OzTRTu1AhKKKKQxwNLTBTs0CA0lBpKAAmmk8E0tNbp9aBrc6OyXFnDx/CKkmJZo0B+8cn6CnQLtgQf7I/lTFw92zf3QFrzp/EenDSJPRRRUlHn8P+rFSUxOI1+lLmvQZwjqKQHNLSGFJmlpvegB1FFFAAKU0CigBe1RTj93UtMlGYiO9NCexWFKRzTcN6GnYPoaskUdadTVDE4Ckn0ArodK8PvMBNdLhccIf60DuZNrYT3rgRodv949K14vD0Kp+9dmYjtwBXQrapEoCgDHYCiOJpJMKpP8ASp5hXMqLTI4cLGmWPUnrVo2pWIROcDOd2MlfpXQ22miJdzAbj+lQXlrgHFAilZ6vc6fP5MsvnW+Mgnn8j6Vv2Ot2t4BsYo2cbX45rmltjvGV3KDnbVu6itZbciPEcuw7Rt6dz/KhO5taEkklqdtbOGODwaviL5civM9O8TXllKkMyGePHDZwy16JourW2qQBoyQxGSrcGrM50ZQ3H9DUq9OatSwKQTxis6W5ggk2PMit/dLDNBkW+DSHAqot/D/z1Q/8CFP+1Rt0dfwNA7FlHwelSq2R0rP+1xD+Nf8AvqlTUIgceYv50BY0G+YVVmiBFKt/bnjzU/OnfaIHHEin8aQWZQbcjcdKnhnww5p7iN+hH51A0WDlaB2NaKZgAatxXYA+YjHvWHFd+UArjj1FPe7hkGA2DTuKx0iypIPl5qe3AMnauIa/khkDQyk46jPBrf0fVvtBCyDD+1NMTidSF+UfSqk6AVKJ12A5qnNMHPBqibGfcgE4BrOkXk1qStHjJIBqnKY+TlalopXKFOVSTxT/AN3uA3DJ7Z5qaKa3jJXeCw/h70ihAhUAnNNM+w8mqGr64bRSsMBkfaSoHc+lcsnieS/i3IHjbOCp6g+lJsv2UrXZ6DFMrYGa17ZQFDHGMV5tok+u394UsWim2n5o5htwBjPPrz0NekadNaakJ4YHEiQSGGY+jAc9+me/tTjqS4MxNQ1CS6ujHErCJTgY71oaZZnKtIQufugnrVt7eC0WOVjCYY18o7cnDHufXnFc1F4keaJrWG2Sa8tlZ1lKlgrKcEDueMdKb916lulpodnNFHZIZ7l41t0TLMzbdtU7mXS9Zt47IR29zbXAO5i3yjHINZccctzcJcalfQxpqcIUabPkjdgdB0Bzj86qQSafDeW9ibs208VztMMClkfoPmGOB2o5hxw91e+xHb6rp1hAmmtAY7mDfDD5R+6e5GcHGPc8CtbS44NRs2g1iK1vTbIh3rHllVj3PQgHuKk1W8sI3kjit7bzY2HMqZGOchR2NQ+H7oz6o8ENsIUilWUCNyE2Ec5Xsc44pSi0zWdCcIc3Qoa38LNPuAZNLmNpLnOxssjf1Fea6z4b1TQ5dl9auqdpRyjfQ19GsuRVee2iuIXhniSSJxhkcZBH0rKdCMtUYQxEo7nzIBzT1HavVvEfwxhnVrnRCIpcZ+zsflb6HtXmd3YXOn3L293A8MqnBVxiuadNx3OyFWM9jL1OTy7OQ55IC/nWABiujubZLtCjkj5sgiqL6Kw+5cKfZlxW1GcUtTCtCUnoZgpauHSroZwEb6NTDpt2P+WX5MK2549zD2UuxWFLmpvsF3/zxP5ik+w3X/PH/wAeFHPHuL2cuxEKWpxp90R9xR9WFPXTLg9WQfjS54rqNUpdirRmry6TJ/FOPwFSDSU6tKx+gxU+1iV7CbM0tSVrDTLZcZDt9WqRbO3H/LFfxpOtEaw0jEpY0aSVUUZJPQVvC3hHSJP++aliRVb5VUY9FqXiFYtYZ33J+FjGegH9KitlxFuPVjuNOnIMZUkjd8oxT1GFAHbpXI9TrQtFGKKQHBGkpTSV3nEGaXNIKKYC5pKKKQCg0tIOtLQAoooFFAC0UCp7e2lupAkS5Pc9hQBCKuWemT3hBUbY+7H+lbFnoMMZDTEyMO3atqKHcVRR+VUkQ5FLTtFhhIKrvYdXPWtaTEKBRxVtYVt4eeKrRW8l9PtUHb60NkkEMT3Em1B+NdFYaWsMYZhk+tXdP02K3hUbcN34q84AHAp8onIzHhCg8Vm3EecjFbUyFsetVxab3G4cUWC5mQafvGdpxVbUrQQRZJwTwCeoNdbBaBUwR0rjfEN4k+pvZoTmEAsPXNFrIqMn0KEFpazTRGU7Np+YjlW+o7VpLfmzkLuhjjHTy/4MD5jnuOnT1rlGke31BIoXdmL5eM9CD/hWj50NnbqtwN67yQMdCeuPQYpXNJSlPRl2PxRrV3KFN4ps45QjlUw7qWwMj+tF1e2H9tfYXEkpdsM46K/Yf59aXT7iyudRt7iEPDcKnliNuFdfUH1rVe2tY75p2gQzhMhv4j9B9O9UJxs7WOP1NgNXY2nnqYMbwzYHy+/6c1Lax28sYKPOyyPuk8zIHPoRxwa6h44dT09WeFlilYEg9SB0ziobHS5543jS3SDYQqbZOGUHk8c4zU2C6sYflSF95Q27chmY7sAdOc4GaffW00YhKqXeX7rDH14q/wCJ7E6daxRI0UdtI2GUL85Oc5+lVNOjmub6K3srmVorcBEDLgMTk5/I9KWppTS3ZVgs7y4uBCkU0kiN8yMc49eldxHocr2oVTtkAGWx+ldLpeiCwiC39zDPctkq4UK2wdsd/rVzTp47+S5WO3ljEDhQ0i4EgIyGX2rRR7hVrpv3VscBqtslnpCi2EDXkbBG2noTzwO+RiqFvprRiJmlnDo24gSHB9iO9dHrdva6PqGoQrI5nvQrqgIGRjJVffP061kW11bRTi2Z2jlflY5QQT2wMk+lIfO5RskOvXiSzIlkKCT5AxfGGPTnt9a52HUYLdJhdCS6cyhCwl3ADHUH8K6ELJJ5kF8kTxsxCgDgjtmsrUNBtPMia0jKsXG4Z+XGRkYoIikzSj1QQ2FndiTbab/LkEil3I7HI6Gugt5luohLaymIgBlZSMjI4yK59Z4jfwxLGywRbhu+8hOOh+nXJ9Peni5ttMVrtZZXXBwM5GCc8U0yFF30LM1z4qmdk+2sFBwACoyPWujW5dURXkZmAGST1ryS91O51G9muopZgCNoJO0hemMVr6Lca2LWWGG2uJyMFGkOEQfUkcf4UubU1qXlHY7C11KCGK5uZ55xFLOwAuDnbjggDsOO9U7hPKuUudLkWETDczbiQx6gkE9PYetSxeEtZ1GMI13CqPub58NgHg4I9M9D61ow/D7RNKjgm1G7mPzqisWIAJJwB6Cq1MeZR3M66u45rqOeO72XESFG24IIPqPXPSqOVn1hJLeeT7U6+Wik/Lzxk/lXWa/4bitLRDp1sgjziQKuXI7EnvzXH3CpJaQJZRtDMhPnMGPIJGAPpzUtHoYfDRqw50zp7bwDPfBJdUuy7D+GI4FbkHha00aylntoVmnT5l85vf1p/ha0ljh88SmSOYYCjPGO5Jo1A+Xa6tHM9+iRlXaVYx86cEhT344NXypK5yV4vncE7ia5pV7qemK+ipaLcS4iumVuSncbvY/jWppug2Hh/RpYY/3QmA8+RnzlsYPJ7dfzrm7LxdpWi6bHJbzSTrcSsTbFhvhPGABx8vv70svir+2tK1KGe38nbIIowHBJB9R6/T1pJq9yIUqk3yPYvXWqroU6WgihNu23cyH5pHPBJGeOMH8KIvCdul99pt5po5N7SKNwKIxGCVHr061xa+fBPb3KsnBKE/xIe31FddJrGrQ6OtzBbI0qkHeI928dxgdKbs9zuq4N00uVlDxNol3Zpprfarm8uGcxqoXdg9eD1Htk/wAqvaHZ6jZ6Yn2SzimkvpWxddTEvq/qevT0rf8ADN5f3+nx3t0y4mJIUdEwTxzzV7ULS6tNEmj0SFFmO5kUn7rE5JGfx4qeRP3jkqVHH3Dmta0VbHS7ZnnaSa3XdPKW56ZyR6A9Ki8I6hDH5ihtzTOZGlbq+ehP4YrqBaxX+kTwXBWWaa3VZpFON524yPbrXDajpyaDeeRbOWEYDc9s8gVNVtWZft5VKfJLoenxOHXIxildM81zvh/V1u4FBI3eldKp3LVxakro4ZKzsVj1rM1rQNP1+28m+i3MPuyLw6H2NbDpUeMUWvoxJtO6PCvE/gm/8OSmVQ1xYk/LOo5X2Ydj71zRFfTRVJEKOgZW4KkcEV5r4u+G+7ffaEgB6va56+6f4VzVKFtYnZSxF9JHl3SmE1HPK8U7wtG6yIdrKy4IPuKQb27Vz2sdSd9h5NMJ5pxGBTB1pDH96WkpRQA4c0hpRSGkgENJQaKACpY+hNRCpkHGKGAxwXuY16hRuNWVHFQW/wAzyOOm7A/DirIqWAmKKWigDz2kozRXecYUopKUCmIKKXFJQAo60tIOtLQAoooFPhhe4mWKMZdjgCmBNZWct7MIogc9z6CuvtLKOzhEca/UnqTT9M01NOtgg5kYZdverJ6mkZuQwKPStXT7UKpkYc4qnbQmSUcZFa8gYIkUY5aqsSU3R7258pAdmeT6V0dhpqW6AY5pNL04QoCB8x9a2ViIGO9NIVyvtCjikMLN2q7Hb7utWRDntTJMj7KOrDmpI7Zdw4/StLyM4yvFPSAemKAuUJIticeleaa6JIvETrvRUIDFWYDdnqfXj0r1mWLdkY7V5d43iVNWQZO4gZwOgpSN6EeeVjBkvkSaQeTtKkjPXPv+VLMqXdkryOETOc+tRzQzX94TDb7ET5FAOcj1PvV7+yEnjys8hUDGFPylvbjtU2OipGMLdGZNmIra+X/Sd6IeNw6ewrW/tRZZJo7l1xEwOScnb2I981FDoSxnzZJTI6noOg9qXyoJkmCDgDEh9vrTM6jTtYv2mr6hCysTDPCwZsgYIPbGPatIanG+lSGziW2uZAMN93djsT2HWuSnvbMQqvmNKrts4ONuPXpirMVzvR4oFyVjLLsJII7c4pmWqOqazgvRCL1I50iUNHLvLbj3/r+VSQy2C6kYoZYIbjYGD/j0+vSuStp71UkmiE1u4QYOev07Gqo1HzXeW+gaZpNqh9u0qw6HPHNBoveVz0PUNU1a0it2sYGuJ2RoxIsBwijB245z61LY+K7+DS/MlmtmugWH2dIsGPqFB5Az7VHpGuRNElkJp96ruEpKhwfT3NSWXhLRJyVnuLozsxPm+YBzn06Gh36EpxiveRQgW/8AFHn33mSRXln96CQ/upHI45xkdOlclqK3kM4N4CrbvlXfuKYPQGvWbx9QvrwwWdssFtgCSR1wS3TOe5xVeXwnaJHLd3AW5uQpYE8KcDjNHLdGtKsou7R5nBPrDrKyNMx2ZUlCwb0x71v6VpWuak6bLCRYAvM0/wAjE+m2rekTDT7xri+ffP8AdjtYnGwDH3mA9PTmrY8U3s1xJ5epWscUi4QAhdh9OR+tCXcKrc5XihuqeE2sNGmmurkRjusbBd2eoz61krbWNreWNvJP5ts0YaW2ciQhD6nr71o3FwviF0Y3TI6IqEXEu6Nj3KqCMnGOax7uaHQtTMB01rs4BLyZUkf7OO3+FPQ6KDpxj7256VpOjaFZQi507TrdBIoKybOSPx6VR8S2l1qcAtrVojF9+WPgOwHQA44ya5TRvEMzaxMyQR/Z5XCpmQr5aYwAB3+tdrePdNbOtjLFHOSMNIm4Ad+B3qrqSOCTcJ3KOnG/htI7VHhs51UFRkBQD1+Qcsw9T3qt4pafU/L09GKxQje9zKSFJ6dh1HX8ak1C1AuPt0wLsPLUspKjg5O4dNueaW3WCJJhbG4K3Lb2YvkKGOSVBGPUkegotpYNJPmMrTrrVdQtJ0bVfMeJljhkQlMEnHzcfpXV2Xg+CC233Cm6uGAz82xFbufpmqNpL4biuY7uaWNrgERCRwRuYdMjpn8O1djLeQx2IlMoy3IHf8qcFbc0depCPuaIQDy4FiiKoAu0bVwB9BWN4n1iXTbJIoHJlk6/KDkDjpWdrHigac6PKHhg3ld5X75xnjHbrWNLrWl+JNXRbd7rzRE3zMu2PAGcnuKqUktAw1vac1TYoy29pe37G7ghEzYDKmFxgeg6HmtSHRNK1K6a0KXVs9rEsjySJtLLn7vt6hgarroN1sOpLCbjz13holIZuDnIPTp1q/P/AGle6Fvjt5C4PzQSJt2ADJX3GOn196zO2vXjUsqbL9loFit5cs7zPA43puPygH39anbxJp+mXJsraJ5Y0TAWJgQT3/Gub0SO51LVnFy0qRR27ZkYnpjuOBgdh7V1ukwaRthNs8RabheMFse3arWpE3OLtU95Ior4h1H+zw+l6ZNuJ2iJlyq85JBHXrXUaa1zqEQe6WWJ06qUKgnPBGf881OuLaOZ2XCxqThVJOfwqD+2Xt1mkmCGGJRvIJzGSAcH14PWm1Y461VVFaMSjeK515rUzLHHKvkgIdpK7SQfw9a5nXLhjrUdo0TbFhRTKQcM2OD9DXR2s8d9HLqk6GFtgSQOhBDE8Ee20j86ku2s77RPOG2VC6JkEj584478HnFRNc0TpjKLS08jlNOuG0+8xnAPWvQtOvBNEuTniuEvbIjJHDr2rV0C++UIx5HFc1NuDszmqxTV0dwQCKruMHFOhk3oPpT2ANdJyFfvTgeaQjBoFAHL+K/A9h4jR50VbfUcfLOo+97MO/1rxjVtGv8AQ7w2t9A0bjof4WHqD3FfSAOaztb0Gx8QWBtb2PP9yQfeQ+oNZ1KSnqtzelXcHZ7HzcTTAO9b/ifwxe+G78w3CF4WJ8qcD5XH9D7VhqOK4ZRadmejGSkroBTqTFLSC4vammlpuaVguLTc80oNGKYAOtSlvLjZz/CCaYo5omGVjjA++w/IcmkBNbIUgQHriph0pFNKxxj3NSMWilAoosFzzqkNO2ml2V6Bw3GA04UbDRtNAXF/GkpfLb2pdj+1FhXEFLShG9qUIfUUDTExXYaBpQtoRczD9644BH3RWT4f0v7Xd+dKMwxHPThj6V2LEdB0pkykNJpFQscAUoGSKu20BJAxz6U0iLk1jb4ANbNjZbm3sOvr2p1rZAKIz9Sa27a349h0p2JuOig2AcfhVpIc9amjjHHrVqOLPbiqJuQJBx0qURYHSrITtil8vmgCr5Y9KdswOlWRHntSlOQKEBSaOuP8SadBc3RWRASV4PcfSu5dB2Fch4jIW7zuK4GcqM8UmXGTTujlbfTEsonSM7nbO5mHX049KbHZGG2CIIxIB2B2A+w7CtGaQbBIhDJt3ZB7dv61m3d7JH/qlZjsyEI6k4x/P9KRo+aT5mZkSym6neOV1lZmUQMu5CQf7xx/k1Yur60spGjkTBC5OAMewq7YTi+sFnUBWkzkDsf8a5y7srm01CN51WQsCQCcgnP8VBrRipStIzTp8tySsTK8jy7kj6ADnOe3pW4tnazWagSPZNF8r+W20bj1HPUZ/nTPDsQe+fflmjQsxHQE1q3+kxas8fmySQrCd7DaPmB9/wBKaQ8RGMZWiNW0khCxhN0Q2op/ujHJ/l+dRajoz3nkqJdkKtmSMD7/ALZHetO4mSyhZrlZDFuXmNdxOScD8hV6CKZr5JWZBYsmY/mGScZLH6dMU7HPqjjtN8PF7pWWSRoJULK0RICqD90n168V0gsr8YzO7bP9WRwfxNdBbNbXPmJbyqzRj5go6Zp0s9nZvHBPcRxyMPlDsAT2zVKKQpNnOXV1r4tFhF4I3b+FxvHHXHHvVa4k1P8As8Wuq3Ulzb4ARGYIoA7cdfxrVuPEmkjUUtXkbzeUDoMqMnGCaXUNQgA8jy1kPRVx/KkXG7MCSVUC+XAVnZfkOM89v0qu+h6qljNMulNMxyQ+7lPcL3rpfD/h26m1dtTvodgK4WPdkZHQ49cV2JuEtjnnj2qlC+51xm4KyPINLWaEm7eCYGLIAUcH1roraS51G2823R2jJwCciuyttIsLqS5ILotzneFbgE+grBl1qXQdTbR5oPtZt5Ass6ptJVhkE++MZPtSceXcwrNydzKk0i9Uvc79j7doLklV/D0p8T619kD/AGmZSA2fN4ZiOu0dCPTmujsNYtNfhmSCbKYKSRgYIBGB2/Wsu5029jsJtNCwwaXaEvEzOS8oxnn8c1LXYVNXmoyM2xu01CwX7dcXEMiNgoxbJPTP09q6XT9Ct3KiKaIy7d37tucevrXLWlneXTQLBbAwsxHmHJJPuemBV60u59NtbxNAy063OJ7ibH3efuDuOv5UJ9zfE0YQtyPU6AeFVwiI2LV2Z5Wj5YkjA256YPJNW/DdzaXl1e2tvKZFsykamUfOR1LHjuf5VHouvXWqTSB7Ga1t05jd1wJR059PWpZtS0/QYL0xRiKeNBI8jRNtbPC5IHJ6DFWrbnC3LY4nxTDc6Z4iMF7I9xZSHzVi8zAcfTtzxSaBpMeuajDYowtJo0Jn2g/OoI4BHfBxk9a7i7t9O8QT26X1hKzxokq3KJtVh1288hfY1dtli0u4juLbSlU383+kSRtu2DsfpUcl3c2lWahqi9qGt2WhQL9pWVYkwgYISOnAFW7eRZGR4wggmj83JUgknGM/UU6eBblfKfG0kA7kDA4Pof50wXGnQ38dhvRLhovki9UB49uPStjHmioruc14mubeTU7exE3lQIp87aOF+gHU9vxqt4KaKW5luPs7BkDvAGPCKOhIrR1XS9OutUjtYx5N5cMWVzuZWwPmHoOOa6C2t7XR4/Kt4gZinzMFOXx6/wCFTbU9OeKpww6jHexX0O31NrXUJ7yeR2nciCNvl2AZ59gT+lZWrQpd6xKt48kiRrGsi9I1PU++DwK7ANuKnJ9xXI/YbqW/jWczRw314WKsMuVXOB7D/CnY48I4uTlI6BikrW8E9m6i4ZsBUyvAyCxHTjGD7VHqa2stv9gglEcizI5ZBgrg5J+uK1myIJVtmy4yOWzg44Fc1c2Dp50dxI0k13FtJiIDRnIzj2x1NS9EZKVm2mY+utK91K1vmMBiSGH3v/11laVfgXgQnaxOCDXRXsD2qJHcRyuUCoZn/i9CSOPxrmdWszazrdxDo2TXFVTTui4S5tGej6bc74xzWmDmuR0e7zGjA8MAa6iGTcgOa6IO6MJqzJHFR45qQmoyeasgcOKcKYDTxQBV1TSrTWLB7O8hWWJx0I6HsR6H3rwnxZ4UuvC9+UcGS0kP7mYDr7H0Ir6DFU9W0u11nT5bK8iEkLjBHce49D71M6amjWlWcH5HzMCKWtfxJ4euvDeqvaTqzRHJhlxxIv8Aj61jbhiuFwadj0VNNXQ400DPak3jIpxkBPAxSsF0J07UoB70ZyaeOaVhiqOKT795txkRryfc8/yqRSAMntUdmCUaVvvSMWPt6fpSFctqmcU7ysnoKcrAU7zBnpSsO4BKKPNXrRRYLnnFLS4oIruOISilp6rkUANFLTgg704Rj0oAjp8MTTTJEgJZzgAU4Ip7VveHLDdM12w+VOEz696Ymb1nbLZWiQJ0A5PqalIyaceRTo03tiggktoC5ziui06yz85HA6571UsrXJAAP4V1MFpsRYwOnU+9UkSwgtQMFgSTya04oeBxSxQjAwDVyOPOBiqJuRpFg5q0kbYxTkjwcVOqelMQ0Lil21KEpdmDQBCEPpSeXlqshcUm3k0AVHQAe1cLryxXmoTwF+UKh1HVTjIr0GRflrxbWb69/wCE/vF0+NpBvVLhcZUgY59sDvUyLirl9bSOKLMChAVKYkJPOePzP86o3cn9neVlQRGCqgLzk+nPTnFW9TSY3JmLM1vbgPsVsbmB6N7d/wAKzZ7W91Wa3u4igCF0DqN2OoyM9xxj6UjVN2K9xA93a3kQuTbSRTKZJicIMjkcdOKuRS6dG9qst3Hd3RBETgAfTjp7Zqvr1peJpUxlliS3BU7WXLO3A6jueD9Qa5420FulpcJPOreZtmYR/wCqYf170r6lLudXpVzALqexFmLedQZSAPlYeufxrVsvs0elC6khSCPaXfvgDuf50s1u1rGt0rrNJhEYyBV3p35x75/CqJ0KS78+Oy1TFk0YjWMr5irzk9/yPvVoylq9S3HfaXLujhvELxxcAvjcGHH1P8qw7G5toNNvbF/NWIjfGA2SGz6+nSrEbQJYxRWvh6a4mQ7BJJCFBZTyT6dB+dZ8cV/9ud7aAtcfMXXbnB9MdMe1FzuwtOE4tyKXkXGmxnUYLv8AemQhoyx3Edcn15rptOeLVdVt9SmchmiLyNvDBFBwVYHt7elVLHSo71BPqk8MUEc22d5AUBJ7D3z2rpLDT7CcXUdtYrbWSkspj3b5lUYPf3JA74B5oSsZ4uEVJKBmarYafFeAaa8VvdTyDeAobcMZGAfug+orO0u0eLxPbm8YKjMwQMSeT93n8xXS6csV3dW+oraT3MMyrFBJ5IU2wBKlSOw96j8VRabbBILiZUnlGYxnBHPBz25709tTCEnex2KRBbMsg5A/KsO3lOoafcGWKW3nJ2xhhjHPU1N4O1eSbSlW4kMksbtFIHxu+U4598Y/OtS5jhYsyjYp7Zro0aubXtoZ2kwP5zKOQP1rA1UazeeJL5LOwiWHeqXMqgb2BUY5PoMce1dULy00iB7u5lEcUYySTyfYDufavPYfGOuwvc3zsk1szkKkqgZJzjbgZOB1rGo1omKW1zT0jwZe6b9qi+3osU2AWiTD4B9e2f61LpUNzdahKJEuoFXJCyhSj4POO/Ix16V0ehar/bWjQ3phMTPlSvbI4JHtVafVIJL6O1jJScjfGZEJXGcHOOh6gDvQklsc8eZtskMZbTJN0v2ZWVgGA2mIHj9K5eDwXHJqccb77nTzbkm4aT5i56YA6Y6/jVrWTrUmk7Gt0MZfJ8jkRovatvRZhcaNGqQSW6qNoDDk+9Djdmzg1S5r6kuj6LFo9iLVJ5plDFg0p5Gew9qbfwahE9uNNMRjafdc+e2cJ3xmoxfXWl6c82qtE7B8IIAfu9sk9/esg+I72HWvszlbiAKC0ccYLjPIB9+f0p6bEU6M56m79gF7FPZyXzzh2JlAyn7thjjHfIzn61Kb638PafaxNbOAAIraKP5mz3B/xp1ldW8xke2XLcK5UHt0Gfao9St7GFW1TUo9qRAASZY4BI4AHqcUbbGbl0ZettUuJJIlW2lHnEMd5H7sfxZI/QVla/pM2sXE1w8zW6wMEiMJAdjjHJzgDnv6VqiE2YNwmRDLtO1U7nPJ9OvU1VjvNOtWiUTpAjSEgO2Wducrjk5HHtS3RKWtyfQLW5tI4Y5YpVjt0ZC87AszZ/hI7e9dIgwNxPXvXLT2+sXolWKSVAsoaOeHAJTnKEHt71t2l3FO00YljuGhCqxVweSOcjsaE7aFzhpe443UY1AFnkSLhAxU7CcZ4bp/+qr1xdxqqZkCKxXZJgEEnt+I7+9YWnX2oXd81tcWLW0ceGyBlCBxjn1659qsJe6XLcSyQSIs0ShWIYqGXnjHQ4NUCozWqI9U1GO1tpo0s7wCWXkwEAkkj5wc9OlX7Cxtppo7iZA93CAuZQPMT649apalpmoT25uLS4zL8rQKo27TxkE91x7VctL0BYpru3aG48lc5yxGWOFJ9sHmp6me6M3V7S5uNen85fLsntfLV1fG/kZz6EVnT2Ykhkt3IZkBUkd/euqku9NvbWKBLiOSO5AEYU8kHJ/xrOu9ONrM1xES1vIFBTH3Tg5PsMYqJQui02tzndGYxIYCeYjt/wAK7CykLIOa5O7i+yaojg4WYYP1FdFYSYVeetY01Z2Cequa4amk80wNnFLnFbmQ4GpFaoc0qtQBYBp2ahDVIDTE0Z2u6La65p5trmNWwdyNjlW9RXkt7oUNldSW89sqyIcHjr7j2r22ud8UaF/admZYQBdRDKH+8PQ1M4XVzSnNx0PKxpll0NutOGk2Pe3WpXMkbEOCpBwcjoaUPIRkZx64rnOi7IxpViP+WAp66RZN/wAsFpRI/B7HvipBKw6tilYabI/7FsT/AMsAKkXQLEDiP9alExxyeB3qVLnA++KLILshGhWQ6x5pf7Bscf6s1P8AaP8AaH50ouBjhh+dKyC7Kp8P2J/hYfQ0Vc+0AdWH50UWQXZ4PiiilHNakjSMYp6d80NSg4FAAKdmmg0tADowWdVHJJwBXc2duLS1SEfwjn61zGg2/nagCRlY/m/wrrz+ZpkSYq/McCtOytiSOOKrWluWOSPpW/awAYFNENmnpdoFQuQOB3rchi+UHuTVS0QBFRepGTWvDHwOKoljokwp4qzGlIiYqdFqkiWKi8c1KBQoyRUirxQAgXijbUmKMUAMVaUrUgX2oK0AVZhhT9K80k0u0g1m9vogxnuGO8ls456AV6TfOIrWWQ9FUk/lXz8LvVL2Z76NZVgt5RNJvkwCAScZ4z1P1qZM2pwctehb1eSebUL2OCYNAcMy7gAMen49qNNvHs9NkZYd32Vg2FBztJOfbp3qSPT01ua3miiVLSZfMYOcMMMc8d603NtocK2rr50c4Jk9SMY6emKR6LcJRUYq7JLBYNYQ3pQvA0nAlXrjpgf56Vbg022s/tLRQ+Y80nmyKx3ZPsKwrW7+y6S8ttayx20TFXUOTtQnt75PUVZt71NLQ3kwkkkkHlqrcNtBJ5P4iqVjCeHqN6Gu1qz+bBcgvbiPIlkYHnJ/hx2Hes6V4/C2mCRVE0sjhEReNx7H8utQ2evRSxOl9GEABK+Xkg57Ed6qQPO2h2NxvjeVbjcYGY5CkkA9cgii5nUpSh8SNvzLi8mt7mS6a2kihLtZL3fGck/xDkGtRL+1hCEfNMSFfZHzu7k9KwNR1n+zorW6K5Bcjd5mSFOCVPH86vz362ejXOrwSRXQVvMgQHaihuOc9TzTVjGz6HPa7qurs0trq9mVsTJj5Y9uSM4ZW9e9a1jqoub6x062tPIuRGu17hwWiCjICED5iRz+OKRDF4/scBpbK5tSMofmQlu/6V1MXhzSo9R0+6IYXNpGNuP+WgQYBI9RxSim2aOorWYsi6hLFaM0r2lpEPtM08yjeoBzsIHoMgnpzWX430m41GW2v4rKGaxtovMllD4Z1yCVHtjkH3rfR72PV/MDRSadJH+9BjIlLn7ox9CB/Opr3UY9Osor68U29psCNGEBIZiAAR6Yq3FNWM4vU4vQ7O+1m/OraKsdpbNMEu7cuOcAYYEjn5cfl712F9pjzwwJKPM2uHcISQMDP1644q9pltb6WskNpBbxwyuZI0iGM8dT69vpXM6wstx4lY/2jc2sLwgSParuVXU5Ck9icdcUfCi3zTZneJNM1bXLyCE26RWFugY3LR4O7HzZAJI+lV9Oh1XxFLYTf2PA1hG22SRwNjr0+UHoAOuO9d5Y3F1b/Y7KbM0ksbSSSyMowBjIwB8x5FWdQnnsrZGs7feFOPKQYOPYfWlyXdyHVaVjMt9JtJ7xWEZXyE/dCOQqqDPAKg4BpZdKstKgnv2WdyqlnO8uzfh3pR4gg+2y2M8TWdyRviU4Jl6j5ex6VpQ3ZjsIpb1445GQbyxCjNXdPYmLlHY57wxdvqnmyrDDb6czlLZCw8zcPvAj9a2NRR7aALarHLcMwCRs+BjIyT7Ac1nS+I7G11KSHIS3SLcJFjBQOecjHJ4qe8l/tLTf7R0gw+cwHzyZXegPIP8A9f0pLRGlSnNe9JWTMrW7C433F8YbbUbOFAUiEn3Gz8+T6jsMVTvo28JaBbX+mxxSC4ZXnW64c7hkD8O9W9W0uT+wGSwli0sLKZpUI3FmGOQR36cVYluNP123tbW9s2vAsgidyANkmME8HqeTgVDLVWSVuhxEOuzx6oJbHUlhjuZhJIXjIWN8fdI5yoyenXivU7TVYr2yjygdioJ4BDe/pz1rnrXwnpWiwNKbeS6KP5ytLglMdAPWrmiXT3lpLeXEBtLJ2ba0jbTg9z6DoKIpp6mVSUZO8UbDzzXLmNG28cqBz9f51Gmg6fbCO5ufLSZ5FAaQ53HoASe59qpand6UttBZnULhXEqB5oH+cBTk5PcHvW1cC38QaQtxaxq7RSCW2aX7rMvQ+vr1q0DpTik2rJnJa7eXEmv2+hQPJa2EcimSaNtox1I9ABWSS3hPWpLmxH9ptc7i7LIMKpbOCFz83ueK7fWfDq67o/2OeURXBYSll+6HxzkehrmvDXgy707xJFJdu0f2aMSLJFyrHONmfp1rKSlfQ1jKHLqdhcPJNpUk6h44ng3DAIccZ/A+1cPN9kgihLXR8+VzuUoflGOuf1/Gu7vdQeOO5RbWS4mCsyRBseYAOxxjn0rIi0fT9RvNRinLLckIWiJAIyMgg9+Bg/StWzpweIjCLUjpLC7gNvbW/wBpVpDCCuSA7rj72KbqjrbLDMTKkZZlkdfuqCpOXHccfrXOx3tnHJZX0EKzta+ZDKY2B8lFGM5/u/XnmrumeKtO1m4NnLBLG0sLPtkX5WUZDD9DSumjg5WpuRkW/nyampWyVjHCzAgbV34JTAHQEcfjVzSpIpdFvo0nurmOBkADDBj+UDAI+8B3+lb9n9jvGmaBGVmj8gsBjCgcY9xmpdOt4NN09LeF0MQYhWHcZ4z70uVs1r1VUs0jl9fhKabBKQA8MgDY/I1Np1wCi89qzvFuvWTJLYQEmcyDcB0GDyah0i5+VAa53pMXK+XU7KN8gVJmqNtLkCrYbNbmDQ7NKGpmaM0iSdWqVTVVWqVTTQFgGhgGGKYpp4NNMRxXirRQkjXUS/JN98ejdj+Ncvp5BmMJxyO/rXq13brc27xOAVYd68t1K1k07U5EYFcNwfUetY1Y2dzopSurEDP5U8sYHyhsgGrJRZ4CQBgjBHcGqEzMZSX+9TopWibcp+vvWHMbW0LFlteTy3Aww2mgxhHMbAZVtjcdfQ1A5K3HmLwG5GOxqy0qzL5zDB+5Lj07GncLEboASrAA5wcjoR0oRFHG0fNyB6H0qSbdJGrjBYjY59x0P4ionLbFYcEdfY0xEzKp+fYuB94YooDBk3r16kH9RRQB4PilFNJ7U4VoSL3oo7UooAO/FLilA704jcwUd+BQB0vh6LyrIykcyN+lb0KlmBxxVSzhEcMUS/dVRWtbxdMVRky7argjArfsLckgms+xtsnJ5robePy4ST16CmSy7ZR8s+MZrWhUAA1Tt0KxgDpWhGMKPWqRJIqc1KFpFHAqVRVEiqtPAoApwFABjilC0oHFOAoAQCgin0hHFAznfF14LHw5ezEZPllQPUnivJtNjvXihEcqCATgvE/dQCTj16/yr1PxjbLe6dHbM5VWlVmwOoBziuamtbeUJ5kaMEO5dw6H1FS1c66dVRpOHVnPT3EkcsbRxwzXQZpY4SxBEXTjHGR6VU1CG9jv4byayV3VCzgfMi4/+tXRizs5b5L/AGI1wqlFkB5x3qWSWJJY4ZGAabIUEfex1pWFSqunLmsYOkWkt7vv3n2xTb12L2z6VFr2lxpbPcI7NKiqrr1B9znpW3eh7bTJPsKxq0Y4UDgAdePpXFxanczai7CVRLIcfKevoCKZ20ZTqT572RWiivHmhEnMJURwqB6dhXZiKzsFtomiWVsiJ5MAlCeQWH6Ve8yGzto2khQeWMttAwvrim39oIpBqcccXkCEtKejkcEH3AFOxzYjEc9o9Ecp4gtW1Ca3WxgMayhgYgQu8huuwdfWtDRg1te3NnqdjKkThIkUktAcdMA8D1zVmw0+CwubdrKxlaCUmUSbiwUbfc8Htj3FXZvEmm24jDTqskuQgkU4Uj+96DNJR1uc921yovpZw6VbqbK3ESCQO4jOC319R7VQt547nVJ7i3S7Oo2+FdS37kk9s+g/Wt22Mkse59mCBjb69/w96xdQMWj5kWylkiClWKJkFcZAJJ9e9XsaQts9zb/4SWygYAmTzCOVWM/qccH/ABq5b6vaanYRzxlJYpDkK6bsY6gj1rhNP8Q3N6VuYLZUElwscySP8rknACD+9txk9OK29I0QWyzKYEz57SeWk2QhB4x3HHampXMZx5WX/EeozaXb211b3gUglArKMEHpx7Vy2kXDTaolvHeYPmruZsgEkA8/yrr7uziukEdxCsqKchW7VVe2tbec332VTIijG0ZIx6D1xQ9zvo4yEKfK1qSeItdWxuo9Ht5I7W4kgzDdOeIznG32yBwak8L63dX8N6moTQD7LL5QLHbJ9XHTPpis/UrG01yMSFEScOpMwALYBztz6GqGpzRThWNpbpMtx588QUtJKq5AIA+8eQam7TucTUZKyOrfQY5tbW/e5mdEO9YWbKhsYyB2q1qNvBqdnPZthpGB2g8YYdOfXNcFea1JqVjbQW9zqBuEkJZXxmUH1C9MelM07Wb9tRgjFy48mTYVLce+femmjshgptc7exebwrrUVqHe9jhgTLywOc5A75APNblhdxSaRb2dpfQ/bEXcAVwrAHlT9R3rD17WZtWlUWsF6II4mLBoiobnqKg8NW1/dX/22KHyrZJcfMf4cc8U1ozZxVaheozqJtQjuNJt7iSNDG0y+cJWIMT5AAGO2f8APNPvNPhubSc6bZW8hedXJyYwXH8eR1x/SrCXceyQQ/vH6srdWOfes7WfFdlpscsEb+bfJGWSAA8n64/zih23Z5aUtkdGxElsyZRpAuCB03Y/QVivNpeoxT26XEMs88RjkhgPJIGCPYcYya5fT9cvtcgDwRzpcxnzZXCt5QUdVUD7x9AfWuh0e2sZ7yfVY9MkgZn+SSWPZIxI+Y49M4o5k9hL3XdnHzTva2dxbx2LPcI4DMc/uUXr+Pauk03xjaQWlrpemM08piPzIpyJP7uD7nr6Vt3miwX2nTxWjG0a6UeZLEvzEZyR+P8AWodO8M29pfrdpAIHhYKGGD5qBCBgDpycn1xU2d9DrxGLVbS2hspdzSW7SiKQzBAPKbC5YDp6de9Srd5nWLY24gbgOdpPT+RpUIZVbBGRkA9qxJ/FVlba/Dpn2OWa5ZsO0ahtnOBn+Z9BWjaW5xKLZp3MUtqLicXUVuzrtidl3AOemcnp7DFWNL0pLe2TzWjkusl5JEGAzkk5x6c4HtWX4p1K3hsVtWUs8xyrDouO9ReHby8h1uW1vZcCSJSg/vYHH6UrI7Y4eTo+0TNyTRrOHSb20iQRR3CuZGHHJHJ/+tXKWmnR6t4gtYLO4aM6VGsc0xTmdSOcH17YPrXXvDcvqUpadWtJIABD3BBOT9CCK5qXxppmi6heWsVlO22YGRowNoJAB/lUztocsG7M6iO3awe6neZpISd6RkZ8sAdAB+P51jaNdfbTfabJAwiGZULejHP8zWtqFzMY7b7LLgvIu7C7iV6kEehHenLcA211uKrND8kjBfUZA9+CKo0g+WDb6nj+q+Y2uTGRNp3EYA4HPI/OtvTWKYIp3imGP7ZavFjYyEqe+AcYPvkVDYk4HtXFJe+aufMrnX2U2VBrTVh1rnrCXAxWyj/LW0Xoc0lqWS1IDUO+lDZqiCcNUivVfdxQrc0XAvI1Sq2aqI3AqdW4FNEsmPK1yfi7TBNbreouXj4ceq11QNQ3ESzRsjDIYYIqpJSQRfK7nk1xH8kcnbpU9mitC25dwFT6xaGyna3OeGO09iKq20pjt5cfe/lXFJWlY7k7q4jwqWzG25D+lKmIHXJzHIMHHaljeIW+GDZJ6juKY20nlcD+dAD1/cyNGzboyMEjuOx/Cg5WRlbr0J9fQ1EMhQhPA5QntUrAtGGHVevutACKxjkINFBUMm5jyh2t9OxooEeGUopKUVqSL2opaKAFzV/SLf7TqEYIyq/Mf6frWeTXUeG7Yi2aYjl24+gpoUnY6CCPGOK2bOAEAkVRtossOOlblrHwOOKoyZpWyD5MflWxboCyqe3NUrGEbhWtAgMhb04AqkSy3CAD04q5GM1BEoxVqMUyCZFyKlApiDipVFMQAU4DAopaYxcU5R0pAKeopALimsMCpMVG/ANAI4bxdqfk6zZ2AdVeeJ2jLA8uDwP5159rV0Zba1tL+Rw0su9bqEgLCRxtxnnB6/Wuu8XNdTapNc2zIwtRt2eXlg3qD24P6VgajoEdxYRwqluO4uSxJjzyT16cVm2zsjGMUmYUVrcaLqhmtpPtkFvGYyzSY8st1O3vzWnp0873MunmTzJGfImPzCPjJwKtp4bD3kj3MruiDZCQ2NybRkN9GGc+9LokEuli4e92xBsYB6nHGc/iKaOhVafs3fczb2+awFxbpevJNKUCrt27NvBB9c960rDw/aMVnkskQMRKu1jlSeqn+dEuiRandpeLIESRd0gA6nsR6Vbsree11LZtkMIQs0ruSGY8BFHoAAfxpmVSrHkXs3r1LE0kMTqJinzHCq3OT7CpdO16Ga6NjJby+cH2OFXcqAjIJPpiqUWoreXdxbKhgnijyGdclSw9PxFWTp9z9nCpeMkvDNIFzyB2HofSrucfMmb19bRzWcykNgxkfIcE8YwPfsK8TIMts1u0bqIpSwkkBJQcgq314/EV3Z/tDFvPJczh4pVilRFDCbnlj1wMetaq6XpBt7rRokZTOhlkIbLDJ459R2qZRctjWlNQ3Oe8OTXenaPc6iNTjuEcCNIGLEowPofQZ4FFzqN+oeeaXy0v8ptJGWXHJA6j0zXSWXhTTrfTTZiJpFJDNISQS2MA8dOKxYfB8ss7vfyeV5APlysRj/8AV3os0rHoYWrR5Xfcl0e58MPaG0uXEU20GRIyyoSnQgjvXfQSQzFHQK6MgPmKQevSsXTdE02bRhHbiGQTIUa6jQZbnk5rcstPt9OtIbW2VY0jGFA4z6/zqopnBWcG213GXukpeNAftM8Iik3kRHb5mP4W9qfJaxsWUkdMkZ7VJqNrJfafLBBdvau4G2aPkrz/ACrlbG/Ka3Poepwf6YLcqLxG6pjOMEdyapuxzpNoPEVzBphS389YmlwqKq5I5wScdMDFQT2rWIa6uUEkQjYAqpEkIOO/q39KZo2hTPcvc2dxKrG4VXaQEnKMfvHPzBvap9L8NagviN7xUeGydHZxJNv3uexHXAPT6Vn1NVa17nHnz9M1d54omjwCFDjkA8Aj86v+H9En1INNLdyMUkHmNIMsfofWvTbjSLa6tGguUEyFArFhyQO+f1qK202GxgENtGEjB4HrVqB2vME4WitTLsbi6uROs0DQlWKqjDjaO5PQ59KhuNRNhcQQ21o88MgHNuobbzg8CtmGygtITHGixx7ixHqSck/nVKXRreS+SaOQxFV2PHE23cOozj3/AJ1TPPi7blKODSxO2rTGSOWB/LLzZBX2x3zkVzfiOWy1XWrd4LkrDAMTNEvL5Ocdj04/GtvxZb3ps4bS0iklQgsdgyxIHGf8a4pM/Y4B5ewwktNIR80jEYGT6DtWctT18HRhOPPLU6/wto17p1nHc2l1mC5cvJE/RFGcbR6nua1PD+u3d7Z3d7f27QQCYrCChyFA7+vPf3q9pbXA0KzIiaNmULtjXkZ6HnoPX61oyRSOqqdrK2FkB447kVUY2Wh5lW3tGjGa4N+Lq30zUFN5BJ+/UnOwZzgDv0Aqpq/jqHSr6CA2/nIQPOKnDKccgA+me9M8RwmxS0u1Ym5jd9s0OE5Pcgfe44rHv7o6jdxawthH5UIXeWA2u/Q59eaTbWx20sG6qUuhpaprMev6bBPY3KRRQy5uIpG+8OMAgdjnr0q/f6Zo9hbyXkbPZXE6qpkhl2sw7gZzyf1xXKaLpMrS3l+t0ljp+9UmjQFt4LDC4P8AnmuwkXZeR25nSW7d/tX2dkA8xV4A9B1z6/WknfVnHVpunNxNHVdHW+0vyo8GdfmjZu3qPbNV9J0xNNtWmdVm1ny2dVMmWA6DAz06UviHVtQ07wyb+1t1Fwu0yKxDCMdz744/OsdPMk8R2uoRQC6lu4Vil8piUtcrluR0JznJqnJXsaU6s/ZcvQ6e/smnshc5L6klqQgWQhd2OpAPr3rzzSF099Pia8d57ue8SOS3RvmYA8fUDk16LeWfnW32feUVozFuDDIyCDz3xmqll4f0/QXW8UbhBbiJfl5HJLNn1Of0qZxu0ZRqcqdzcto4kMrRIqln+Yjvjis+K0EENzBDP5s5kM3749CTu7enTNJbanDfiWa2ST/RS6vGRtYMB0I96w9G1Nb2/v8AUIom83CB1PQZIzj6DBq9Ap03KMn2MvxSkaT2ojBCBpQM+7Z/mTWbbPtYc8VreNJd1xYq0ZSXYzODxg8Dp+FYcLYIrkqfEaQ+E6C0lwwOa3IZMjrXMWsnHJ5rbs5MgU4MmaNQHNOHFRq2BQXrQxJDJzinK1VS2TUiGkBeRqsRniqaP781NHKAMVSZLRbzxQelRq4NOzVIlnK+MrIyWqXSj7nDfSuMibDYPRuK9S1G3W6sJoW/iQ4ryk5RiO4OKwrKzudNGV1YtpFuzEThhytRyZMPTDocEU52ysc4PK8GpZCsqCQYDd/esjUppIWXFTQttJyOO49jUBRo88fLTd5HJ6d6QywHKlgxyc7W9x2NFQlhjOfu/KfdaKdxHi1KKSnCtSRyDJpp+8frS52ik9sHNFgFClmAA5Nd/ptuYLSKL+4o6VyGkWrTajFuGFB3H8K722TGMVRnI0bOPBGR9a27dQqVl2ydOOK2rZMAA00Zs0rNCBv7AVrW0e2MHrnmqMCDYqgcHtWtCuCOOKpEsljGBVmMcVEozUsdMm5YXtUiio0qVaYCinCgClAoYxRUg+lNAp4pABqGXhSamqreyeXbSP6KTQVFXZ5dc+JLeTW5oVjJBm2mTOB9aheKxie8DbRBJmVwRn5h1YcnsRXHz3FuTsELrOXYs+eGHPT3zXVeH7U29g4uQnmSPnG/dlTwPp6VJ6WJowpwTiP1K8A8qWB2Z4hvCocq4I4zj1wcVHY3Uuu6bNDdWj2bSRggZ3Aq2cEfl0NZ+s6VNZX1nc2keIIWCCOL77ZOW9gB71rAOZ4mjlBuIl/er0Dqeme3BoRw8ugy6tb+2g0+20xgIopFWYtjJTvVy9ItLWS5iTfJFGQF55UdqlWbEDSzhYwhOTnIAHes7Wp7v7Cslnape27giWMvt4PQ59OtV0EtXYLbUmVDOmnHy8hZGxtcADrjv7D0rYgvrSe8ks451a4jUM6DqAe/615rp15qU19BaWgeAxIUcE+rHnJz2wBXZJLcLq5u4ng+zLEEnYjD5HUZxQncJxUdiTxDK2n2jra2+0TndJKnGG45OO/SuZ0a4nm1dPJuds28KzZJz7H1ruomtNX0x0YkxHMcnzcgjrz3we9VdO0fRY54buzlVzzsxICGI4J9z1p9Tto14QpOLWpqTWSXTxs7yKEORscrk+9c3400idoJ9StJpjlAk0A5XaP4hzxjvW7rbTpo0/2ZEaRhswxxweCfr7VDDI1oINMuIhJAypEJGfIIK4Ofx4/4EKctdDig2pXRneCJ9Ui0CRhZx/ZVQvb7T80j5Oc8/wCFbNrf6jPopvLi386/hJdbePKE5I+U59MUWmm21hMxs5EhhjIby0bhRzuGO2fWp7JFvLmW9s70GOYgSrjJBAxgHt+VCVlYcouXv9CxFFqs9xYzxXX2aABTcWnB2jHKj3z3NWtUbbgmNWRkYFsrlT1Bx1OMdqr2ulS291d3C3sha4AwMDCYOePrnFQaxar9kFy8Tzzwx581XwRt9AM1dh03C95F3RvEllqln5kdzAwQDfjK7fUkEDHOa0vt0IuoLdVkYzqXR1QlMD1YcCuZdLa3tYJLdLVLKaRItwHzhSeMeoycY7ZpE1HUtF0Z5ruwRpopcW8ERIxH0DsOeAKXN3CdNbo62eNZYWRt21xglTg/nVKXULY/IJRFIsiptcEZJ6D6EZ5qOO8LeTbXV3At1IodQh278g8BSc4x3p8em2kDNGkCjepJkAGcjof1qk7mKjaSuVbn7RIZ9ORv323dGWX76n37YJ/Ssv7C9peJrCzsrysyy2+NxccAKvuNvXvW6EhlmmxOXuolUOCx2qcdcD1Fcwt9C+rXFm8gitIW8hUK9Xflcd8HqT7/AI1LdjeTT0RcutV12LxCLG30rzrdk3hi20FSBjJPTBzkU+XT9P05bm2t4YLq8lIm8icg4G7jAx0HPauc17VrjT9Cs7Owv5EuIDsuWQEFSM/Lnt1/EYrCC32najYald6iIHul3idf3jIvQ5H4nisnOzsaxT5dHY7uHWL3U9I1JZbS4srmzKg7GwemTj6YJx9Kra34kS/EVro13OtzHcoJAkJyynr2xx3z6Vv3sfkwC7iupRIrq+fvh14BXb7j9aZpc1jcLeTRWf2dZmJkZ12+YOhYmtNbHPJpa2Oc1C00vT4VtLMTX15IhQkMXEYOCWx0Hf8AEmqGneF7rUrZ5kO1Im/dq+RuOPWuus4Y4LeJdGWH7Esbt5v39x5xg9+etW5JU1G2NtC2UkBR3TIC8ckH1B5pcp1UsbKlDkijnY5pE1a0sYTZPYKoN2Y2UFJxx83rk4GOhrT0y7kvPNltC06xl445ZYx8xA5VW6hd2PyrjpvDC6X4r06wCyXaSlTKzx4Vsk5H5DNdhoXhybQbC8txerJ5sm6PcpKgAenr6/Spi23ZoyqST96+rLqaRbS6UdNvUmaGNlmkct8sjElmAx2zkYxUPhrQo/D93qBjkLw3JDRDBG1ecA579vwq9p8GoS2scOoypIRGVkZVxvfIIYewHFVrq8vNH0iN5X+1MHIeU8AbicY9QDx+FaWW4qac3yLqVorCO58TXE08crAOrw7mzEp2/NgZ+9x1rZsLuzm3WHnxy3USgzRMckE9c+vNcvoE832TU7mOd5biGFlQKN2WycEevPaodLfULWMasFt4JLxhDKJF+YSKzFznsDg59M+1TexVehyy5bnW2Fs9jFMLiQSTXUpJZVC4HRR9QKxYpEj8VJBAm23toysgA9B94/jxWfc6hPNr8cskrSW0symF1B28Y4H4nmt82tnpCSS3M7vLd/u5Je7E5PA/z0qtDo5Pq697XmRxnjG4aTxDgjCCJdhDZDDHX/PpWfA/Squt6hHe+IrvyiPJiYRxY6bFAA/rToJDxxXHPWTMkrKxtRNjBFbFjLgjmsG3kzwa0baQq2KIkyOjVsr1pPMqhHcfKOacZsDOa0uYNFzfineaAOtZ/wBoDEAGrCLv60rhYsfa8dKVbqQ01Y1HapVTA4ouxWLlvMzAZq8DkVn2/Bq6K1jsZyHHkYIryvVYvs+rXMWMBZDj6V6kx4Neb+KV269KR/EFP6VnW+E1o7lC2kUEo/3W4NOZGjITPHbPpVUHHPerKymWEDjK8ZrnR0MWeMxrhCcenX8qrgAlvpwParkwxDHIARg4YehqjO/7wEHt2oAeq7hiikVgBu7g8+4opgeMhSTxT/L6ZbH0pFSZv7ij86aApBJdmwPoK6LGPMyQ+UuMt+dOWQsP3aM3v0FRJtV1ARevXFWJZ2U7VAGMc4z19qdhXZ0HhyBtjzuoGTtAznArrbVeRmsjS4fKs4V6/KCfxrdtYWZhgHFIRp2q8jFbVtFucVn2cJA6c5roLGIJlvwppEstW0eG9gK04x0qhbn5mNX0bFUQTKKlUcVGh561KOtMRInAqZeRUKiploAkFPA4pgNSCkACnCkFOFAAaw/E8zw6DeGMEyGMqgHUseB+tbZNcl421ZNM0+PeM+ZJjH05oexpTTlJJHn11YW19pWDF5VymJJxFgcgc4zx14pEvLmzl0+K2ggls5QE4bJOD94HuOa17iyttV091G3y51B3D0/Aisq80n+ztNiuZNRuH/s9C6bQAOPUY544rM6ak3JWZutEjFjyCwwSDWHIPJvLuO2eWIsoke5P7zbj+EqeQPeqVl4s85At6vk75QqS4wpBGRn/ABq1f2VzbTreadGJrufEM8jt0THBx7dfwqrkxVtyK01yMX93ZXsciwnlZJDkOMc49Ae1b2nTQS26NA6eVnCAcEe2K4C8s5rGWSABZHGCSHOAOpNXbDybBxfNulujbtJb2xXrg8nP64pp9zpr4eCgpR3N++tVhv57uCFGuH2BpGbhEB5Y+nHGKdp1w8d+LCSSGeVw07tEONpAwpz3PHp0FQ6T4kt7swRCKNdRuQWkhLEAEcAZwecDOKvJ4diXxC2rrIVk4+Veh4wf5frT9Dhd1uZPi3WJLEPp72v7i6jyrKdpz3+pziuNjtp4VMqTIHiwxWOT5lB7jH4Zr0XX9OTxHprR2ckLzwPkM3b1XPbNcZF4a1ZIIJI7Z99xI0bKV+6B0LegPPPtUVOa+h0U5R5dTs9Nuj4uSeF1kTTY0RNzYEnmjB3Cm6vo9+9zAZrdbqzjbzGKPtIIAAJPU8Dp1P4Ct2xsW03ShHZWsCzbQWRThWfvzWZb+Ko5dUXTb61Ch2wSQWBHPbuc4rS2mpjTg5NuJR1TSTYQn7HbOkEaqZpN2SSe59eMCs/Q55JtZigtZp4WJCNIyj5j3IHpXfW7PeXF7p98EaMAFQoxlSKwdcgtPD15a3FjBEsxUjfIxYgfTPf1p2selQneHsLanR2d7I8cObWYb3KHdwUx3b61NNbQywmFoVaEqVKEcY9P8+tcHaeJ9Q0/UHmvyXimzsj6Y+nsK67RtTfVYXd7Z4Cp4znDD1HFWmmcdbCTpK/Qrpb6XpVl9u1G0EDXWFlhxvVW9h24HWrOnaJBZzTXlvMWSSNjCzZZ4g3JUZ4K+gNWIZvtBaOWNDhmBUjO3HYj1wR+dKmoxwSOk80Yw4QhOfL4yN3oMYpWXU5EpHl19q8V/fHU7qaa11RCRGsceF+UDYcnoc5zXoXhTV9Y1TTbl9TgERjA8mYIU38HJx7eo9aqaj4P0zXnuLqG7b7RLNuebO4AYxtHt05rpYrOKz0hbQMTDFDs3SHPGMZJqIRaeuxrOSklFbnOTH+wNJ8ySeFZpi0k0gb55CvKdfXoa07XS9PmvI79SzXEkYYuw+Y5HGT2POK4SfzLi1zcXaOLV9gMsvLZPAX1559a2tITVNQ0eeG3nO+3ZGhd2+6wzwP8Kq51zwXJTTubWr2C6naPpFtm2iaVQ8nXeoO4qOc4/wD1U3S/CsGntfpcQxXNlJMJLeBl3bABz17/AOFQ+FL+7ezuJ9XjeOQzsMtD5aoABn9a0l1C5ub1VMRgSI735DBo8HBJ7dKOWL1OecJW93YuRxy+bE8brJbNuzvOCgOMBccHn1rJv3sT4c1C1s3FtwQ5OQFOeef89aqzeL4DftElq0tmdu+Q5GT7D2ptjMmp6jrE4tpJre7CQIg6KNuCzDtTbRU8NVjDmki9HLZ6NoCzR7dkMa4KsGDjn04zk9femalezS+GL/UtLu1y6K0PkruePOM+vzHPTtiqWv213o3hmSKM2z27YjaOQ4wCOx7njge9Z/g25axu7W3FhfLEbXdv3ZjYsc78D14H4VPN9kwt9o6Dwfe6pPool1l3MjSN5TOm1ioHJPpzmtiC4mt7mYXssOyRt0Oz+FRgc/j/ADqe8hE0HVvl5IX+Id1I96xYDbaLpsq3U5EbOWDMcsxfsT0yDnp6VfwrUaipe8i23iKL+0rS1jify7jeqykY+YYxgeh9avXmmw6pZpBch1QMHKjg/Q1k6bc3N/NA8kcPk28p2TyLtZwV+VgPU8/ga3Z7j7II8xvIZJBGAg5ye59hQnczi3TldbjYo7Wwk8uCERmUlyVHU/5NZWtWKzW93Ehi8oxEumcFSOQR+OSa2LuZLe1kncgeWucn+nvXNWF9b6nfR2csMwu3QzSbsD5C2dh+owaTLhUfNzszPDMH9o30CzF9lpASir0Dbs5+pyPyre8QSvZaEsxuHjijiO/co3dOPoe1bNtp9ppxleCJYt4G8g9cdK898c66hhktI3MhuVy3BARe2PfIJpS91HTWre3q80dkedxzMsokJOc85rorR96gj0rmiK3NGk81NndeMVx2C5u25rQj3NjHWs+LEZGatrdqo4FNaEM04g23LYFV7mYrwGwKqNqhVdoGaqyXDy98UpT0DlNCG5OQc1tWc+9eelc3aqT1rdsxtXpSg2yZGupqRWqsjZxU6mt0jEtxED8qtKwIFUUbmrSHGKtEMkY8V594tAGs/WMf1rvmPFcB4tydXyOyCoq/Ca0fiMMDNOVsMB271GG5pTxXKjpZfR926N+BjkevoazpgUcqeoOKtBiYlk/iTg+47U28iJw/qODVk3GQkOoz1+6f6UVHCwU4P3TwaKVwPJQwAxjkmoI1/dOfXFSjlQSOME0gXbCR0+YCukxsJH/rRnrmrVsvnajChHG/HHfvVRep9cda2NAt/Ovg/URknP4UxHcafa+Yy4Hy101pZhVAxWXpu2NFGOa34XBPUUiS3FCEwRWlbsBGSO1UoyCAKtwxfOoPQ9aYizGOKtxk4ANNAX0qZF9qZI5G9atIelVsc1Yj5FAiwtSgVEvapRTAetSVGKkFIBRTqSigBGIwa8o+JNxJe61a6ZHCZcx8c4AJPX34H616pKwVDn0rxjXPEl2+qawsForT2cwMeVLBkJxn696UnodOFk4z5i9oRlTRYleF0eMFQH4Lf4VVnv5L3Rttxp8rTTAxyW65GOcEbvTvmnWz3E2pw3Ms3kxPbgm2J5DH/wDVVW91KfQbQC7mE6NuWN0GHB6gHJ9O9Rc0qazuczeyf2xbDTNP04RC0J8sdWcDhsH1zzW/9v1C1srZ5IltY0jRNkpA3PzgZ7DgfnVHSPF1qiyJd2wtxuLhoxuBLHn6etdPPb22pWgSVVlhcB1wcg9xTiRUb2KdlGkrx3M8ObiRdpIO5WGOo9B2rF8Rx6jBqRv7eCKGG1hAS4wCR7Adjzit4C3sGQSSRRRxA7S3ynbjpVKS/GoawNPZY5rKaL51I6jrmm1cqCnNlbQLO7i1vzbyxiuBIvmpfBOckA/hxXU3kAuZbZSZlCPv3xPtwR2PqDz+VJG8MJjtwVU4wieoFWiAwII4PHNWlZGEpNswreNXLI2tGbz7gPEYgFAxn5Tg89MfhVu0vYbjW7exa8na5RDKPk2q4PJB/CnWml2Oj20aW9r5uJTIpkwdhI9T09KuQWwuI1u7c7fPIcnHKgjkA/XnHtTSZpF6O4/R31LfeRXU0cwWb9zIOhXPIOO49KsjSVmvIlnx5cYZhEE+U5bIO71FUbrW7XTHh06aOU3JTc3kpjPqwP55+lasGtWrCJTKXaSQIgRD82emPw6/Sq0ZEZSpptbF9bNBNNIrOHcqxXdxkcD8K5LxZpt/58l87RPEqA43AYA6gDvTvFV/JpOs215bySGby13RK331DEYx37Vm2+vL4o8TxpJAYktoywjbOS2cZ/Dmk2r2NsLVnCftDP0PRtS1jxKupanDKLaJB5Yl/ixwoHsBXoqyLCApAx6Vfjiih09pSvPT6Vz96ZpYFnhTfGZvLPOO2SRVxjyo6Jz53ctaPa3VveXiSzLLZu4a3A4ZB3B45+ue1Z9xbLBZX9vbzR2d2JCW3OZVRM7t3PTI59BmrukTuW2EnKn86m8TS29hp91doscV1cIEaULy5x0J+maUloYuneSS3ZyMPiPTNKimksbh87xGkJz5TAdWB55I5/8A1VXsPFd7c3jSXrXFxpf2do5SidM9GOO/GKzm04DTFuGtVWzLbVkPdj29a6KyuYJbSx00aTvs5Ljy5SoO0rtyGY+ueoNZ3kdFXCqjDn3/AEGWGkQarqUMkcMT6WyLIGZ+W4IPB5yCD+VbepTp4X0+BLMgb3JIkOSw9TUkjfZ4AYrSPKTlLSBn8sMAvRf8O9Ur+z1bWrWO6FsqMGDRR78OnGGB/EVa2MoYh1KijV2IVuJzePNrkrpBcoNkK/3cjHHYf41P/ZE9rp1xb2JmuZC2xnc4JQ8rtHoOlT6ZaXV1rMkOrQ+eLdAwd1+UZ6YPetPW9ZTSrRfJMTTlwgQt0GPSix0yqfvFCmtfwPN5EvI2eGOHEhcCQNyUAPOK7Tw6sNjoktw7+VJcNsSTaW57cfXNS6ENM1O+uZltJI5Sp3K7bkYHrW24guIZ9NtmEB8rgoo+UHOCB9aSj1FjsRo6bWpi3f2+TUTbypLsNsjPd8CKMgnkAjr61vz3VpplkJbiaOC3jAUueFFUhY3V01xa3juIECiGaNgC+V+bI9O2D61w3jO6ddUu9NuUMNsY1NqVYneVHBIz0PIob5Vdnmwh7SVkek2jF13+eJA6ggLjHPQgjsf6VxviS00/VnjWO8Kz/aBEwfOxRzk7R27Z96x/DKzWelX9/wD2qQ8cQgEAJJTJyM+g64x7065DDUIIbWbzJ5Y9zzscqkjHoPcetS5c0T0KGFWspHoNhZfYnlZnUySLGTEpwqFV28fXH6VPqF+um6fNdtHJIsa52qMk81maR4cGnSRyzXUtzKsZVndz87E5JI/lWw13awNFHLOitK3lorfxn0HrxVrY82olfQ5e+aPxFHZCDUJHSS5O+NUyFIAYI3sCOvvXQabo1vp83nqHMvliJSzZ2p1wPxqnGNI8OTkh47cTykEyZ5djnjj+XpV/7YksqukzoIXKSJt4ckccn068UW6slxaWhDrl0bewmcMQFKhj6ZNeYeNo5Ir+MNhVljDBMcqBkDP5mvSbmT/SZEuH22+9FckDHIyM/iR+VeaeNLpb3xHcMmdkQWNQe2Bz+uazqbGlK6OVIqxZXLWlwJB0/iFMZajrBo2OoW489Q6tkHoRT1J9a5y1u3tn4OUPVa3YZ0mQMjZFQ0BYFSRj5qjU8VKhw4PaosM0rZcEVr2/QVmQEcEdK1LcjitIKxnIuxCrS1VjOKsKwzWxiydOtWFPSqynmplPSqRLJWOBXCeIGEmrSk4+UAY9R3rtpCAnPSuB1GTzNQllJyN5B+lTU2LpbmS0exsZ4p2NwqWdMcd14/DtUSna3PQ1zHQNVimR+BHrV9gHt/LU5+Xcue4/zmqkqE8gcUQz+UQTyAOParQmQHg5ooZgzk/pRSsM8qdcREL6YqF3RYwDKvHOBzUGA4+YlvcnNDp+5YjsM/hXRcyJwylcpESD/ExxXT+F4gYpHOMlsfL0FctHZySovmPhcAY612vh+AW+nxooOCSee9Mk6a3YqRW3a7j82eKybGBpSDjiuht4diAGkJl21G5h61oQPmVs/QVRtjtJq1BnOfemSasa8Zqwox0qpDICOvIq3G4IFMkkCk1Mi4pikVKtAiQdqlWoh2qVaYEg608VGKkFAC0uaaaQtigDP1q5Ntps8ikBwh259e3614rrWnzWkb3lizNdykNdwqdwkU9cD0zmvUfFk2+3jtlcqXbOV64FcVLbzwT2hhIa3VSk7OfnOPuke+SaiSub0nYradpY0y3C+cWjBJHmD5lBx8ufzFYXigEaWluttudXTBUksgwevr1/Wt/UCkWlzxPNsiAKKe5OOADzzVDS5JoImmuLiWaER7pFkj5jY8bRj+VTYuzT5jmriKxNnZ2Mhe0uPMCzKVySxHDHnpjFdla77G0hsVjlkSKLYZ1AwpAz0qMaLpn2iW+ktlZpcM3mDhfw7VaVds/mht0Zyc9Tz2x6U4qwpS5mY0Ly3Yu4bwF7dmzGhQhwAM4B9yBSXWj3IkW/09nWRguImPKjH9K3bmWRLSR7eMTSqMxqWxk+maydBvrqXzJtQZI5LiUiOHaQVx1/pVGsavK7xNa6sBqdpDHdSyxujK5aJtp3AfyqLXLx4jbWYDBJyB5gbBBB4walvb/7FAJFieZi6oI0IycnFc9rbCbUZmvnktoYQvlyEcOD0GPbmnewqCjKfvE+k6nLpF/cWl87TKGAJ67T1zXfwMrRgIBtxxivNNJ0u3snkfV5Xjimf5HLcOx759MVu6dqttY67eW0t8fK2b0ZmGxFHb6iqjIrFpNrlWvU2rjQ2kv5rmK7m85wqEAjITOSuT0zzV3bBbXcMl7IZJI5NkGByhYHCkDjkDirdvOkkUciOGVlBDf3h61mwXw11b22W2aGW0nXaZ1+UlWyDx9P1qkkcl29HsWBqFhceII0CsZJoNiyKp+bDHKnHAx39K5/W9IvdPvZNcsZDNMjfOsw2oUPUKa6iG6tbKR7dUZMOF+Y/IGbnjnIBz19ah1PzdR025ih37ZlKxrKu1lbOPy70NLcqEpJ6bGvp1yt7oy7xsMiBwOv4VjmGW2Dxs5eMMTGuOn19TWb4c1zfZJaXAMdzb/u5FIxyO49q2ri6Tcnys+7nKjOK0vdHVZx3F0mAiUsw6nNM1+wk1uxijt5VjxKGbd0I5zUyXBFo7Wpj89lKxebwu6q+m6pHO0Nq8RhuPLy6/whh1APc96WhnKpKMlJHEappUieILfTPPlZVxsQnhs8lsdOv8q7a10E2dtFFDeSKySGQtsBzngjH9a0f3bS7yo8yPjJHI/+tVC51iNluoLGWNruOEyAufkGPUio5Uh1sZOrFQJb7w/aah9j815U+yy+aojbG4+/HP1962AeOK8xutX8YfZLu8eNoYfLVMp0X/bXr19a0P8AhJbq+sraS3lmQ2iK1w7/ACl24GcemaSkrihhJ1HZM7iDUbWe2SZJPkYlRuHIOcEEdq5HxXp2L4z2yiaSQhmVhuCN0BPsavTtDremTX0zXMNsoMTRxYB2nG45rL0zUYZtaRpcx2ixfZyGHDxqOM47dKbZ1YelKk3JdNzofC2lXmlwTrepGHJADKc5A7+w56VpahdxaXaS3QgDgfPLtPIUdT7+wqeymimtx5SuqqANsgwQMZHH0qv5YkZWtCDHO7GaUP8AMAOBt/GqSsefVrOpPmkPtr55LJrm5iEK5LKucnZ2JHY+1c1NoNl4l8SW+spsm0/yiJSHPzspwq47Y/pW5f6escq6gHmeZGCsANwZT8pBUYzxWLq9+dHWfTYyHeWQSLtGxY4z0Ue/HX3qXZqzKownOVqW5oaB4TtNEa7Z2WczOdpYdEzkAj1B71j6he2vhJbuGLy7i+ldZIkdeIwTwx/+tXU2Mq6xo6SXMOxZV+ZM9RWf4n8PQa3prNAifbIhiJxjLY/gJ9KmSsvdKjVqQm4S+ZcGux3NvYtbBJlupPLZlfCrgfNg98U+KMRXX/ExSHfDKzWeBk7AOp96h0uykTQo7IW8dq8cWFYDID9Cfz5rVjtV8yOeYB7iNSAwJwM9cVSu9znas7mfexxTX8JuHWUMwMMToMK2Dg5PfGa5rxRcQJZTvJPKrPIYvMiyAGXLYx2znrXY31pHeQCO4DMNw4Q478c9ar3mmQa5pMcV7B5RDBsE8rzjr6kfzolG60NFU2uZGuJcT6JplsNk63CpumB6MBnPvkZrzy/tQt7ONzNh2G4jk89a9UuzHZQWOnW2XMP8PcKFIyfzrzq5JllaRvvNyfrUNO2pun7isYLW2M1XeGteVeCBVR4s+1ZuIkzNZNtPtZmt5gwzt7j1qy8VQNH1x2rNoZuwzrIgYHINWkYZ61zltO1u/P3SeRW1DKrqGU8GoYzatZQo2n8K0oJdrDnisGB+nPIq/HOCA1NENHRRNmrC1l210oUZPNaEcm4ZrVO5i1YuLUgNV1kApxk9K0IYl7crDbO7dFGTXAuSWYk5ya3fEeobEFqp+ZuW+lc+DwKxqO7sbU1ZD2+eEnuOD/Q1Wl+XBq1C4D/MMqw5zTZYQ25QQccg+orI0uMDAxgjkd6qSHZnuOtSREqzRt0NNmB2k45XrTBFfcN/Hcc0VG/I4opDPLioAOBio5xtidfYClaYbSAvOKa5LMAe7LXQjMsK9zLgINi9M4/rXoGmQhYYV9FHWuLj5dR6kV3Nr8qrj0qmQzqbEpHGB+laiSBgMda5q2lbI5rf08GZgMd6RJrWkBI3v+VX1gxGMdhTlixCAevqKlQ4HNMkgVSGHFXYuajHOalj46UwLKGplqBGGKmU0Eky1MtQqamU0APAp4pgzTgaAF71FI2ATUhNU76dba1kmc4WNSx+gFMFuebeKruW+1uaO2uHRoE2IFbhmwSR9RxVWwvPtcFqZU/eNHkgqRyOvtXNQJJd6oZrp3M11cyuAGxsBUnA7EkHr7V1lijR28SmTcqqFyy4bj1qLnRblOR16UDUroYkCI4fYASCx4z7CtGwaKDQ3lvpSI5mEeQc9Tx9Oc10U8ENxE8csasrjDe/41l6ppdveaU1jGWQR/OFjPORyAfxpHTPEqdNQsQWer2urrLbYaKTB3RPwxXpms2Sb+y9UitY5XmjkXy2ic5Kk8hsdx1zTLeG40nOoyKk07wJG8bH955hwBz2yMZrVabTp2ivXkhLL8ivu6MOo98c0zmS10J4GjsNPiWeRFwMEngZ9vSqf9uwf2jNEsiiNUG2U8qG/wA8VJfhL/T5oYvmfGUA74Pb1rlns9QiTZPafuSN3mhfmHsaZ1UKUJfHudRqLxW00N5HkfaWETSAjAB6HPb61m6hqCaZo8drdTteNOSfMkUH5CeQD0yK1i9vbW9raPlUcDCyLuBAHKn3xUGpMrW1vALUSZ+eNjEMJjk8HvjHFBz3SkL4lt9nheG2tbRp0UKFIyTGoHDe/wD9euE84vCsTIg2HAcDkg9j9O1eiaXqt1dvYswTyJ0Knja2RnLY7DoMVINC0a1M3nQxkTv5hEn8ODnAPYZpOLeqKjU5NGSeEru2hsxFA87xEjcJVO4ORzk9McDgV1zv5cTOFLYGdo6muc0+5sbm/kETRswwqhM/wjOT2z2rWS8LKror7RIUcEYK84z9B/I1tHY55Fe7lvb/AE0Sx2sUaNE7N5xO+MjkcDr06VlaVaXdvqst9JqJumZB9nnlkAjYsBkY+uQCPSuhFxNM9u9rLCbfJMh+9uHoDQ9jbkyBpmCSDbtJAC/7npzQ49QjKysQz6PILoX1skCXBOZFKlhISQPwFFy81hqZljVpxMQDDGP9WqgZx69auNdW2lWW65lSCCL5QzN1Hv7muJuPF9w3ioyWkobT14OE3Arjl/X/APVSk0jWMp1E1c3IYtUOqTvfPKIYmaSLbCPLPPykH1xjr6U1ZrmTUILmx05ppll8ueZmwqY4Y4zwcfmDUeh+JU8RmeykGyaMFgeglTp07dRVqfUoPDot7NLRijqXZlbofx6mha7C5ZX5N2VdZOqw62l/bqh8p9nku+A8R/i6j6UmoWS6quo2NtaxrHgSR3BbYrSd8kdQAfpWitvFrwgluQ2BGHUrwOvKkHvx+tV4baHRhBa30HnpPOVE4HyICeN3p1AoauaSlBJdzn7O61LT9Nu9PuBK0enTLieBuF3HH/AgPvYrR1DS9RttNN1fy+dPKVjkMK5DAcq3HTtXR6ZA9vJcWjW6R2o5UAl9xJOck/y9qiuPEcWly3H9qI0EKuBCygsWXpk46cikoW3CGLlTknEvWs6WugQLciNG2KsiMQBz1B98UtroVhZz3NzzsaT5QVwIx6D296jubWy8S6bA8M/7hnEm9By2OoPoe1TXWn3sviCwvIbrZZQRsskGSNxPQ+/b8qtmPtpuUtbXJ4LGOCG8jlleRpLjzGLHbgnGAMdhUeltpunJHpkVyHlBYqHPJ5yQKTxIrPpJaJZZJYWEoEJAfA64Paub0/xDFNqtnp32PLkRuspYsRkZO7HUgGk5WdiFDm947a2u7a9jZ7aeOZFYqxRsgEdRXFa1oWqy6q6QSNKLj595XooOduT07VpaYs2jyXVvHaxRWnms0AjYsZO7E9ecdvapfFHis+HTaxpbedJMdxVjgBR1wfXNErWuzfCVp0pPkW5sabBJZaTDA3zyRx9B69cf0rnra/m0SwspJNixTSbp40UlgzMeg+pxn2qvoPjO51GxnNzbxNcCZIokRtpfd7ew71ebwzcW8VulrqUgit23gOu8nqSPzPFJO+xlK/O+YqeIdeuJAbRU+zrxKHLYO3qCfStPw3e3l3pySyTmRZNwErY+XGMD3zn9KNU8OxavGrlgsxYCRyMkLjlfzrlL+efT4DaWZZLXTZizOerMT1P49BRdrc9SnThXoqnHRrc9NeQomVILA4/GsrV5XKSgpMsYVSXRSMZPPPTAFc6t3fW3htZ7CcS3dzcASO3IQkgAfU5FbfiBJhpUrPt/eQCKRQx+8SAMe3Jp3ucMqHLV5LmZo14txJe6kJJZA6MsRZcbkXHJHrmuauEBkYgYBPFdVYhbTw9bwuFje5OB7r3P5Vh3MaiVwmCgOAfWluE4qDaRjPD7VA0HNabxVCYznpUtE3M2SD2qpJDjkCtp4yRjFVnt8nkVDQ0zGeOn21y1tJhuUJ5HpU168NrGWdwDXN3N+9wxWMFU/U1hN9i0dvDcJIgeNgw9QatJcYxivPba8udPIliPyZ+ZD0NdbZajHcqOzY6GpBo34JGZ/vVvWsuEHNcxbTqGGTxWzbScjHStIvUzmjbWXPNJLcqgLEgBR1qp5u0bc9axtYvQYWhhfo3zn19q1cramajdmfqUjy3ryScluR9KjhIbaD9KS9fcsLD+71psPP4msL3ZstiWSZFl2kbSOKb5o8kPG2WQ5x3IqvfAifJ781CHKnINSxpXLrHO11xhhkH+lMmOVVx0IwaZbSBleEtgk5Qn1p+d0jwkDcOQPWgDPYYYjtRT5hkg4ooKPJguVGRUqo7yRbVJG7nitJIYkHyxqD64p4AHQV0pGLYW0TGaP/eFdpCMKPauUs1Juosf3hXYRR/KOaGyC5bk8c11mhhT165rkojtIrptCm/egdqED2O38keWB2xURhK1ZimR+F59akaMGqMyj5bA1IoIqfyzR5dADBUyGo/LOacAaALCHip0OarL0FWEoETA0o6GmijpQAGsDxXOY/D1+VBLGFgBnqSK3HbFcX401yKxjtbMp5kt3KECDqFzy34UPYqG5wGlahdwLb2uo2i2+59kLdzgc8f1rpI3ZlzxzyMdx2pWgjeZJGRWdM7Se1PVRyVIIJzxU2NpSUitZpcwwst1cid95IYLtwvYfhTXSOGZpWcIGJOD6455/Csxr27h1JrO8njhMkmYHC8Mo7c9+xrP1nWbzz3s/LW3C7m87aWO3HYenNAki5ewx3TERxxyrMSzFxnYQOHx3AIArAle5vdlhJHG8yPmMqgTB7n6EVrQ31rBMsAkRb6GP5hyqMNudoJ49DWZei7S8F2YjEHjyCv8IIwRn60HZhbczTGabdSQakAzny4iyyKTwAOtP1TVTczukE4NtgdOmabo2mPO6ziYusb/ALwucnj0rb8mx1WyeQW42yfIG2gMQDwfama1asIVU2YumXEuqQPC8rkkB0YjcUIPBH6Vv26XkN7HMyzSo8eJFEmQG+h7Yp9ra29pAY7ZNroNu5V+Y/49qZb3wnumiDP5sTEHjgjHOP5fjTSOaq1OTlEsNaTvd2kqRxKqtvcs3KHuB7EfzrRvQk1lKHLFCmCFBO4fSubvvFlvBbzG2QyTxMFMcgK8HvUln4h2LFI88ckcrgNDEhZ0J6c9BTutjncZbs1YIIdKSbybZMIuUcKd7MBwD696gfxbO8TRtZCN2XDK5yQe4I9KZp8utw6kbSUeZaJIVWbHzlcfLk9x71n6jHdaPrDiyLM8inymZM4J/maL6aHVhIU5SfPqbGi+ILOxtYNOgsXMm45SLoMn1J/SneLdOe/htLqPzlgibe4RuSW6ED1GP1rE8O3NtYS3MuqHF2oIWPGGbqTx611Nlqxu57WOKFJIJIzIihsMoXHJHrznrTTTVmY11GNS8VoVtdsBqOn/AG6/lnjs4rcOIIz824dC3vWH4c1zSLCxuYLi2kRZcJJKW3bgQR07AV3sP+l2ri4jOyQsuxu65xzXH3XgJVv7eO0aX7KxJllZgSnoAKUou90TSnBXTKnhbURZ+JEtPsFrGs+VWRQdwGMggnqDiu3u5dOvT5NzEZDGGdQykbtvXHr9KgtrG20a2srSLbJKCUiklXJzyTyBx3o1RJJLRjb/ALuX5R5itkLzzz2Pv71UU0tSoOMp32Mmfxi0eyOygREC42uPu+mK0R4gtL22hg8xXnlYJJGI9wJ/HjAOK425uY7CG6tvsaXFwCyrMM/JnqQO9X/CsSS3ouxM3mWo3CCNfv8AY/zoUjvxFGlGm2lqjr5JNXRrMNDC6OgWeMH/AFbD+Ieo/wAKwNM1GPUr25tr2GO6Ns4kVkbG9lOM4PU+wrsmHnxukkRwV6bhz6iqB0a3+2Q30VoFmjXaiZAWPqc8epPNOSbPIi97lu1We0vZY4oxJaSAyqQACshbkZ75HP4VoS30VvYteT5SJV3NjnArn9Onuljlhje3uLgTk3KCTb5GegHHJqLTfFVnMb20u3c+Q7APJHgSAHpjt0pp6FqjOfw7l/WtDj8QRpNHeTwjZgqrFVcZyNw/OsDRdGfQby9eeEXChxFFuzuf5SRgc8Hp7V01hr2n3ckcME2ZJOViC8qPfHQVaezSeUySkxmN/wB2R1X1I+vSplFN3J5pQ9yRX0C5H2YWvkyRSQRoXic5ZNxOAefQV5x4lu9RfXri11QSPHEzeSjfKOehBH4V3Wh6XqNjrep397cloZ+it22k4P0x0+tGt6NpniGayumvfLkXGwE4Dpu54PvxmpnFuOhrRmoy1OY8F2VtqniE3b/u5bRVfy1QBWbkbvb6V1OraxqtpqEUMOn+ZBvAdgc4GeuR0qewS10oSSWdjKiXV0fMJ7f7Q9FrTMLPOkjoDjn5T0Izgn1604RajYbqr2jckOiHlLM0UXJOQvTJxXnV9pOpT30dvcxtGt1Jv27s7iD3x6V2WoeI4NJ1Jba7Ty4XTcJy38Xpil0p1u79r6K4SW2lj3qjDJVs9Qfp1qpWehrhcU6XM7blrTNNg0yygtpAsr7927GRu9f0pniGwn1CyWCAEktubn0HH61oRxRmeSbJLbv4ugqq2pwwWtxPLKrCIksEOcLnAqlZHK6snU5+pl3djHf63bW4cOlrGF2qcbARycd88CsmWEK7KFO0EgZ9K2LW2Fvc3N/bFDcS8Pv7qPT37/hVGROT6mkkVKTluZrxD0qHytx6VpeQzHhc1BdTW+mQme6cIo6DuT7DvSk0ldiRTa3AXcxwBXMatrsUBMVqBJJ0JHQfjUer65c6kSsGYYM4wDyR7/4VjLbe1ck6jexrGNtypK01zIXmcsSe9KkHPSraxZ+lSrbnPHSszQqGENGyEVZ0sMyLn7yZU/UVcW2+Xp1FLYRiHUZIT0cbxn8j/SgTNS3ZwOeTWrBqBhjAwfrVFEC5P6UpweKadiWi7LezS20hDnf9aqbt7YJ++oPPrQm7BAPOPzqIN/q89OhNO7YrWHv81r1+436U2FyOe2akHWaI9SMj61HajeCPTk0ALfvuMZPXFUycCp7uZZsBQMqSRUDDOSKl7lIZvwRg1O1wSY5c/OvB9x61XxmkI7j6UDL06bmLDlX+YGiq8EjYZSeByAaKZJ569zGhZeTj0FVm1AiXYkeflz+NV/OAYkr2pn35nOSoCjOO9bmRq6TdyTarbg427u1ehQlRwa8202VY72A+jD8K9BtyzsPWldiNIKD0q9YXH2aZW96qQxHHNTi3Ynii7EdrpF2Z1Yk/Q+tb0cuVAJrkdDzHD+NdDHLgDNaENGnkUo5NUVnBPJqUTj1oJsWtvFLsHYVGkmQOalVs0AKBT0pgNOU0wJs0E8UgNNZuKAIpnwprxvxravqniaK5aV0tEUxvKv8Ayzwev416P4p1Y6bo80qDMh+VQBnk/wD1q8ktdWkmtX860kmgdywkVuQuepB757e1SzWmnubGbl9Qt3F2TZMgRQed5xznvnvTRPqaW0os7UI8UhRRKc+ao6EcjFV4Luwu5I7aBjEUYyxuT/EScg565rQ+zT/bI5xcttVCpVl6nHBP480jSVNwdmJqlhb3y2sl0SkkTgoVbhWPr68ioYLGO4DSyTb2kwzIQOD05/CpLyWaO2Uy3EUWMkgrkPj+XFZ9mbvTbaT7VdJdODlFOA3UkAnHPb86Y+XTTcnfQY5r+G6eVsRElYwBgHtg+3p7VoNbx/ZzAyBoyMEHvUcdzLPOjL5XkNHyOrBvYjgjt+FSSlTGVbOD1INOxm5MjgtobWIRwrtX+vrUcNsYYNocGUjmTaBk+uKcbhWCmIg/Ntxnn/IqtLesIVZcCQOFZT0PYj/PpQVZy1Zms0kesOZbmS2lAGWVS6OMcnnpz/KtR75bK1jlvFxITj5B+v5c1X07UotRmkBiCso4JP3lJ4x6jHP41neIbW8k3PCrSQonQfwjvQa00pSSlsU9V26lrO+GRRblNkhPy5HftVjwxDBFBKbuL7POx2RXDEgOTkcD1HrWOkibYlhibAUmSQnO89h7YrurK1tZdLtfO2MF+dWJxg98Uklc6MVTUILlLGn2N5ZNcTzXr3j+WFjVlxwMnBx3rYt5IrmRgUO+LBww9RnI/lXLaNBrFnfX91fFnibAjTfuzzxgduK2Yrp76bdaSRoAjBC5++2fTrgVotjhUJN3Rjaj4ZvLu8vrm9kR3kIS1YS42kngEY6YrQ8L6JFb/aYJ1IvICqmVWOFJGRtz9ee1XLK9t9alubeeBWWIbPmz8655P5jithstA6WxRJCOG9KSgr3CUm9GC295Hpzwx3MZuuSkrR/KDnPIqeS5jt9qzON5XcQo6gYycenIoMqIVV5EDNwASBk+1c/P4k0dtRS0uXaO4bMZYHhQTjBYdOR0rTYzUexpa3n7MhAeSNjyqoWGeoOQQRWLdrp1o9rcz305mhj8t4gOW35wWTv1A/nXWMFdMMVx3B6VxMV9Y3Oqyy6tbQs9uT5LheRg9Pepkb0KUpptdC9oyWlzaH7bYiK+lDoVIKlxyMgH7pI7VDo2lx2TX9hbzbZSMSPu3ELjOQRjBGcYrpI4ba4AuUVX3/MG9eMZ/Ks208K2trfTXKzygTKVaOMlFOaTiE6vRjfBskgsJnmv2uIt4WMOeU9jXSTXSQ43Kxz1x25xXnWvWiw61Do2kwC38+MMxjJO4jOCfQD+uanstZ1TTPFsWnXLLOriNH8wjPIHIP1z9aFJLRkU6aldmrcXVzp8l1Y3sKzX145NmIUy21TwWbqT359KwLoXUDTLcRyS3II3F3+4O+fXrXaXGuWKXRcQeZJA7J5m37rYHCn3yAasWdjZNeyXpDO9zkMkg4X+9+vFK1zrwuLVOLujlbSIafL5FvmLU9RtCUd2wsQBPXuCQM59q1PDL6zLfW8Es9vJa2iFJT5okMpyTkd8jPH0qr4r0jUbiW7vWZfskUIjhji++5z/ABcdMk/lW3oPhaw0q7XUbdZYpZIQDEWyq5Az79aST5jCrUjK8urNe+MhmTy737OiI7yKUBDDHByfQ81kWwjhtUWPN/NbQh/tTp95Scnb2PqB7VvXVvFeWc1tOMwyoUcZxkEc1WgtWt4raC0crawBQmGB3AdQa0tqYwdtSnp1w9nZL/aF80ohLSSTt8qnOCF+mGGKlt9cF1B59rFNJG77FLrgA56/THNWNWsn1CwktVdY1lGx2K54/wA8fjVeGyk0+3SQMWkU/OS2FKk8nHQHH8qWqYScWr9Srq2jxapqFzLdlWSGEGJSc84OSR39qn0u3On2kdxe3a/Z0jCxAps2g9S341LHaW8F/PqEmftjIEJ37tqjuB+X5VQ1ZZLk2s5Iu7J0ZJUj6MDxkY6//Wosr3KpJyai9jbN0W00XCsqoy7i2OMfSs2C0M73JiVI0lQKyEcB+4Htjn8amS2lmzbSOBbBleMg4PGMLj6dapahd3GklkBLu7AQ7sZZjyT9BwKdyowbk1EllhvBPA8jRiNYyjBf4z6/pRKkcMbSzOEjXlmNO1PV7OxhiaYh5gOI1OSTiuG1PXL7VmkjLeVCCCqJxn6nvWcqqiQoNs2Nc8Rw2cAS0AeR14x2+tcTOZry4MkzliDwOwHoKtmDdCPqM5p5iXCk+mPpXPOo5m8YKJni3K9qesJJxitBYeox0pyxdx2NZjM0WvzFccGrCWx2Dj61deH5w3YjNSIpHyUwKywgIh9qqXwFvcW9z0VXAb6Hg/0rUCfKRUF3AJrWSMjqDQInx1AoAyQOhqLTZRPaI7dduCPccGrDLk59eaBXGxnEgzULJ+7kUdVbIqWT5VBPX2prYMvPRhQIc7AywyDncMNSQDEsq7trbTg0wcRZxyhpyuoug3VWFMCkR81SRjNPUZZh6GmkYBHfORSsVcYFww96XYAxU0+RcKCO/NI4BK4+8e3rQK5WkUo4PY8GippUygOOnWigdzybru9aTeyTtwdmcN7cVYVPlPHVvTpUQLOHQnCM+ThSc10NkctkSqF6qcEd69H8N3SXltE7ldw+VgD0NeZiFCeVlP0XFdN4Tufs1zJAqyKrDcN3TNTdENHqq2y7RtPardrZh2x1rL0+/WVVRzyOtdTp7REccH1pkklvai3XGeM5q2GJpuQcipYgMjNMlihX9DTgGHY1aVlAoLLTENjYgCraNgZqqACeKnU1QiYNzUimoAakWgRNuqGSTqKVmwOtY2v6mul6XNcnkqvyr6t2FAJXOL8a66YtQVSu62h4Zg3IY+1c9F9juItyELDct8u1cAnv+JqEeZcwsJ382RsuQfmzyf8A9VS2lh9ntI44yOXDsAMfl6VD1OyCio67mHc2lxbXhiER8rfhZMfN7V1kFxJBGsTxyybXC7idxYH+Ks3WL7ybTYrOsrH+E4IxWTbaldWl2lzPJvjlTCpu5NB1SjKvBSZ1V5CJLZ4jLtVg25n5x3/x/KqgS7a3XMUTJE2UZSS0qbcfn0qXT7+PUIXYpt2nDKxyKWXdL5clvcGJY+WXbww9xVHFKMoOz3My1jlkhhh0xpoLNWzIXwHk3HnB7YweKvW15a6k08MVz5jRHay47dD9frSanH5ujXDWjIjkbw2duMck59a4i2vJ47yJ9PidLkgZwd3mevHv1qWxpXR3X2SKJgYovnifIJY856/p/Kq92jKk52RuZs4Usccd/wAufwouZ719OgKoUuJNu8Dqvriqk1w32V7BA8kixlA5wMsOp+nP61QRk0rEgvbc3cEsQSNdwieQjk56Ljt9aSwGqvNPb3UQktmLIJC4GBk847mqNmkyWKCa23hJFYKCSzuOuT6ccVRvZ9UfWmitjNEZeUj3YGPz/HNS3YcVrY17jSrKC0jguLzY5lO+RRjPHTHbt+db7RwQ2kESSxoi4RN/zA54I+vWuT0AXE8t1ZXkL3CFjvcuDtPfvznj8q2oLI21gmnxbnlR1n8uVsbhuzgY9MVSY6spPRs3o4ZYLVEgYO8YwFPAb1J/XisrUtH8hJr2JI45oAGt5S7cZPOQKoXmsaheQQm1tru0lE/P7stuUep7D2q7Lb3NlbYvNaElu5O+J15bI6Ke3OMCquKi7O3clfULm70Wa7R0juYlCSYbCuPYdiTXPafreraPH5zs3kSvjoMFhj+hqvDMI5HFyZPKOG2xHB4/T8Ksx2c2rGGCESJHJIBgjO33P4VDb6HpTw0Ips6CErq3iaG7Y+Yk0PyLJH8hUdcHsQau3Phy1sp5LnTRb/aJJORcjeiZ6AehJ7mq2maTFaSS2UF7NLLEoUlkG1QeW2/nVu3nsmu455njltowsaSxEvmQHkvjr1q1ruePqtCTWbXUpdIf5yqRHcd8nzOMcg444NcW4WSA/wCkbZS3yqB8xGOT6V6hqF7aWNqZL2WOOFvlO88HPb3rmJJdA0HUA77s3IGxioZdp6kH07U5HfhMT7ODVjV8JyK2hoA5Yhzuz0H0qymqXg1a7tnsj5ESBo5QSd/f0/ziqsD3w1gQwxxRabHHkbQPmz0wKdcvc6a13ey3iNB98Rspyqjtmnsjkre9O/co60NceVVtmiikuZDFGV6pHjkk+px+tOsvBscywXGqSO14nDtE/EgB+Un3xxXK3/iXUdS1AHTZZYl3cKnr2J9utbPh3xRq154hSwunhniYlSyDAGB94f571CcZMbjKMdDqL7RpJpbc2VwbWOMsXVAPnycnNXjewwbbieZYlEe1wXHXPp/L61BfalHDaNLDNGyhsOyOMr9PfPase1P9q2sVxqGnxSz7wwEOeeSPm9gKvZkRpuUbl2y1kzeKriJ7xVtUXCKTgE+nsc1uXt1ewS232S3Fwsj7ZFJ2hB3Yn+lYbeEtPmuUuoZXXL73wchx2FdFJNFD5avIiNIdqBmxuPoKaNMQ6crcm5g+I743czaVDNJBL5bSGQNgY2k4P4VleFNbubaBUfM1osZdiByPQ/n/ADqjqxTVtSd5Lh4ZZZDbxIykA4wCM+hJ6mpL/U5/CsaaObeKKCaPm5A3EZ6nHfHpUOVmdyjTVDkja7PRYJxcwJJtxuUNtJyRUJjuzqTO8sf2DydvlEcl89SfTFeb+Dp5v7U8sXlxI8QCRIQdpTknv79PfvXqIO6MbwBuHKmqjLm1PInFwdjA122+1I6qZLdXGBcA53blPA9Bxya0dMjhsLQxSRpFFFGPn/hIA7DsO/41Zk2RxyeYFMAQYTb6cn+nFcxqWpPrPhG5nNvJBF8xKRnLFBjaD6Z4oempUU5IyxcXd3rtrdTSubG6vS9qqvyVXgY9Aep+lausC4uNUNxNsWGEcZHXALAf41H4aF2NOS+1AIsaqEtkKj9yBkFgPfgfhVfxDcNFbC2aRpJWIdyewPas7tRudUZ2k7HNTTST3PnuxYls5P6U9YgjHHIxke1MQfKKlPEnXqOK5W76sBgUeQwxz1/WkUBhUi5YOO5Xj60xM7d3oAaQxyHlGx1xmnYwDjtTcbSV9DxUq4JOehFAgxvhT2oxgrnrTocGIr3Bo4Kn1FACAfN9RmgjcGUjt1pM42t6GnMelMRn6cfKu7m2P97zF/Hr+tX25fjpWbdf6PqME/RWPlt9D0/WtBjhs0CGSN8mOvamMfkVh0FSOCc8cGmY+V0/EUAKpC78cgrURH7lWHY05Tgqe3SgL+6kTupzTAMbZgP744p0iCN1Zj8rDn2prYaGJ88jv6Ul7NuBU9S2ce2KBCiRPJbceFP6VSllLMuD93oad/yzIHSomGMUmUkTC7BXDqc+o70VXKUUrhY8+kdehYfhTbNJfJwIZC2SeBWjlVgjZIxHuBb5R1GKlgM0twqF/lXPXqeK6nG+hnzlNba7Y/6tVH+03+FXLGCa2vIpnkX5W5AXqPzp9zK8LOAURUC7mZS2c9AAKW3LPISzBlKZXb0qVBIOa52lrKQQyH6V0Wn37qQSa4rw/efbtPR8/OnysK6O3cDimQzs7S582POa0UOQMVzOk3Kn5e9dLbsDtoJZOCwwMU4ZPY1Mqg9qeABTJI0UmplBFAGKUHFMQ8GnbsdqiB5oL8daEAruBnJ4rx/4m+J1edbG2mO6FuQOhbPP5D+dd14r19dJ0xxGw+0ycRKe3qfwrwu/06acyMp3F23nPXPc0MuCV7s0NLvZpmklEhEgbDxk8LW1PqE66e9wp8plccHkEZ6fjXMaCnlTsrhlkZeQxODzwQPzrcSGVYTumB6gtjqM8cVJoy01/Y6rZhmCs6jLoCQV9e1ZKaFcS3AmhyydUbPDDtzWk1iTdR3MQDSKp3CPC7vp+da1l8loqmIxAZG0mlubU67grIzpJbrTtFMm2OKUE7vl5x26d6t2F08mktdPEYpdpysrEg46HPpzT1lucDfGjgnpGM8Z7+nBq0x24GCQeOO1UjKU3J3ZmzX00EcaFVklkTcIx0wOp/Wnw22n3U8N+sSiVVG3BwB6cVna2ZLS1jt4Z5PMP3nbByvoax3k1O/uRGpEjbcKwOMY6H680maqjJx5jo9duHtkgkilCOrcof4h/wDrrDgup7bUxczF95ByD2B7inrueNtOlTfdW8Z2ydR1HGfXrVq10E4WWZxy25lzuyKLm9L2ahZ7mj/aSt5sCyD7QrBVyeTnvioL3QmuxNcrK32uTbsLHATGOmOlU7uTT5761vd5jkjIBj2Z3e5rRbV2WXYrIzIRvyCNwPcUWM3SlbRWLFtpMNjdteQCRp2X95EpwrdMkfzqxfPcSQ/arNkMke5RhQxHODz247VEmoR21qGvZUWcZOMcgE8cetLc6gItOlvLQx+Wg8zgYyc8gj3qlZGShK12i8l2qaaf7TlSNZBtLFsBsjtVJLHTobpYxpzTxwxGTz5GJz3GPU+9UdTeC/u9MkvAVgdSUGDsZj+vT1rUm1C2snjWZyI5DsaMHgHjke2McUzKKa2LkOh6fau0si71YcLKRgA9q5m+1mwhjutPtBcWsryfNOX4QqenHOK3bqGCG3uLq5ika3hYuMMTuXHQDsM/5FZN1JZ+KrJhpzR280ZDyCaMBmHQfMO1KXkaqrN6SZbs9Vt4obKGC5M96xIHlL96QnBY7uxH51tRJcR6dJHplrFDJLOVJVCoQ8ZYj6/nXO2+jW90bFFkdprUBHmU4DYOf0PGa7O5tdSXy721miaCMfvoypJ29cDnBNON+oSp3V0Zfia0uNa0e3htIo7qVZcNKHACEDBP59q5qJpNQaLTrW0SLUbFNqGfDBsfeHPTnkV2zyTy2M00ERiVW8whR8zrjJ+hqharHIYdViiETuMSeZHiRhnjJpuN2JXirFixt7pBFcXe0XOwbyCDlgDxgcVSu2u002WGC0W4m8vYIpAWJ3HnP88Zpvia5kax8mCQrcEhkVD85pdL8+2866e/uLmCNS7LIijJxnA7jjmm30MnBr3jBsYb/wANhYHtVlnvzkQDO4Ae/br0rqPDtrf6dYTtqltBEzMCDGi8Keu7HatqEiVY5pI1D44xyQD71nTapf2huGaz82KLkEHG4e3viko2CVRy0Na1tLT7OqpaRIpO/AjA+hxVbXF1ZdPC6KkPmnIbdgYHt2zUdjeDV2s722JEWMykMRzjG3Hfk/pTNS8SW9pJLZxh/teMKGGACemT6VY4Rm3yxNDQ7U6dZi0y7BfmLvJuJY8sPYZqC/muJptka26X0QJt953KueMnv/8AqrE0TUtWbUYrNikmGLysxB2jHODXRy2tpPqC3BRDKmELq3JOfusB/Wl0Lr0nSlaRlx6g154ottNktxN9nUtcSeXgCUAEMD/nrTfEHhFdeu1voLxvMLhXDEFQg4O33q3fW2oXd5HchI0jimVG+Ygsg6sMd+e9X9A2CymSMIFWZwDHnBHbr7fyqbJ6MjmaV0U7OLTdFul07T0Z55X85wo3EcYyfQdataxrFnaWk8bTtK8y/IiMMqCMcHHHrUix20V3JKZFinZtrfN8zj+Hj09K469025t7jUrS0ijTEZYySNkKnU8njJFF+U2w1KFVuU+h1Wian9ttpPkEenRoIYy5Jd8Dkk/pWnY29tYWghij2xZOBjr6muU8PR6hdzwxXcLW2npANsanhzwdxP4iunv7qWDyra1QtJIfmc8iMep96cXdXMKllJqOxV1eVk+yw22I3Jyyj+FO5rC8T2iRv9oQkiTG7JzzW40AbUWuQ5IlAH4Djj2qLxPb7tG3qPuEVlPU0UtkjhE+6OOlTOPmjJGM8GkLALGSOCMH8adMcxI3UAjmuY1Gx/LIo7ZK0kPybl9CVIP5il+67fUGlkYCRsdWUMDSuA09WHqMj8DSr91SPenqAShP+c0xCVVl9DkUxDoiVkPoRT04kIPRqYTgA06X5QpoAFUYKUdR9RQfvBh0Iz/jSgcEehoEUdSgM9m23hwMr7Ecip7WZbi1imH8SAn+tSPyGX2qlpOI/Ptyf9VJx/utzTQFskKNpOcH9KaPkkUnkdKJQN2R+NMzlNv93kfSgQnVWHoaRj+9DZ4dcGgMAxx0Yc5pu4FQCOQevqKYDMkRkZ4B6Uy4BOxj6dam2hZmQ9GFNb/UqCOQcUAVznbj1ppySM1OVyMHscVGRjr1pNDEYfKaKGHRu1FFguf/2Q==;rotation=0;" vertex="1" parent="1">
          <mxGeometry x="114" y="-4594" width="249" height="332" as="geometry" />
        </mxCell>
        <mxCell id="HnorNMe7MBEDUzYWuFHN-46" value="" style="endArrow=classic;html=1;entryX=0.5;entryY=0;entryDx=0;entryDy=0;exitX=0.664;exitY=1.014;exitDx=0;exitDy=0;exitPerimeter=0;" edge="1" parent="1" source="HnorNMe7MBEDUzYWuFHN-14" target="HnorNMe7MBEDUzYWuFHN-16">
          <mxGeometry width="50" height="50" relative="1" as="geometry">
            <mxPoint x="627" y="-3965" as="sourcePoint" />
            <mxPoint x="823" y="-3822" as="targetPoint" />
          </mxGeometry>
        </mxCell>
        <mxCell id="HnorNMe7MBEDUzYWuFHN-49" value="" style="endArrow=classic;html=1;exitX=0.25;exitY=1;exitDx=0;exitDy=0;entryX=0.5;entryY=0;entryDx=0;entryDy=0;" edge="1" parent="1" source="HnorNMe7MBEDUzYWuFHN-14" target="HnorNMe7MBEDUzYWuFHN-15">
          <mxGeometry width="50" height="50" relative="1" as="geometry">
            <mxPoint x="553" y="-3982" as="sourcePoint" />
            <mxPoint x="603" y="-4032" as="targetPoint" />
          </mxGeometry>
        </mxCell>
        <mxCell id="HnorNMe7MBEDUzYWuFHN-50" value="BottleNeck" style="rounded=1;whiteSpace=wrap;html=1;fillColor=#dae8fc;strokeColor=#6c8ebf;gradientColor=#ffffff;" vertex="1" parent="1">
          <mxGeometry x="659" y="-3930" width="80" height="30" as="geometry" />
        </mxCell>
        <mxCell id="HnorNMe7MBEDUzYWuFHN-51" value="" style="endArrow=classic;html=1;entryX=0.25;entryY=0;entryDx=0;entryDy=0;exitX=0.5;exitY=1;exitDx=0;exitDy=0;" edge="1" parent="1" source="HnorNMe7MBEDUzYWuFHN-15" target="HnorNMe7MBEDUzYWuFHN-17">
          <mxGeometry width="50" height="50" relative="1" as="geometry">
            <mxPoint x="575" y="-3772" as="sourcePoint" />
            <mxPoint x="821" y="-3872" as="targetPoint" />
          </mxGeometry>
        </mxCell>
        <mxCell id="HnorNMe7MBEDUzYWuFHN-81" style="edgeStyle=orthogonalEdgeStyle;curved=1;orthogonalLoop=1;jettySize=auto;html=1;exitX=0.5;exitY=0;exitDx=0;exitDy=0;entryX=0.5;entryY=1;entryDx=0;entryDy=0;" edge="1" parent="1" source="HnorNMe7MBEDUzYWuFHN-56" target="HnorNMe7MBEDUzYWuFHN-57">
          <mxGeometry relative="1" as="geometry" />
        </mxCell>
        <mxCell id="HnorNMe7MBEDUzYWuFHN-56" value="&lt;font style=&quot;font-size: 30px&quot;&gt;&lt;span&gt;BottleNeck&amp;nbsp;&lt;/span&gt;x2&lt;/font&gt;" style="rounded=1;whiteSpace=wrap;html=1;" vertex="1" parent="1">
          <mxGeometry x="520" y="-4312" width="250" height="40" as="geometry" />
        </mxCell>
        <mxCell id="HnorNMe7MBEDUzYWuFHN-80" style="edgeStyle=orthogonalEdgeStyle;curved=1;orthogonalLoop=1;jettySize=auto;html=1;exitX=0.5;exitY=0;exitDx=0;exitDy=0;entryX=0.5;entryY=1;entryDx=0;entryDy=0;" edge="1" parent="1" source="HnorNMe7MBEDUzYWuFHN-57" target="HnorNMe7MBEDUzYWuFHN-58">
          <mxGeometry relative="1" as="geometry" />
        </mxCell>
        <mxCell id="HnorNMe7MBEDUzYWuFHN-57" value="&lt;font style=&quot;font-size: 30px&quot;&gt;CSPx8&lt;/font&gt;" style="rounded=1;whiteSpace=wrap;html=1;fillColor=#dae8fc;strokeColor=#6c8ebf;gradientColor=#ffffff;" vertex="1" parent="1">
          <mxGeometry x="540" y="-4374" width="210" height="40" as="geometry" />
        </mxCell>
        <mxCell id="HnorNMe7MBEDUzYWuFHN-79" style="edgeStyle=orthogonalEdgeStyle;curved=1;orthogonalLoop=1;jettySize=auto;html=1;exitX=0.5;exitY=0;exitDx=0;exitDy=0;entryX=0.5;entryY=1;entryDx=0;entryDy=0;" edge="1" parent="1" source="HnorNMe7MBEDUzYWuFHN-58" target="HnorNMe7MBEDUzYWuFHN-59">
          <mxGeometry relative="1" as="geometry" />
        </mxCell>
        <mxCell id="HnorNMe7MBEDUzYWuFHN-58" value="&lt;font style=&quot;font-size: 30px&quot;&gt;CSPx8&lt;/font&gt;" style="rounded=1;whiteSpace=wrap;html=1;fillColor=#dae8fc;strokeColor=#6c8ebf;gradientColor=#ffffff;" vertex="1" parent="1">
          <mxGeometry x="560" y="-4440" width="170" height="40" as="geometry" />
        </mxCell>
        <mxCell id="HnorNMe7MBEDUzYWuFHN-78" style="edgeStyle=orthogonalEdgeStyle;curved=1;orthogonalLoop=1;jettySize=auto;html=1;exitX=0.5;exitY=0;exitDx=0;exitDy=0;entryX=0.5;entryY=1;entryDx=0;entryDy=0;" edge="1" parent="1" source="HnorNMe7MBEDUzYWuFHN-59" target="HnorNMe7MBEDUzYWuFHN-60">
          <mxGeometry relative="1" as="geometry" />
        </mxCell>
        <mxCell id="HnorNMe7MBEDUzYWuFHN-59" value="&lt;font style=&quot;font-size: 30px&quot;&gt;SPP&lt;/font&gt;" style="rounded=1;whiteSpace=wrap;html=1;fillColor=#ffe6cc;strokeColor=#d79b00;" vertex="1" parent="1">
          <mxGeometry x="580" y="-4504" width="130" height="40" as="geometry" />
        </mxCell>
        <mxCell id="HnorNMe7MBEDUzYWuFHN-60" value="&lt;font style=&quot;font-size: 30px&quot;&gt;CSPx4&lt;br&gt;&lt;/font&gt;" style="rounded=1;whiteSpace=wrap;html=1;fillColor=#dae8fc;strokeColor=#6c8ebf;gradientColor=#ffffff;" vertex="1" parent="1">
          <mxGeometry x="595" y="-4568" width="100" height="40" as="geometry" />
        </mxCell>
        <mxCell id="HnorNMe7MBEDUzYWuFHN-69" style="edgeStyle=orthogonalEdgeStyle;curved=1;orthogonalLoop=1;jettySize=auto;html=1;exitX=1;exitY=0.5;exitDx=0;exitDy=0;entryX=0;entryY=0.5;entryDx=0;entryDy=0;" edge="1" parent="1" source="HnorNMe7MBEDUzYWuFHN-60" target="HnorNMe7MBEDUzYWuFHN-68">
          <mxGeometry relative="1" as="geometry">
            <mxPoint x="901" y="-4548" as="sourcePoint" />
          </mxGeometry>
        </mxCell>
        <mxCell id="HnorNMe7MBEDUzYWuFHN-72" style="edgeStyle=orthogonalEdgeStyle;curved=1;orthogonalLoop=1;jettySize=auto;html=1;exitX=1;exitY=0.5;exitDx=0;exitDy=0;entryX=0;entryY=0.5;entryDx=0;entryDy=0;" edge="1" parent="1" source="HnorNMe7MBEDUzYWuFHN-68" target="HnorNMe7MBEDUzYWuFHN-71">
          <mxGeometry relative="1" as="geometry" />
        </mxCell>
        <mxCell id="HnorNMe7MBEDUzYWuFHN-68" value="&lt;font style=&quot;font-size: 30px&quot;&gt;CSPx4&lt;/font&gt;" style="rounded=1;whiteSpace=wrap;html=1;fillColor=#dae8fc;strokeColor=#6c8ebf;gradientColor=#ffffff;" vertex="1" parent="1">
          <mxGeometry x="785" y="-4568" width="100" height="40" as="geometry" />
        </mxCell>
        <mxCell id="HnorNMe7MBEDUzYWuFHN-91" style="edgeStyle=orthogonalEdgeStyle;curved=1;orthogonalLoop=1;jettySize=auto;html=1;exitX=1;exitY=0.5;exitDx=0;exitDy=0;entryX=0;entryY=0.5;entryDx=0;entryDy=0;" edge="1" parent="1" source="HnorNMe7MBEDUzYWuFHN-71" target="HnorNMe7MBEDUzYWuFHN-88">
          <mxGeometry relative="1" as="geometry" />
        </mxCell>
        <mxCell id="HnorNMe7MBEDUzYWuFHN-71" value="&lt;font style=&quot;font-size: 30px&quot;&gt;CSPx4&lt;/font&gt;" style="rounded=1;whiteSpace=wrap;html=1;fillColor=#dae8fc;strokeColor=#6c8ebf;gradientColor=#ffffff;" vertex="1" parent="1">
          <mxGeometry x="947" y="-4568" width="100" height="40" as="geometry" />
        </mxCell>
        <mxCell id="HnorNMe7MBEDUzYWuFHN-87" style="edgeStyle=orthogonalEdgeStyle;curved=1;orthogonalLoop=1;jettySize=auto;html=1;exitX=0.5;exitY=1;exitDx=0;exitDy=0;entryX=0.5;entryY=0;entryDx=0;entryDy=0;" edge="1" parent="1" source="HnorNMe7MBEDUzYWuFHN-73" target="HnorNMe7MBEDUzYWuFHN-76">
          <mxGeometry relative="1" as="geometry" />
        </mxCell>
        <mxCell id="HnorNMe7MBEDUzYWuFHN-93" style="edgeStyle=orthogonalEdgeStyle;curved=1;orthogonalLoop=1;jettySize=auto;html=1;exitX=1;exitY=0.5;exitDx=0;exitDy=0;entryX=0;entryY=0.5;entryDx=0;entryDy=0;" edge="1" parent="1" source="HnorNMe7MBEDUzYWuFHN-73" target="HnorNMe7MBEDUzYWuFHN-92">
          <mxGeometry relative="1" as="geometry" />
        </mxCell>
        <mxCell id="HnorNMe7MBEDUzYWuFHN-73" value="&lt;font style=&quot;font-size: 30px&quot;&gt;CSPx4&lt;/font&gt;" style="rounded=1;whiteSpace=wrap;html=1;fillColor=#dae8fc;strokeColor=#6c8ebf;gradientColor=#ffffff;" vertex="1" parent="1">
          <mxGeometry x="865" y="-4483" width="100" height="40" as="geometry" />
        </mxCell>
        <mxCell id="HnorNMe7MBEDUzYWuFHN-95" style="edgeStyle=orthogonalEdgeStyle;curved=1;orthogonalLoop=1;jettySize=auto;html=1;exitX=1;exitY=0.5;exitDx=0;exitDy=0;entryX=0;entryY=0.5;entryDx=0;entryDy=0;" edge="1" parent="1" source="HnorNMe7MBEDUzYWuFHN-76" target="HnorNMe7MBEDUzYWuFHN-94">
          <mxGeometry relative="1" as="geometry" />
        </mxCell>
        <mxCell id="HnorNMe7MBEDUzYWuFHN-76" value="&lt;font style=&quot;font-size: 30px&quot;&gt;CSPx4&lt;/font&gt;" style="rounded=1;whiteSpace=wrap;html=1;fillColor=#dae8fc;strokeColor=#6c8ebf;gradientColor=#ffffff;" vertex="1" parent="1">
          <mxGeometry x="865" y="-4405" width="100" height="36" as="geometry" />
        </mxCell>
        <mxCell id="HnorNMe7MBEDUzYWuFHN-136" style="edgeStyle=orthogonalEdgeStyle;curved=1;orthogonalLoop=1;jettySize=auto;html=1;exitX=1;exitY=0.5;exitDx=0;exitDy=0;entryX=0;entryY=0.25;entryDx=0;entryDy=0;" edge="1" parent="1" source="HnorNMe7MBEDUzYWuFHN-88" target="HnorNMe7MBEDUzYWuFHN-131">
          <mxGeometry relative="1" as="geometry" />
        </mxCell>
        <mxCell id="HnorNMe7MBEDUzYWuFHN-88" value="&lt;font style=&quot;font-size: 30px&quot;&gt;Conv&lt;/font&gt;" style="rounded=1;whiteSpace=wrap;html=1;fillColor=#dae8fc;strokeColor=#6c8ebf;gradientColor=#ffffff;" vertex="1" parent="1">
          <mxGeometry x="1097" y="-4568" width="100" height="40" as="geometry" />
        </mxCell>
        <mxCell id="HnorNMe7MBEDUzYWuFHN-90" value="" style="endArrow=classic;html=1;entryX=0.25;entryY=0;entryDx=0;entryDy=0;exitX=0.75;exitY=1;exitDx=0;exitDy=0;" edge="1" parent="1" source="HnorNMe7MBEDUzYWuFHN-68" target="HnorNMe7MBEDUzYWuFHN-73">
          <mxGeometry width="50" height="50" relative="1" as="geometry">
            <mxPoint x="911" y="-4546" as="sourcePoint" />
            <mxPoint x="1053" y="-4496" as="targetPoint" />
          </mxGeometry>
        </mxCell>
        <mxCell id="HnorNMe7MBEDUzYWuFHN-133" style="edgeStyle=orthogonalEdgeStyle;curved=1;orthogonalLoop=1;jettySize=auto;html=1;exitX=1;exitY=0.5;exitDx=0;exitDy=0;entryX=0;entryY=0.5;entryDx=0;entryDy=0;" edge="1" parent="1" source="HnorNMe7MBEDUzYWuFHN-92" target="HnorNMe7MBEDUzYWuFHN-131">
          <mxGeometry relative="1" as="geometry" />
        </mxCell>
        <mxCell id="HnorNMe7MBEDUzYWuFHN-92" value="&lt;font style=&quot;font-size: 30px&quot;&gt;Conv&lt;/font&gt;" style="rounded=1;whiteSpace=wrap;html=1;fillColor=#dae8fc;strokeColor=#6c8ebf;gradientColor=#ffffff;" vertex="1" parent="1">
          <mxGeometry x="1097" y="-4483" width="100" height="40" as="geometry" />
        </mxCell>
        <mxCell id="HnorNMe7MBEDUzYWuFHN-134" style="edgeStyle=orthogonalEdgeStyle;curved=1;orthogonalLoop=1;jettySize=auto;html=1;exitX=1;exitY=0.5;exitDx=0;exitDy=0;entryX=0;entryY=0.75;entryDx=0;entryDy=0;" edge="1" parent="1" source="HnorNMe7MBEDUzYWuFHN-94" target="HnorNMe7MBEDUzYWuFHN-131">
          <mxGeometry relative="1" as="geometry" />
        </mxCell>
        <mxCell id="HnorNMe7MBEDUzYWuFHN-94" value="&lt;font style=&quot;font-size: 30px&quot;&gt;Conv&lt;/font&gt;" style="rounded=1;whiteSpace=wrap;html=1;fillColor=#dae8fc;strokeColor=#6c8ebf;gradientColor=#ffffff;" vertex="1" parent="1">
          <mxGeometry x="1097" y="-4407" width="100" height="40" as="geometry" />
        </mxCell>
        <mxCell id="HnorNMe7MBEDUzYWuFHN-98" value="Conv" style="rounded=1;whiteSpace=wrap;html=1;fillColor=#dae8fc;strokeColor=#6c8ebf;gradientColor=#ffffff;" vertex="1" parent="1">
          <mxGeometry x="619" y="-3884" width="80" height="30" as="geometry" />
        </mxCell>
        <mxCell id="HnorNMe7MBEDUzYWuFHN-99" value="" style="endArrow=classic;html=1;exitX=0.5;exitY=1;exitDx=0;exitDy=0;entryX=0.5;entryY=0;entryDx=0;entryDy=0;" edge="1" parent="1" source="HnorNMe7MBEDUzYWuFHN-16" target="HnorNMe7MBEDUzYWuFHN-50">
          <mxGeometry width="50" height="50" relative="1" as="geometry">
            <mxPoint x="675" y="-3908" as="sourcePoint" />
            <mxPoint x="755" y="-3874" as="targetPoint" />
          </mxGeometry>
        </mxCell>
        <mxCell id="HnorNMe7MBEDUzYWuFHN-100" value="" style="endArrow=classic;html=1;exitX=0.5;exitY=1;exitDx=0;exitDy=0;entryX=0.5;entryY=0;entryDx=0;entryDy=0;" edge="1" parent="1" source="HnorNMe7MBEDUzYWuFHN-50" target="HnorNMe7MBEDUzYWuFHN-98">
          <mxGeometry width="50" height="50" relative="1" as="geometry">
            <mxPoint x="715" y="-3826" as="sourcePoint" />
            <mxPoint x="765" y="-3876" as="targetPoint" />
          </mxGeometry>
        </mxCell>
        <mxCell id="HnorNMe7MBEDUzYWuFHN-101" value="" style="endArrow=classic;html=1;exitX=0.5;exitY=1;exitDx=0;exitDy=0;entryX=0.5;entryY=0;entryDx=0;entryDy=0;" edge="1" parent="1" source="HnorNMe7MBEDUzYWuFHN-16" target="HnorNMe7MBEDUzYWuFHN-98">
          <mxGeometry width="50" height="50" relative="1" as="geometry">
            <mxPoint x="581" y="-3832" as="sourcePoint" />
            <mxPoint x="637" y="-3802" as="targetPoint" />
            <Array as="points">
              <mxPoint x="617" y="-3920" />
            </Array>
          </mxGeometry>
        </mxCell>
        <mxCell id="HnorNMe7MBEDUzYWuFHN-102" value="" style="endArrow=classic;html=1;exitX=0.5;exitY=1;exitDx=0;exitDy=0;entryX=0.75;entryY=0;entryDx=0;entryDy=0;" edge="1" parent="1" source="HnorNMe7MBEDUzYWuFHN-98" target="HnorNMe7MBEDUzYWuFHN-17">
          <mxGeometry width="50" height="50" relative="1" as="geometry">
            <mxPoint x="790" y="-3694" as="sourcePoint" />
            <mxPoint x="727" y="-3662" as="targetPoint" />
          </mxGeometry>
        </mxCell>
        <mxCell id="HnorNMe7MBEDUzYWuFHN-119" style="edgeStyle=orthogonalEdgeStyle;curved=1;orthogonalLoop=1;jettySize=auto;html=1;exitX=1;exitY=0.5;exitDx=0;exitDy=0;entryX=1;entryY=0.5;entryDx=0;entryDy=0;" edge="1" parent="1" source="HnorNMe7MBEDUzYWuFHN-105" target="HnorNMe7MBEDUzYWuFHN-109">
          <mxGeometry relative="1" as="geometry">
            <Array as="points">
              <mxPoint x="1207" y="-3859" />
              <mxPoint x="1207" y="-3995" />
            </Array>
          </mxGeometry>
        </mxCell>
        <mxCell id="HnorNMe7MBEDUzYWuFHN-105" value="Conv" style="rounded=1;whiteSpace=wrap;html=1;fillColor=#ffe6cc;strokeColor=#d79b00;" vertex="1" parent="1">
          <mxGeometry x="1019" y="-3874" width="80" height="30" as="geometry" />
        </mxCell>
        <mxCell id="HnorNMe7MBEDUzYWuFHN-106" value="MaxPool" style="rounded=1;whiteSpace=wrap;html=1;fillColor=#ffe6cc;strokeColor=#d79b00;" vertex="1" parent="1">
          <mxGeometry x="921" y="-3946" width="80" height="30" as="geometry" />
        </mxCell>
        <mxCell id="HnorNMe7MBEDUzYWuFHN-107" value="MaxPool" style="rounded=1;whiteSpace=wrap;html=1;fillColor=#ffe6cc;strokeColor=#d79b00;" vertex="1" parent="1">
          <mxGeometry x="1019" y="-3946" width="80" height="30" as="geometry" />
        </mxCell>
        <mxCell id="HnorNMe7MBEDUzYWuFHN-108" value="MaxPool" style="rounded=1;whiteSpace=wrap;html=1;fillColor=#ffe6cc;strokeColor=#d79b00;" vertex="1" parent="1">
          <mxGeometry x="1119" y="-3946" width="80" height="30" as="geometry" />
        </mxCell>
        <mxCell id="HnorNMe7MBEDUzYWuFHN-109" value="Conv" style="rounded=1;whiteSpace=wrap;html=1;fillColor=#ffe6cc;strokeColor=#d79b00;" vertex="1" parent="1">
          <mxGeometry x="1019" y="-4010" width="80" height="30" as="geometry" />
        </mxCell>
        <mxCell id="HnorNMe7MBEDUzYWuFHN-110" value="" style="endArrow=classic;html=1;exitX=0.5;exitY=0;exitDx=0;exitDy=0;entryX=0.5;entryY=1;entryDx=0;entryDy=0;" edge="1" parent="1" source="HnorNMe7MBEDUzYWuFHN-105" target="HnorNMe7MBEDUzYWuFHN-106">
          <mxGeometry width="50" height="50" relative="1" as="geometry">
            <mxPoint x="1083" y="-3922" as="sourcePoint" />
            <mxPoint x="1133" y="-3972" as="targetPoint" />
          </mxGeometry>
        </mxCell>
        <mxCell id="HnorNMe7MBEDUzYWuFHN-111" value="" style="endArrow=classic;html=1;exitX=0.5;exitY=0;exitDx=0;exitDy=0;entryX=0.5;entryY=1;entryDx=0;entryDy=0;entryPerimeter=0;" edge="1" parent="1" source="HnorNMe7MBEDUzYWuFHN-105" target="HnorNMe7MBEDUzYWuFHN-107">
          <mxGeometry width="50" height="50" relative="1" as="geometry">
            <mxPoint x="1083" y="-3922" as="sourcePoint" />
            <mxPoint x="1133" y="-3972" as="targetPoint" />
          </mxGeometry>
        </mxCell>
        <mxCell id="HnorNMe7MBEDUzYWuFHN-113" value="" style="endArrow=classic;html=1;exitX=0.5;exitY=0;exitDx=0;exitDy=0;entryX=0.5;entryY=1;entryDx=0;entryDy=0;" edge="1" parent="1" source="HnorNMe7MBEDUzYWuFHN-105" target="HnorNMe7MBEDUzYWuFHN-108">
          <mxGeometry width="50" height="50" relative="1" as="geometry">
            <mxPoint x="1061" y="-3858" as="sourcePoint" />
            <mxPoint x="963" y="-3914" as="targetPoint" />
          </mxGeometry>
        </mxCell>
        <mxCell id="HnorNMe7MBEDUzYWuFHN-114" value="" style="endArrow=classic;html=1;entryX=0.5;entryY=1;entryDx=0;entryDy=0;exitX=0.5;exitY=0;exitDx=0;exitDy=0;" edge="1" parent="1" source="HnorNMe7MBEDUzYWuFHN-107" target="HnorNMe7MBEDUzYWuFHN-109">
          <mxGeometry width="50" height="50" relative="1" as="geometry">
            <mxPoint x="1005" y="-3930" as="sourcePoint" />
            <mxPoint x="1055" y="-3980" as="targetPoint" />
          </mxGeometry>
        </mxCell>
        <mxCell id="HnorNMe7MBEDUzYWuFHN-115" value="" style="endArrow=classic;html=1;entryX=0.223;entryY=0.991;entryDx=0;entryDy=0;entryPerimeter=0;exitX=0.5;exitY=0;exitDx=0;exitDy=0;" edge="1" parent="1" source="HnorNMe7MBEDUzYWuFHN-106" target="HnorNMe7MBEDUzYWuFHN-109">
          <mxGeometry width="50" height="50" relative="1" as="geometry">
            <mxPoint x="1005" y="-3930" as="sourcePoint" />
            <mxPoint x="1055" y="-3980" as="targetPoint" />
          </mxGeometry>
        </mxCell>
        <mxCell id="HnorNMe7MBEDUzYWuFHN-117" value="" style="endArrow=classic;html=1;entryX=0.75;entryY=1;entryDx=0;entryDy=0;exitX=0.5;exitY=0;exitDx=0;exitDy=0;" edge="1" parent="1" source="HnorNMe7MBEDUzYWuFHN-108" target="HnorNMe7MBEDUzYWuFHN-109">
          <mxGeometry width="50" height="50" relative="1" as="geometry">
            <mxPoint x="1005" y="-3930" as="sourcePoint" />
            <mxPoint x="1055" y="-3980" as="targetPoint" />
          </mxGeometry>
        </mxCell>
        <mxCell id="HnorNMe7MBEDUzYWuFHN-118" value="&lt;font color=&quot;#ff3333&quot;&gt;xN&lt;/font&gt;" style="text;html=1;align=center;verticalAlign=middle;resizable=0;points=[];autosize=1;strokeColor=none;" vertex="1" parent="1">
          <mxGeometry x="755" y="-3926" width="26" height="20" as="geometry" />
        </mxCell>
        <mxCell id="HnorNMe7MBEDUzYWuFHN-120" value="" style="shape=curlyBracket;whiteSpace=wrap;html=1;rounded=1;flipH=1;gradientColor=#ffffff;" vertex="1" parent="1">
          <mxGeometry x="742" y="-3928" width="16" height="26" as="geometry" />
        </mxCell>
        <mxCell id="HnorNMe7MBEDUzYWuFHN-125" value="&lt;font color=&quot;#ff3333&quot;&gt;Kernel_size:&lt;/font&gt;" style="text;html=1;align=center;verticalAlign=middle;resizable=0;points=[];autosize=1;strokeColor=none;" vertex="1" parent="1">
          <mxGeometry x="843" y="-3920" width="78" height="20" as="geometry" />
        </mxCell>
        <mxCell id="HnorNMe7MBEDUzYWuFHN-126" value="&lt;font color=&quot;#ff3333&quot;&gt;5&lt;/font&gt;" style="text;html=1;align=center;verticalAlign=middle;resizable=0;points=[];autosize=1;strokeColor=none;" vertex="1" parent="1">
          <mxGeometry x="940" y="-3916" width="18" height="20" as="geometry" />
        </mxCell>
        <mxCell id="HnorNMe7MBEDUzYWuFHN-127" value="&lt;font color=&quot;#ff3333&quot;&gt;9&lt;/font&gt;" style="text;html=1;align=center;verticalAlign=middle;resizable=0;points=[];autosize=1;strokeColor=none;" vertex="1" parent="1">
          <mxGeometry x="1040" y="-3916" width="18" height="20" as="geometry" />
        </mxCell>
        <mxCell id="HnorNMe7MBEDUzYWuFHN-128" value="&lt;font color=&quot;#ff3333&quot;&gt;13&lt;/font&gt;" style="text;html=1;align=center;verticalAlign=middle;resizable=0;points=[];autosize=1;strokeColor=none;" vertex="1" parent="1">
          <mxGeometry x="1154" y="-3916" width="26" height="20" as="geometry" />
        </mxCell>
        <mxCell id="HnorNMe7MBEDUzYWuFHN-131" value="&lt;font style=&quot;font-size: 30px&quot;&gt;N&lt;br&gt;M&lt;br&gt;S&lt;br&gt;&lt;/font&gt;" style="rounded=1;whiteSpace=wrap;html=1;fillColor=#dae8fc;strokeColor=#6c8ebf;gradientColor=#ffffff;" vertex="1" parent="1">
          <mxGeometry x="1285" y="-4523.5" width="52" height="121" as="geometry" />
        </mxCell>
        <mxCell id="HnorNMe7MBEDUzYWuFHN-151" value="" style="endArrow=classic;html=1;entryX=0;entryY=0.5;entryDx=0;entryDy=0;" edge="1" parent="1" target="HnorNMe7MBEDUzYWuFHN-76">
          <mxGeometry width="50" height="50" relative="1" as="geometry">
            <mxPoint x="752" y="-4548" as="sourcePoint" />
            <mxPoint x="821" y="-4453" as="targetPoint" />
            <Array as="points">
              <mxPoint x="752" y="-4388" />
            </Array>
          </mxGeometry>
        </mxCell>
        <mxCell id="HnorNMe7MBEDUzYWuFHN-152" value="" style="endArrow=classic;html=1;entryX=0.5;entryY=1;entryDx=0;entryDy=0;exitX=1;exitY=0.5;exitDx=0;exitDy=0;" edge="1" parent="1" source="HnorNMe7MBEDUzYWuFHN-58" target="HnorNMe7MBEDUzYWuFHN-68">
          <mxGeometry width="50" height="50" relative="1" as="geometry">
            <mxPoint x="817" y="-4463" as="sourcePoint" />
            <mxPoint x="867" y="-4513" as="targetPoint" />
            <Array as="points">
              <mxPoint x="835" y="-4420" />
            </Array>
          </mxGeometry>
        </mxCell>
        <mxCell id="HnorNMe7MBEDUzYWuFHN-153" value="" style="endArrow=classic;html=1;entryX=0.75;entryY=0;entryDx=0;entryDy=0;exitX=0.25;exitY=1;exitDx=0;exitDy=0;" edge="1" parent="1" source="HnorNMe7MBEDUzYWuFHN-71" target="HnorNMe7MBEDUzYWuFHN-73">
          <mxGeometry width="50" height="50" relative="1" as="geometry">
            <mxPoint x="1088" y="-4504" as="sourcePoint" />
            <mxPoint x="843" y="-4511" as="targetPoint" />
          </mxGeometry>
        </mxCell>
        <mxCell id="HnorNMe7MBEDUzYWuFHN-154" value="" style="endArrow=classic;html=1;exitX=1;exitY=0.5;exitDx=0;exitDy=0;entryX=0.5;entryY=1;entryDx=0;entryDy=0;" edge="1" parent="1" source="HnorNMe7MBEDUzYWuFHN-57" target="HnorNMe7MBEDUzYWuFHN-71">
          <mxGeometry width="50" height="50" relative="1" as="geometry">
            <mxPoint x="793" y="-4346" as="sourcePoint" />
            <mxPoint x="843" y="-4396" as="targetPoint" />
            <Array as="points">
              <mxPoint x="1000" y="-4354" />
            </Array>
          </mxGeometry>
        </mxCell>
      </root>
    </mxGraphModel>
  </diagram>
</mxfile>
